<svg xmlns="http://www.w3.org/2000/svg" xmlns:xlink="http://www.w3.org/1999/xlink" viewBox="0 0 332.25 225.31"><defs><style>.cls-1,.cls-11,.cls-30,.cls-41,.cls-52,.cls-63,.cls-76{fill:none;}.cls-2,.cls-3,.cls-4,.cls-5,.cls-6,.cls-7,.cls-8,.cls-9{opacity:0.18;}.cls-2{fill:url(#Unbenannter_Verlauf_280);}.cls-3{fill:url(#Unbenannter_Verlauf_280-2);}.cls-4{fill:url(#Unbenannter_Verlauf_280-3);}.cls-5{fill:url(#Unbenannter_Verlauf_280-4);}.cls-6{fill:url(#Unbenannter_Verlauf_280-5);}.cls-7{fill:url(#Unbenannter_Verlauf_280-6);}.cls-8{fill:url(#Unbenannter_Verlauf_280-7);}.cls-9{fill:url(#Unbenannter_Verlauf_280-8);}.cls-10{fill:url(#Unbenannter_Verlauf_50);}.cls-11{stroke:#fff;stroke-linecap:round;}.cls-11,.cls-30,.cls-41,.cls-52,.cls-63,.cls-76{stroke-miterlimit:10;}.cls-11,.cls-76{stroke-width:0.5px;}.cls-12{fill:url(#Unbenannter_Verlauf_50-2);}.cls-13{fill:#003718;}.cls-14{fill:#004426;}.cls-15{fill:#f0f0f0;}.cls-16{fill:url(#Unbenannter_Verlauf_2);}.cls-17{fill:#fff;}.cls-18{fill:url(#Unbenannter_Verlauf_38);}.cls-19{fill:url(#Unbenannter_Verlauf_38-2);}.cls-20{fill:url(#Unbenannter_Verlauf_38-3);}.cls-21{fill:url(#Unbenannter_Verlauf_38-4);}.cls-22{fill:url(#Unbenannter_Verlauf_38-5);}.cls-23{fill:url(#Unbenannter_Verlauf_38-6);}.cls-24{fill:url(#Unbenannter_Verlauf_38-7);}.cls-25{fill:url(#Unbenannter_Verlauf_38-8);}.cls-26{fill:url(#Unbenannter_Verlauf_38-9);}.cls-27{fill:url(#Unbenannter_Verlauf_38-10);}.cls-28{fill:url(#Unbenannter_Verlauf_38-11);}.cls-29{fill:url(#Unbenannter_Verlauf_38-12);}.cls-30{stroke:url(#Unbenannter_Verlauf_38-13);}.cls-31{fill:url(#Unbenannter_Verlauf_50-3);}.cls-32{fill:url(#Unbenannter_Verlauf_50-4);}.cls-33{fill:url(#Unbenannter_Verlauf_50-5);}.cls-34{fill:url(#Unbenannter_Verlauf_50-6);}.cls-35{fill:url(#Unbenannter_Verlauf_50-7);}.cls-36{fill:url(#Unbenannter_Verlauf_50-8);}.cls-37{fill:url(#Unbenannter_Verlauf_50-9);}.cls-38{fill:url(#Unbenannter_Verlauf_50-10);}.cls-39{fill:url(#Unbenannter_Verlauf_50-11);}.cls-40{fill:url(#Unbenannter_Verlauf_50-12);}.cls-41{stroke:url(#Unbenannter_Verlauf_50-13);}.cls-42{fill:url(#Unbenannter_Verlauf_50-14);}.cls-43{fill:url(#Unbenannter_Verlauf_50-15);}.cls-44{fill:url(#Unbenannter_Verlauf_50-16);}.cls-45{fill:url(#Unbenannter_Verlauf_50-17);}.cls-46{fill:url(#Unbenannter_Verlauf_50-18);}.cls-47{fill:url(#Unbenannter_Verlauf_50-19);}.cls-48{fill:url(#Unbenannter_Verlauf_50-20);}.cls-49{fill:url(#Unbenannter_Verlauf_50-21);}.cls-50{fill:url(#Unbenannter_Verlauf_50-22);}.cls-51{fill:url(#Unbenannter_Verlauf_50-23);}.cls-52{stroke:url(#Unbenannter_Verlauf_50-24);}.cls-53{fill:url(#Unbenannter_Verlauf_38-14);}.cls-54{fill:url(#Unbenannter_Verlauf_38-15);}.cls-55{fill:url(#Unbenannter_Verlauf_38-16);}.cls-56{fill:url(#Unbenannter_Verlauf_38-17);}.cls-57{fill:url(#Unbenannter_Verlauf_38-18);}.cls-58{fill:url(#Unbenannter_Verlauf_38-19);}.cls-59{fill:url(#Unbenannter_Verlauf_38-20);}.cls-60{fill:url(#Unbenannter_Verlauf_38-21);}.cls-61{fill:url(#Unbenannter_Verlauf_38-22);}.cls-62{fill:url(#Unbenannter_Verlauf_38-23);}.cls-63{stroke:url(#Unbenannter_Verlauf_38-24);}.cls-64{fill:url(#Unbenannter_Verlauf_25);}.cls-65{fill:url(#Unbenannter_Verlauf_348);}.cls-66{fill:url(#Unbenannter_Verlauf_348-2);}.cls-67{fill:url(#Unbenannter_Verlauf_348-3);}.cls-68{fill:url(#Unbenannter_Verlauf_315);}.cls-69{fill:url(#Unbenannter_Verlauf_315-2);}.cls-70{fill:#ac296c;}.cls-71{fill:url(#Unbenannter_Verlauf_348-4);}.cls-72{fill:url(#Unbenannter_Verlauf_315-3);}.cls-73{fill:#562111;}.cls-74{fill:url(#Unbenannter_Verlauf_348-5);}.cls-75{fill:#db6f3d;}.cls-76{stroke:#f0f0f0;}.cls-77{fill:url(#Unbenannter_Verlauf_348-6);}.cls-78{clip-path:url(#clip-path);}.cls-79{fill:#fc9f6a;}.cls-80{fill:url(#Unbenannter_Verlauf_7);}.cls-81{fill:url(#Unbenannter_Verlauf_348-7);}.cls-82{fill:url(#Unbenannter_Verlauf_307);}.cls-83{fill:url(#Unbenannter_Verlauf_45);}.cls-84{fill:url(#CG-verlauf);}.cls-85{fill:url(#Unbenannter_Verlauf_45-2);}.cls-86{fill:url(#CG-verlauf-2);}.cls-87{fill:url(#Unbenannter_Verlauf_45-3);}.cls-88{fill:url(#CG-verlauf-3);}</style><linearGradient id="Unbenannter_Verlauf_280" y1="112.65" x2="225.31" y2="112.65" gradientUnits="userSpaceOnUse"><stop offset="0" stop-color="#c4d65a"/><stop offset="0.52" stop-color="#d1de87"/><stop offset="1" stop-color="#f0f0f0"/></linearGradient><linearGradient id="Unbenannter_Verlauf_280-2" x1="6.81" y1="123.38" x2="186.6" y2="123.38" xlink:href="#Unbenannter_Verlauf_280"/><linearGradient id="Unbenannter_Verlauf_280-3" x1="184.95" y1="146.97" x2="332.25" y2="146.97" xlink:href="#Unbenannter_Verlauf_280"/><linearGradient id="Unbenannter_Verlauf_280-4" x1="193.31" y1="153.4" x2="312.4" y2="153.4" xlink:href="#Unbenannter_Verlauf_280"/><linearGradient id="Unbenannter_Verlauf_280-5" x1="55.73" y1="55.82" x2="88.36" y2="55.82" xlink:href="#Unbenannter_Verlauf_280"/><linearGradient id="Unbenannter_Verlauf_280-6" x1="57.58" y1="57.24" x2="83.96" y2="57.24" xlink:href="#Unbenannter_Verlauf_280"/><linearGradient id="Unbenannter_Verlauf_280-7" x1="249.78" y1="52.81" x2="282.41" y2="52.81" xlink:href="#Unbenannter_Verlauf_280"/><linearGradient id="Unbenannter_Verlauf_280-8" x1="251.63" y1="54.23" x2="278.01" y2="54.23" xlink:href="#Unbenannter_Verlauf_280"/><linearGradient id="Unbenannter_Verlauf_50" x1="1300.66" y1="186.33" x2="1318.55" y2="186.33" gradientTransform="matrix(-1, 0, 0, 1, 1441.6, 0)" gradientUnits="userSpaceOnUse"><stop offset="0" stop-color="#3f932c"/><stop offset="1" stop-color="#d1de87"/></linearGradient><linearGradient id="Unbenannter_Verlauf_50-2" x1="175.48" y1="251.49" x2="189.75" y2="251.49" gradientTransform="translate(-30.34 -82.98) rotate(6.52)" xlink:href="#Unbenannter_Verlauf_50"/><linearGradient id="Unbenannter_Verlauf_2" x1="234.75" y1="75.84" x2="74.91" y2="148.55" gradientUnits="userSpaceOnUse"><stop offset="0" stop-color="#adc90e"/><stop offset="1" stop-color="#004426"/></linearGradient><linearGradient id="Unbenannter_Verlauf_38" x1="-69.8" y1="-37.95" x2="-64" y2="-37.95" gradientTransform="matrix(0.96, -0.27, 0.27, 0.96, 113.64, 160.13)" gradientUnits="userSpaceOnUse"><stop offset="0" stop-color="#adc90e"/><stop offset="0.52" stop-color="#d1de87"/><stop offset="1" stop-color="#f0f0f0"/></linearGradient><linearGradient id="Unbenannter_Verlauf_38-2" x1="423.81" y1="291.59" x2="433.13" y2="291.59" gradientTransform="translate(-64.77 -290.78) rotate(14.38)" xlink:href="#Unbenannter_Verlauf_38"/><linearGradient id="Unbenannter_Verlauf_38-3" x1="1312.95" y1="205.82" x2="1324.67" y2="205.82" gradientTransform="matrix(-0.99, -0.13, -0.13, 0.99, 1598.21, 75.94)" xlink:href="#Unbenannter_Verlauf_38"/><linearGradient id="Unbenannter_Verlauf_38-4" x1="1238.78" y1="267.03" x2="1249.78" y2="267.03" gradientTransform="matrix(-0.97, -0.24, -0.24, 0.97, 1543.1, 136.69)" xlink:href="#Unbenannter_Verlauf_38"/><linearGradient id="Unbenannter_Verlauf_38-5" x1="1378.62" y1="121.52" x2="1359.46" y2="113.04" gradientTransform="matrix(-1, 0, 0, 1, 1648.52, 0)" xlink:href="#Unbenannter_Verlauf_38"/><linearGradient id="Unbenannter_Verlauf_38-6" x1="1443.19" y1="356.38" x2="1419.22" y2="345.78" gradientTransform="matrix(-1.04, -0.12, 0.12, 0.83, 1714.43, 16.42)" xlink:href="#Unbenannter_Verlauf_38"/><linearGradient id="Unbenannter_Verlauf_38-7" x1="1298.6" y1="207.78" x2="1274.62" y2="197.17" gradientTransform="matrix(-1.23, -0.12, 0.12, 1.04, 1833.6, 86.08)" xlink:href="#Unbenannter_Verlauf_38"/><linearGradient id="Unbenannter_Verlauf_38-8" x1="-13.42" y1="265.4" x2="-3.15" y2="265.4" gradientTransform="matrix(0.21, -0.98, -0.98, -0.21, 541.5, 152.16)" xlink:href="#Unbenannter_Verlauf_38"/><linearGradient id="Unbenannter_Verlauf_38-9" x1="1054.48" y1="432" x2="1074.68" y2="432" gradientTransform="matrix(-0.87, -0.49, -0.49, 0.87, 1398.05, 263.14)" xlink:href="#Unbenannter_Verlauf_38"/><linearGradient id="Unbenannter_Verlauf_38-10" x1="1006.56" y1="376.3" x2="1026.76" y2="376.3" gradientTransform="matrix(-0.97, -0.53, -0.54, 0.95, 1441.33, 314.76)" xlink:href="#Unbenannter_Verlauf_38"/><linearGradient id="Unbenannter_Verlauf_38-11" x1="1389.34" y1="155.88" x2="1365.32" y2="162.81" gradientTransform="matrix(-1, 0, 0, 1, 1648.52, 0)" xlink:href="#Unbenannter_Verlauf_38"/><linearGradient id="Unbenannter_Verlauf_38-12" x1="1395.45" y1="154.17" x2="1414.59" y2="146.04" gradientTransform="matrix(-1, 0, 0, 1, 1648.52, 0)" xlink:href="#Unbenannter_Verlauf_38"/><linearGradient id="Unbenannter_Verlauf_38-13" x1="1372.81" y1="152.55" x2="1404.18" y2="152.55" gradientTransform="matrix(-1, 0, 0, 1, 1648.52, 0)" xlink:href="#Unbenannter_Verlauf_38"/><linearGradient id="Unbenannter_Verlauf_50-3" x1="1163.31" y1="241.55" x2="1167.41" y2="241.55" gradientTransform="matrix(-0.99, -0.13, -0.13, 0.99, 1256.51, 75.94)" xlink:href="#Unbenannter_Verlauf_50"/><linearGradient id="Unbenannter_Verlauf_50-4" x1="1087.85" y1="294.27" x2="1091.68" y2="294.27" gradientTransform="matrix(-0.97, -0.24, -0.24, 0.97, 1201.4, 136.69)" xlink:href="#Unbenannter_Verlauf_50"/><linearGradient id="Unbenannter_Verlauf_50-5" x1="1233.8" y1="172.23" x2="1227.1" y2="169.26" gradientTransform="matrix(-1, 0, 0, 1, 1306.82, 0)" xlink:href="#Unbenannter_Verlauf_50"/><linearGradient id="Unbenannter_Verlauf_50-6" x1="1303.67" y1="389.45" x2="1295.28" y2="385.75" gradientTransform="matrix(-1.04, -0.12, 0.12, 0.83, 1372.72, 16.42)" xlink:href="#Unbenannter_Verlauf_50"/><linearGradient id="Unbenannter_Verlauf_50-7" x1="1176.39" y1="228.22" x2="1168" y2="224.51" gradientTransform="matrix(-1.23, -0.12, 0.12, 1.04, 1491.9, 86.08)" xlink:href="#Unbenannter_Verlauf_50"/><linearGradient id="Unbenannter_Verlauf_50-8" x1="-41.48" y1="117.92" x2="-37.99" y2="117.92" gradientTransform="matrix(0.21, -0.98, -0.98, -0.21, 199.79, 152.16)" xlink:href="#Unbenannter_Verlauf_50"/><linearGradient id="Unbenannter_Verlauf_50-9" x1="904.92" y1="401.41" x2="911.92" y2="401.41" gradientTransform="matrix(-0.87, -0.49, -0.49, 0.87, 1056.34, 263.14)" xlink:href="#Unbenannter_Verlauf_50"/><linearGradient id="Unbenannter_Verlauf_50-10" x1="872.05" y1="342.1" x2="879.05" y2="342.1" gradientTransform="matrix(-0.97, -0.53, -0.54, 0.95, 1099.63, 314.76)" xlink:href="#Unbenannter_Verlauf_50"/><linearGradient id="Unbenannter_Verlauf_50-11" x1="1237.63" y1="186.6" x2="1229.21" y2="189.03" gradientTransform="matrix(-1, 0, 0, 1, 1306.82, 0)" xlink:href="#Unbenannter_Verlauf_50"/><linearGradient id="Unbenannter_Verlauf_50-12" x1="1242.32" y1="185.8" x2="1249.01" y2="182.96" gradientTransform="matrix(-1, 0, 0, 1, 1306.82, 0)" xlink:href="#Unbenannter_Verlauf_50"/><linearGradient id="Unbenannter_Verlauf_50-13" x1="1231.87" y1="182.49" x2="1243.52" y2="182.49" gradientTransform="matrix(-1, 0, 0, 1, 1306.82, 0)" xlink:href="#Unbenannter_Verlauf_50"/><linearGradient id="Unbenannter_Verlauf_50-14" x1="-162.41" y1="61.97" x2="-156.66" y2="61.97" gradientTransform="translate(384.73 75.94) rotate(-7.21)" xlink:href="#Unbenannter_Verlauf_50"/><linearGradient id="Unbenannter_Verlauf_50-15" x1="-210.24" y1="-33.96" x2="-204.87" y2="-33.96" gradientTransform="translate(439.84 136.69) rotate(-13.63)" xlink:href="#Unbenannter_Verlauf_50"/><linearGradient id="Unbenannter_Verlauf_50-16" x1="-104.36" y1="161.62" x2="-113.75" y2="157.46" gradientTransform="translate(334.41)" xlink:href="#Unbenannter_Verlauf_50"/><linearGradient id="Unbenannter_Verlauf_50-17" x1="-13.48" y1="181.01" x2="-25.24" y2="175.8" gradientTransform="matrix(1.04, -0.12, -0.12, 0.83, 268.51, 16.42)" xlink:href="#Unbenannter_Verlauf_50"/><linearGradient id="Unbenannter_Verlauf_50-18" x1="78.61" y1="96.62" x2="66.85" y2="91.42" gradientTransform="matrix(1.23, -0.12, -0.12, 1.04, 149.34, 86.08)" xlink:href="#Unbenannter_Verlauf_50"/><linearGradient id="Unbenannter_Verlauf_50-19" x1="247.68" y1="-1189.84" x2="252.57" y2="-1189.84" gradientTransform="translate(1441.44 152.16) rotate(-101.95)" xlink:href="#Unbenannter_Verlauf_50"/><linearGradient id="Unbenannter_Verlauf_50-20" x1="-259.41" y1="-256.02" x2="-249.58" y2="-256.02" gradientTransform="matrix(0.87, -0.49, 0.49, 0.87, 584.89, 263.14)" xlink:href="#Unbenannter_Verlauf_50"/><linearGradient id="Unbenannter_Verlauf_50-21" x1="-176.64" y1="-246.75" x2="-166.81" y2="-246.75" gradientTransform="matrix(0.97, -0.53, 0.54, 0.95, 541.61, 314.76)" xlink:href="#Unbenannter_Verlauf_50"/><linearGradient id="Unbenannter_Verlauf_50-22" x1="-98.98" y1="181.78" x2="-110.79" y2="185.19" gradientTransform="translate(334.41)" xlink:href="#Unbenannter_Verlauf_50"/><linearGradient id="Unbenannter_Verlauf_50-23" x1="-92.41" y1="180.66" x2="-83.02" y2="176.67" gradientTransform="translate(334.41)" xlink:href="#Unbenannter_Verlauf_50"/><linearGradient id="Unbenannter_Verlauf_50-24" x1="-106.87" y1="176.05" x2="-90.93" y2="176.05" gradientTransform="translate(334.41)" xlink:href="#Unbenannter_Verlauf_50"/><linearGradient id="Unbenannter_Verlauf_38-14" x1="-15.63" y1="73.82" x2="-8.95" y2="73.82" gradientTransform="translate(50.31 75.94) rotate(-7.21)" xlink:href="#Unbenannter_Verlauf_38"/><linearGradient id="Unbenannter_Verlauf_38-15" x1="-66.14" y1="-6.64" x2="-59.9" y2="-6.64" gradientTransform="translate(105.42 136.69) rotate(-13.63)" xlink:href="#Unbenannter_Verlauf_38"/><linearGradient id="Unbenannter_Verlauf_38-16" x1="42.53" y1="155.56" x2="31.61" y2="150.73" gradientTransform="matrix(1, 0, 0, 1, 0, 0)" xlink:href="#Unbenannter_Verlauf_38"/><linearGradient id="Unbenannter_Verlauf_38-17" x1="130.6" y1="196.59" x2="116.93" y2="190.55" gradientTransform="matrix(1.04, -0.12, -0.12, 0.83, -65.9, 16.42)" xlink:href="#Unbenannter_Verlauf_38"/><linearGradient id="Unbenannter_Verlauf_38-18" x1="199.46" y1="106.96" x2="185.79" y2="100.92" gradientTransform="matrix(1.23, -0.12, -0.12, 1.04, -185.08, 86.08)" xlink:href="#Unbenannter_Verlauf_38"/><linearGradient id="Unbenannter_Verlauf_38-19" x1="224.19" y1="-1045.33" x2="229.89" y2="-1045.33" gradientTransform="translate(1107.03 152.16) rotate(-101.95)" xlink:href="#Unbenannter_Verlauf_38"/><linearGradient id="Unbenannter_Verlauf_38-20" x1="-127.8" y1="-189.2" x2="-116.38" y2="-189.2" gradientTransform="matrix(0.87, -0.49, 0.49, 0.87, 250.48, 263.14)" xlink:href="#Unbenannter_Verlauf_38"/><linearGradient id="Unbenannter_Verlauf_38-21" x1="-58.27" y1="-185.54" x2="-46.85" y2="-185.54" gradientTransform="matrix(0.97, -0.53, 0.54, 0.95, 207.19, 314.76)" xlink:href="#Unbenannter_Verlauf_38"/><linearGradient id="Unbenannter_Verlauf_38-22" x1="48.78" y1="178.99" x2="35.06" y2="182.95" gradientTransform="matrix(1, 0, 0, 1, 0, 0)" xlink:href="#Unbenannter_Verlauf_38"/><linearGradient id="Unbenannter_Verlauf_38-23" x1="56.41" y1="177.69" x2="67.33" y2="173.05" gradientTransform="matrix(1, 0, 0, 1, 0, 0)" xlink:href="#Unbenannter_Verlauf_38"/><linearGradient id="Unbenannter_Verlauf_38-24" x1="39.68" y1="172.34" x2="58.06" y2="172.34" gradientTransform="matrix(1, 0, 0, 1, 0, 0)" xlink:href="#Unbenannter_Verlauf_38"/><linearGradient id="Unbenannter_Verlauf_25" x1="119.99" y1="131.66" x2="144.88" y2="131.66" gradientUnits="userSpaceOnUse"><stop offset="0" stop-color="#79417d"/><stop offset="1" stop-color="#ac296c"/></linearGradient><linearGradient id="Unbenannter_Verlauf_348" x1="160.21" y1="113.94" x2="165.34" y2="113.94" gradientUnits="userSpaceOnUse"><stop offset="0" stop-color="#edaf7c"/><stop offset="1" stop-color="#f7dcc0"/></linearGradient><linearGradient id="Unbenannter_Verlauf_348-2" x1="142.42" y1="119.72" x2="169.03" y2="119.72" xlink:href="#Unbenannter_Verlauf_348"/><linearGradient id="Unbenannter_Verlauf_348-3" x1="154.94" y1="129.49" x2="171.37" y2="129.49" xlink:href="#Unbenannter_Verlauf_348"/><linearGradient id="Unbenannter_Verlauf_315" x1="169.91" y1="121.64" x2="185.4" y2="121.64" gradientUnits="userSpaceOnUse"><stop offset="0" stop-color="#005ca6"/><stop offset="1" stop-color="#0078a6"/></linearGradient><linearGradient id="Unbenannter_Verlauf_315-2" x1="182.92" y1="131.55" x2="204.03" y2="131.55" xlink:href="#Unbenannter_Verlauf_315"/><linearGradient id="Unbenannter_Verlauf_348-4" x1="196.71" y1="137.7" x2="207.84" y2="137.7" xlink:href="#Unbenannter_Verlauf_348"/><linearGradient id="Unbenannter_Verlauf_315-3" x1="197.14" y1="123.2" x2="207.88" y2="123.2" xlink:href="#Unbenannter_Verlauf_315"/><linearGradient id="Unbenannter_Verlauf_348-5" x1="130.93" y1="113.69" x2="139.13" y2="103.19" xlink:href="#Unbenannter_Verlauf_348"/><linearGradient id="Unbenannter_Verlauf_348-6" x1="198.57" y1="105.87" x2="184.53" y2="105.95" xlink:href="#Unbenannter_Verlauf_348"/><clipPath id="clip-path"><path class="cls-1" d="M186.56,112.77c-.45,1.38.76,2.82,2.61,2.82a21.16,21.16,0,0,0,8.47-2.82c-1.53-.47-2.3-1.16-2.32-2.08v-1c0-1.17,0-2.71,0-4.28,1.44-1.88.91-4.07.46-4s-5.36-4.49-6.28-4.73a3.43,3.43,0,0,0-3.66,2.62c-.41,2.11-.58,7.4.95,9.52a2,2,0,0,0,2.06.71c0,.44,0,.68,0,1.18C188.86,111.61,188.09,112.3,186.56,112.77Z"/></clipPath><linearGradient id="Unbenannter_Verlauf_7" x1="1489.06" y1="-399.95" x2="1489.06" y2="-400.05" gradientTransform="matrix(140.51, 0, 0, -120.98, -209034.18, -48290.7)" gradientUnits="userSpaceOnUse"><stop offset="0" stop-color="#1d0024"/><stop offset="1" stop-color="#100014"/></linearGradient><linearGradient id="Unbenannter_Verlauf_348-7" x1="142.63" y1="134.47" x2="153.5" y2="125.72" xlink:href="#Unbenannter_Verlauf_348"/><linearGradient id="Unbenannter_Verlauf_307" x1="155.69" y1="131.83" x2="159.78" y2="131.83" gradientUnits="userSpaceOnUse"><stop offset="0" stop-color="#e6864e"/><stop offset="1" stop-color="#f1c392"/></linearGradient><linearGradient id="Unbenannter_Verlauf_45" x1="254.1" y1="86.31" x2="235.4" y2="96.15" xlink:href="#Unbenannter_Verlauf_2"/><linearGradient id="CG-verlauf" x1="253.89" y1="85.93" x2="235.2" y2="95.77" xlink:href="#Unbenannter_Verlauf_2"/><linearGradient id="Unbenannter_Verlauf_45-2" x1="229.06" y1="65.26" x2="210.36" y2="75.1" xlink:href="#Unbenannter_Verlauf_2"/><linearGradient id="CG-verlauf-2" x1="228.86" y1="64.88" x2="210.16" y2="74.72" xlink:href="#Unbenannter_Verlauf_2"/><linearGradient id="Unbenannter_Verlauf_45-3" x1="262.17" y1="50.43" x2="235.64" y2="64.39" xlink:href="#Unbenannter_Verlauf_2"/><linearGradient id="CG-verlauf-3" x1="261.88" y1="49.89" x2="235.35" y2="63.85" xlink:href="#Unbenannter_Verlauf_2"/></defs><g id="Layer_2" data-name="Layer 2"><g id="Ebene_8" data-name="Ebene 8"><circle class="cls-2" cx="112.65" cy="112.65" r="112.65"/><circle class="cls-3" cx="96.71" cy="123.38" r="89.89"/><circle class="cls-4" cx="258.6" cy="146.97" r="73.65"/><circle class="cls-5" cx="252.85" cy="153.4" r="59.55"/><circle class="cls-6" cx="72.04" cy="55.82" r="16.31"/><circle class="cls-7" cx="70.77" cy="57.24" r="13.19"/><circle class="cls-8" cx="266.1" cy="52.81" r="16.31"/><circle class="cls-9" cx="264.82" cy="54.23" r="13.19"/></g><g id="Ebene_2" data-name="Ebene 2"><path class="cls-10" d="M136.85,185.37c1.68-2.14,4.46-1.64,4-6.87s-1.9-5.49-3.16-5.72-5.84,2.37-6.83,8.16-1.45,7.78-4.19,8.13-4.2,2.09-3.47,5,2.28,5.76,5.26,5.84,7.63-2,9.27-5.88S135.17,187.5,136.85,185.37Z"/><path class="cls-11" d="M134.77,180.62s-5,9.17-7,17"/><path class="cls-12" d="M118.8,186.4c-1.13-1.84-3.39-1.7-2.58-5.81s2-4.18,3-4.24,4.41,2.4,4.67,7.08.44,6.3,2.59,6.82,3.13,2,2.3,4.28-2.34,4.35-4.7,4.15a8.52,8.52,0,0,1-6.82-5.5C116.34,190,119.94,188.25,118.8,186.4Z"/><path class="cls-11" d="M120.88,182.83a68.24,68.24,0,0,1,4,14.1"/><polygon class="cls-13" points="135.87 198.1 139.72 166.88 178.04 166.88 181.78 198.1 135.87 198.1"/><rect class="cls-14" x="61.15" y="61.13" width="195.34" height="109.82" rx="5.69"/><rect class="cls-15" x="69.44" y="65.51" width="178.77" height="89.75" rx="5.69"/><rect class="cls-16" x="74.33" y="69.73" width="169" height="81.31" rx="5.69"/><path class="cls-14" d="M191.69,194l-66.91,1.42a2.24,2.24,0,0,0-2.09,1.54l-1,3.26a2.22,2.22,0,0,0,2.15,2.88l69.46-.34a2.22,2.22,0,0,0,2.11-2.93l-1.5-4.34A2.23,2.23,0,0,0,191.69,194Z"/><path class="cls-17" d="M90.79,82.26l1.5-.78-.24-1.68-1.5.78Zm1.29-.89L91,82l-.18-1.26,1.13-.58Z"/><path class="cls-17" d="M87.48,76.18l-.86,2.09,1.64,1.46.86-2.09Zm.7,3.21-1.32-1.18.7-1.69,1.32,1.18Z"/><path class="cls-17" d="M92.58,76.59l-1.8.94.28,2,1.81-.93Zm-1.59,1,1.43-.74.23,1.59-1.43.74Z"/><path class="cls-17" d="M93.81,82.17l-1.45.29.75,1.28,1.45-.28Zm-1.14.43,1-.2.53.91-1,.2Z"/><path class="cls-17" d="M96.31,81.47l-1.39-.67-1.09,1.08,1.38.67Zm-2.14.35L95,81l1,.49-.79.78Z"/><path class="cls-17" d="M93.28,79.15l1.1-.19.19-1.1-1.1.18Zm.36-.93.69-.11-.12.68-.68.11Z"/><path class="cls-17" d="M91.47,83.75,91.88,85l1.29,0-.41-1.22Zm.55,1L91.75,84l.87,0,.27.82Z"/><path class="cls-17" d="M86.07,83.05l-.65.91,1.07.32.66-.91Zm.34,1-.67-.19.41-.57.67.2Z"/><path class="cls-17" d="M89.37,83.68l.27-.83-.7-.52-.26.83Zm-.32-1,.35.27-.13.42-.36-.27Z"/><path class="cls-17" d="M86.35,78.5l-1.46-.31.19,1.54,1.46.32Zm-1.09,1.06-.14-1.12,1,.23.14,1.12Z"/><path class="cls-17" d="M86.71,80.23l.55,1.88,1.95.1-.55-1.88Zm.71,1.69L87,80.45l1.52.08L88.94,82Z"/><path class="cls-17" d="M90.33,73.39a9.92,9.92,0,0,0-9.61,12.3h0c-1-8,5.3-11.73,9.55-11.73s8.62,4,8.62,9.31c0,1.53-1.65,7.61-6.38,7.43,0,0-1-1.1-1.55-1.68a23.75,23.75,0,0,0-.27-3.65c-.11-1.67,1.42-2.94,2.31-3.68L94.32,81l-.23-1.57-1.41.73.2,1.38a6,6,0,0,0-2.28,2c-.19-1.26-.51-2.63-.54-2.82l.66-1.16L89.6,78.35l-.84,1.48,1,1.17c.1.49.68,3,.14,4.13a5.65,5.65,0,0,0-3.27-2.77l-.52-1.77L84,80.49l.61,2.07,2.16.11c1.21.47,3,2.73,3.08,4a5.65,5.65,0,0,1-.19,1.61,5.12,5.12,0,0,1-1.37-1c-.23-.37-.58-.91-.88-.89s-.55,1.32.18,2,1.46,1.32,1.18,1.77-1.37.47-1.37.47a6.26,6.26,0,0,1-3.68-1.86C81.86,87,81.46,87.7,81.46,87.7h0a9.9,9.9,0,1,0,8.87-14.31Zm3.6,6.37.17,1.15-1,.53-.16-1.15Zm-4.3-1.07.84,1-.62,1.11-.84-1Zm-4.89,3.68-.48-1.67,1.73.09.49,1.66Z"/><path class="cls-17" d="M83.27,86.82c-.46-.27-.44.31-.44.31l.52,1a7.82,7.82,0,0,0,.93.81A3.89,3.89,0,0,0,83.27,86.82Z"/><path class="cls-17" d="M85.79,88.86l.4,1.21a3.63,3.63,0,0,0,1,.28,3.46,3.46,0,0,0-1-1.81C85.74,88.28,85.79,88.86,85.79,88.86Z"/><path class="cls-17" d="M84.71,87.7c-.48-.25-.43.33-.43.33l.52,1.26a4.3,4.3,0,0,0,.91.47A3.63,3.63,0,0,0,84.71,87.7Z"/></g><g id="pflanzen"><path class="cls-18" d="M41.37,139.58c-.27-.37-.4-.21-1-.8s-.06-1-.54-1.53c-.34-.39-.69,0-1.13-.12s-.13-1.36-.89-1.24l-.59.14c-.72.27.15,1.16-.15,1.52s-.82.16-.91.67c-.13.73.55.77.29,1.59s-.45.77-.5,1.22.12.82.91,1.34.35,1.17.48,2.14.93.9,1.34.94.77.38.71,1.08,1.15.72,1.15.72,1.07-.61.66-1.18-.26-1.06.07-1.29,1.06-.58.68-1.49-1.06-1.25-.65-2.09S41.63,139.94,41.37,139.58Z"/><path class="cls-19" d="M282.82,97.15c-.08-.72-.39-.61-.81-1.94s.68-1.39.46-2.57c-.14-.82-1-.5-1.46-1.07s.91-2-.24-2.44l-.94-.29c-1.22-.19-.72,1.75-1.42,2s-1.27-.44-1.81.2c-.77.92.16,1.51-.87,2.45s-1.25.7-1.67,1.29-.49,1.24.18,2.6-.45,1.91-1,3.37.57,2,1.1,2.37.77,1.15.11,2.08,1,1.92,1,1.92,2,0,1.87-1.11.49-1.68,1.14-1.74,1.93,0,2.14-1.52-.48-2.59.77-3.43S282.9,97.88,282.82,97.15Z"/><path class="cls-20" d="M260.53,117.93l7.34,3.2a1,1,0,0,0,1.3-1l-.93-8.14a1,1,0,0,0-.58-.79L260.12,108a1,1,0,0,0-1.29,1l1.13,8.17A1,1,0,0,0,260.53,117.93Z"/><path class="cls-21" d="M267.38,105.68l6.49,3.76a.88.88,0,0,0,1.31-.81l-.05-7.65a.92.92,0,0,0-.46-.8L268,96.37a.88.88,0,0,0-1.3.84l.23,7.7A.93.93,0,0,0,267.38,105.68Z"/><path class="cls-22" d="M281,122.75l5.8-7.07a1.12,1.12,0,0,0-.6-1.81l-8.67-1.77a1,1,0,0,0-1,.37l-5.91,7.28a1.13,1.13,0,0,0,.64,1.81l8.76,1.56A1.08,1.08,0,0,0,281,122.75Z"/><path class="cls-23" d="M279.28,135.06l6.47-6.38c.59-.59,0-1.68-1.05-2l-11.5-3.24a1.28,1.28,0,0,0-1.26.22l-6.56,6.59c-.59.59,0,1.69,1.09,2l11.58,3A1.3,1.3,0,0,0,279.28,135.06Z"/><path class="cls-24" d="M275.64,150.65l8-8.26c.72-.75.06-2.1-1.19-2.43l-13.62-3.64a1.52,1.52,0,0,0-1.51.33l-8.07,8.52c-.73.77,0,2.13,1.23,2.44L274.18,151A1.5,1.5,0,0,0,275.64,150.65Z"/><path class="cls-25" d="M277.61,102l-3.12,6.27a.84.84,0,0,0,.75,1.22l6.69-.25a.81.81,0,0,0,.69-.46l3.15-6.44a.84.84,0,0,0-.77-1.22l-6.73.43A.81.81,0,0,0,277.61,102Z"/><path class="cls-26" d="M253.79,129.23l10.08,2.51a1.26,1.26,0,0,0,1.47-1.61l-2.83-10.26a1.26,1.26,0,0,0-.91-.9l-10.34-2.5a1.26,1.26,0,0,0-1.45,1.64l3.09,10.26A1.25,1.25,0,0,0,253.79,129.23Z"/><path class="cls-27" d="M246.77,142.47l11.2,2.72a1.38,1.38,0,0,0,1.63-1.75l-3.14-11.15a1.38,1.38,0,0,0-1-1L244,128.61a1.39,1.39,0,0,0-1.62,1.78l3.44,11.14A1.37,1.37,0,0,0,246.77,142.47Z"/><path class="cls-28" d="M268.73,165.26l13.08-1.6a1.77,1.77,0,0,0,.67-2.93l-9-7.25a5.7,5.7,0,0,0-3.07-1l-13.14,1.15a1.77,1.77,0,0,0-.63,3l10.51,8.27A1.64,1.64,0,0,0,268.73,165.26Z"/><path class="cls-29" d="M241.82,156.17l13.08-1.59a1.79,1.79,0,0,0,.67-2.94l-9-7.25a5.64,5.64,0,0,0-3.07-1l-13.14,1.15a1.78,1.78,0,0,0-.62,3l10.5,8.27A1.62,1.62,0,0,0,241.82,156.17Z"/><path class="cls-30" d="M244.88,198.08c-1.12-18.33,24.71-78.11,30.38-90.9"/><path class="cls-31" d="M68.82,170.4l2.58,1.08a.34.34,0,0,0,.46-.35l-.33-2.75a.31.31,0,0,0-.21-.26L68.68,167a.33.33,0,0,0-.46.36l.4,2.75A.34.34,0,0,0,68.82,170.4Z"/><path class="cls-32" d="M71.72,166.74,74,168a.31.31,0,0,0,.46-.28v-2.58a.35.35,0,0,0-.17-.27l-2.34-1.28a.31.31,0,0,0-.46.28l.08,2.6A.33.33,0,0,0,71.72,166.74Z"/><path class="cls-33" d="M76.9,172.59l2-2.38a.37.37,0,0,0-.21-.61l-3-.6a.34.34,0,0,0-.35.13l-2.08,2.45a.37.37,0,0,0,.22.61l3.08.53A.39.39,0,0,0,76.9,172.59Z"/><path class="cls-34" d="M76.69,177.79,79,175.63c.21-.19,0-.56-.37-.66l-4-1.1a.51.51,0,0,0-.45.08l-2.3,2.22c-.21.2,0,.57.38.67l4.07,1A.44.44,0,0,0,76.69,177.79Z"/><path class="cls-35" d="M75.71,184.09l2.8-2.79c.25-.25,0-.7-.42-.82l-4.78-1.22a.56.56,0,0,0-.54.11l-2.83,2.87c-.26.26,0,.72.43.82l4.83,1.14A.52.52,0,0,0,75.71,184.09Z"/><path class="cls-36" d="M75.32,165.51l-1.1,2.11a.28.28,0,0,0,.26.41l2.36-.08a.31.31,0,0,0,.24-.16l1.1-2.17a.28.28,0,0,0-.26-.41l-2.37.14A.28.28,0,0,0,75.32,165.51Z"/><path class="cls-37" d="M65.94,174.85l3.54.85a.43.43,0,0,0,.52-.54l-1-3.46a.42.42,0,0,0-.32-.31l-3.63-.84a.43.43,0,0,0-.51.55l1.09,3.46A.4.4,0,0,0,65.94,174.85Z"/><path class="cls-38" d="M63.29,180.57l3.94.92a.47.47,0,0,0,.57-.59l-1.1-3.76a.48.48,0,0,0-.36-.33l-4-.91a.47.47,0,0,0-.57.6l1.2,3.76A.52.52,0,0,0,63.29,180.57Z"/><path class="cls-39" d="M72.53,189.8l4.6-.53a.59.59,0,0,0,.24-1l-3.17-2.45a2,2,0,0,0-1.08-.35l-4.62.38a.59.59,0,0,0-.22,1L72,189.65A.57.57,0,0,0,72.53,189.8Z"/><path class="cls-40" d="M60.56,186.43l4.6-.54a.58.58,0,0,0,.23-1l-3.16-2.45a2.06,2.06,0,0,0-1.08-.35l-4.62.39a.59.59,0,0,0-.22,1L60,186.27A.59.59,0,0,0,60.56,186.43Z"/><path class="cls-41" d="M63.81,197.9c-.39-6.18,8.69-26.34,10.68-30.65"/><path class="cls-42" d="M236,159.06l-3.62,1.51a.47.47,0,0,1-.64-.49l.46-3.85a.45.45,0,0,1,.29-.37l3.71-1.53a.47.47,0,0,1,.64.5l-.56,3.86A.47.47,0,0,1,236,159.06Z"/><path class="cls-43" d="M231.88,153.93l-3.2,1.77a.44.44,0,0,1-.65-.38l0-3.62a.43.43,0,0,1,.22-.38l3.29-1.8a.43.43,0,0,1,.64.4l-.11,3.64A.47.47,0,0,1,231.88,153.93Z"/><path class="cls-44" d="M224.62,162.13l-2.87-3.34a.53.53,0,0,1,.3-.86l4.27-.83a.52.52,0,0,1,.5.17l2.91,3.44a.53.53,0,0,1-.31.86l-4.32.74A.52.52,0,0,1,224.62,162.13Z"/><path class="cls-45" d="M224.9,169.42l-3.19-3c-.29-.28,0-.79.52-.93l5.67-1.54a.62.62,0,0,1,.62.11l3.24,3.11c.29.28,0,.81-.54.94l-5.71,1.44A.66.66,0,0,1,224.9,169.42Z"/><path class="cls-46" d="M226.28,178.26l-3.92-3.91c-.36-.35,0-1,.58-1.15l6.72-1.72a.78.78,0,0,1,.74.15l4,4c.36.37,0,1-.61,1.16L227,178.41A.77.77,0,0,1,226.28,178.26Z"/><path class="cls-47" d="M226.84,152.2l1.53,3a.4.4,0,0,1-.37.58l-3.3-.12a.39.39,0,0,1-.33-.22l-1.56-3a.4.4,0,0,1,.38-.58l3.32.2A.4.4,0,0,1,226.84,152.2Z"/><path class="cls-48" d="M240,165.3l-5,1.19a.6.6,0,0,1-.72-.76l1.39-4.85a.6.6,0,0,1,.45-.43l5.1-1.18a.6.6,0,0,1,.71.77l-1.52,4.86A.59.59,0,0,1,240,165.3Z"/><path class="cls-49" d="M243.7,173.32l-5.52,1.29a.67.67,0,0,1-.81-.83l1.55-5.27a.67.67,0,0,1,.5-.46l5.66-1.28a.66.66,0,0,1,.8.84l-1.69,5.27A.66.66,0,0,1,243.7,173.32Z"/><path class="cls-50" d="M230.74,186.27l-6.45-.75a.83.83,0,0,1-.33-1.39l4.44-3.43a2.93,2.93,0,0,1,1.52-.5l6.47.55a.82.82,0,0,1,.31,1.4l-5.17,3.91A.84.84,0,0,1,230.74,186.27Z"/><path class="cls-51" d="M247.53,181.53l-6.45-.75a.83.83,0,0,1-.33-1.39L245.2,176a2.79,2.79,0,0,1,1.51-.49l6.48.54a.83.83,0,0,1,.31,1.4l-5.18,3.91A.8.8,0,0,1,247.53,181.53Z"/><path class="cls-52" d="M243,197.63c.55-8.67-12.18-36.95-15-43"/><path class="cls-53" d="M49.38,152.58l-4.2,1.76a.55.55,0,0,1-.75-.57L45,149.3a.55.55,0,0,1,.34-.44l4.31-1.77a.54.54,0,0,1,.74.58l-.65,4.49A.52.52,0,0,1,49.38,152.58Z"/><path class="cls-54" d="M44.65,146.62l-3.72,2.07a.51.51,0,0,1-.75-.45l0-4.2a.49.49,0,0,1,.26-.44l3.82-2.1A.51.51,0,0,1,45,142l-.13,4.23A.54.54,0,0,1,44.65,146.62Z"/><path class="cls-55" d="M36.21,156.16l-3.33-3.89a.61.61,0,0,1,.35-1l5-1a.61.61,0,0,1,.58.21l3.39,4a.61.61,0,0,1-.37,1l-5,.86A.6.6,0,0,1,36.21,156.16Z"/><path class="cls-56" d="M36.54,164.63l-3.7-3.51c-.34-.32,0-.92.6-1.09L40,158.25a.78.78,0,0,1,.73.12L44.51,162c.33.33,0,.93-.63,1.09l-6.64,1.67A.78.78,0,0,1,36.54,164.63Z"/><path class="cls-57" d="M38.14,174.9l-4.56-4.54c-.41-.42,0-1.16.68-1.34l7.81-2a.87.87,0,0,1,.86.18l4.63,4.68c.41.42,0,1.17-.71,1.34L39,175.08A.89.89,0,0,1,38.14,174.9Z"/><path class="cls-58" d="M38.79,144.61l1.78,3.44a.46.46,0,0,1-.42.68l-3.84-.14a.46.46,0,0,1-.39-.26l-1.81-3.53a.46.46,0,0,1,.44-.67l3.86.23A.48.48,0,0,1,38.79,144.61Z"/><path class="cls-59" d="M54.07,159.84l-5.77,1.38a.7.7,0,0,1-.84-.88l1.62-5.64a.71.71,0,0,1,.52-.5l5.92-1.37a.71.71,0,0,1,.84.9l-1.78,5.64A.66.66,0,0,1,54.07,159.84Z"/><path class="cls-60" d="M58.39,169.16,52,170.66a.78.78,0,0,1-.93-1l1.8-6.14a.77.77,0,0,1,.57-.53L60,161.54a.78.78,0,0,1,.93,1l-2,6.13A.75.75,0,0,1,58.39,169.16Z"/><path class="cls-61" d="M43.32,184.21l-7.49-.88a1,1,0,0,1-.38-1.61l5.16-4a3.27,3.27,0,0,1,1.76-.58l7.53.63a1,1,0,0,1,.36,1.63l-6,4.54A1,1,0,0,1,43.32,184.21Z"/><path class="cls-62" d="M62.84,178.7l-7.5-.87a1,1,0,0,1-.38-1.62l5.17-4a3.32,3.32,0,0,1,1.75-.58l7.53.63a1,1,0,0,1,.36,1.63l-6,4.55A.93.93,0,0,1,62.84,178.7Z"/><path class="cls-63" d="M57.54,197.41c.64-10.07-14.16-42.93-17.41-50"/></g><g id="Ebene_5" data-name="Ebene 5"><path class="cls-64" d="M135.35,151.16l-15.36.06s2.55-17.45,4.4-28.3c1.55-9.11,7.16-10.63,7.8-10.78a20.52,20.52,0,0,1,3.54.29,21.16,21.16,0,0,1,3.59,2.17c.79.78,2.11,3,2.41,3.19s3.15,1.68,3.15,1.68l-2.46,6.33a7.7,7.7,0,0,1-2.8,6.81C136.4,135.48,134,147.23,135.35,151.16Z"/><path class="cls-65" d="M160.21,113.4a4.61,4.61,0,0,1,1.88,0,4.23,4.23,0,0,0,1.88.07c.21-.07.67-.56,1.09-.39s.27.46.18.55-1.67,1.21-1.67,1.21l-3.36-1.44"/><path class="cls-66" d="M144.73,119.47s-1.53,2.53-1.92,3.43a4,4,0,0,0-.39,1.44l2.2,1.74a23.1,23.1,0,0,0,5.81-.49c1.83-.63,5.57-2.64,7.3-5.59a27.55,27.55,0,0,0,2.18-4.21s2.46.67,3.15.76,2.39.37,2.39.37,2.73-1.71,3.11-1.88.62-.41.37-.53A5.12,5.12,0,0,0,167,115a3.61,3.61,0,0,0-.67.47s.65-.88.83-1,.12-.61-.39-.4a9.52,9.52,0,0,1-1.85.88c-.42,0-4.54-1.64-5.17-1.6s-1,.68-1.21.93S152.17,122.18,144.73,119.47Z"/><path class="cls-67" d="M171.37,130s-.39-1.37-.76-2.45l-.7-2.08a22,22,0,0,1-5.19,2.38,14.9,14.9,0,0,1-3.47.54s-.64-1.82-1.65-1.72a3,3,0,0,0-1.72.88,10.33,10.33,0,0,0-2.56,1.64c-1,1,.41,2.53.41,2.53s1.55-2.49,2.86-1.31,1,1.92,1,1.92l-.87,1.11s2.08.44,2.59-.71.88-2,.88-2Z"/><path class="cls-15" d="M207,139.24l-18.23,5.24a.75.75,0,0,1-.88-.38l-5.49-10.74a.76.76,0,0,1,.47-1.07l21.29-6a.75.75,0,0,1,.94.57l2.43,11.47A.76.76,0,0,1,207,139.24Z"/><path class="cls-68" d="M169.91,125.46a36.11,36.11,0,0,0,1.46,4.53,19.88,19.88,0,0,0,10.46-3.76,14.89,14.89,0,0,0,3.57-4.15L184,113.29a66.13,66.13,0,0,1-5.54,6.12A41.35,41.35,0,0,1,169.91,125.46Z"/><path class="cls-69" d="M188,112.39l-4,.9s-2.29,6.24-.19,11.41,2,26.46,2,26.46h18s-.62-14.33.07-20.82c.7-6.72-1.34-16-3.45-17.12s-9.75-1.27-9.75-1.27Z"/><path class="cls-70" d="M207,139.24l-18.17,5.22A.75.75,0,0,1,188,144l-4.43-11.94a.75.75,0,0,1,.53-1l20.16-4.79a.75.75,0,0,1,.91.58l2.44,11.5A.76.76,0,0,1,207,139.24Z"/><path class="cls-14" d="M207.22,139.22l-18.12,5.21a.75.75,0,0,1-.94-.56l-2.85-12.93a.75.75,0,0,1,.59-.9l19.62-3.73a.75.75,0,0,1,.88.66l1.36,11.44A.74.74,0,0,1,207.22,139.22Z"/><path class="cls-71" d="M202.29,131.84s1,6.25.45,6.88-1.85.7-2.36.7-1.47-.63-2-.7-.45.45-.19.83,2.12,1.27,1.78,1.6a17.83,17.83,0,0,1-3.22,1.1,7,7,0,0,0,4.18,1.64c2.8.25,5.42-4.47,5.74-6s1.21-5.22,1.21-5.22a5.4,5.4,0,0,0-3-1.15A6.15,6.15,0,0,0,202.29,131.84Z"/><path class="cls-72" d="M200.67,113.51s-2.79,2.32-3.41,4.59,1.56,5,2.9,8.54,2,5.29,2,5.29a5.35,5.35,0,0,1,3.06-.32,3.41,3.41,0,0,1,2.62,1.28s.5-9.1-1-11.22S200.67,113.51,200.67,113.51Z"/><path id="hair" class="cls-73" d="M139.49,105.22c7.25-5.94.41-11.37-6.94-8.47-.79.31-3-.93-5,.37-1.3.84-.8,1.5-1.3,2.16s-2.47.62-2.89,2.34c-.26,1,.44,2.08.35,2.84s-.83,1.45-.87,2.46a3.25,3.25,0,0,0,3.13,3.36h0a3.26,3.26,0,0,0,3.14,3.25,5.94,5.94,0,0,0,3.19-.71C135.37,111,134.69,109.16,139.49,105.22Z"/><path id="face" class="cls-74" d="M132,112c0-.92,0-5.42,0-5.5-2.51.37-2.46-4.4.08-3.23.56.36,2.13,0,2-2.94,2.74,2.94,5.92-.49,6.19,2.3.37,3.82,0,7.82-2.37,7.82a4.13,4.13,0,0,1-.78-.08V112a5.08,5.08,0,0,0,1,2.33s.18,2-1.13,2-6.76-2.82-6.76-2.82S132,113,132,112Z"/><path id="shade" class="cls-75" d="M137,110.35a10,10,0,0,1-3.51-1.53,4.62,4.62,0,0,0,3.51,2.55Z"/><path class="cls-76" d="M130.46,121a15,15,0,0,0,5.17,6.26"/><path id="Combined_Shape-4" data-name="Combined Shape-4" class="cls-77" d="M186.56,112.77c-.64,2.72,3.6,2.64,4.75,2.35a8.65,8.65,0,0,0,4.84-2.84c-1.52-.47-.81-.67-.83-1.59v-1c0-1.17,0-2.71,0-4.28,1.44-1.88.91-4.07.46-4s-5.36-4.49-6.28-4.73a3.43,3.43,0,0,0-3.66,2.62c-.41,2.11-.58,7.4.95,9.52a2,2,0,0,0,2.06.71c0,.44,0,.68,0,1.18C188.86,111.61,188.09,112.3,186.56,112.77Z"/><g class="cls-78"><g id="Path_48-2" data-name="Path 48-2"><path id="Path_48-3" data-name="Path 48-3" class="cls-79" d="M188.88,109.46a8.77,8.77,0,0,0,3.62-1.2,7.39,7.39,0,0,1-3.62,2.41Z"/></g></g><path id="Path_22" data-name="Path 22" class="cls-80" d="M196.08,105.39c.69-1.67,3.47-5.07,1.07-7.18-.8-3.93-5.25-3.5-8.22-2.59-2,.61-3.51,1.81-3.83.91-2,1.68-1,3.32.32,3.79a14.53,14.53,0,0,0,6.71.45c.62-.07.49,1.83.82,2,.5.31.88-1.62,2.24-1s.55,3.27-.91,3.27c-.5,0-.75,1.38.61,2C195.87,107.55,195.62,106.47,196.08,105.39Z"/><path class="cls-81" d="M141.23,122.18s-3.24,2.95-4.19,4.15a7.89,7.89,0,0,0-1,1.44s5.61,4.47,10.66,4.79a25,25,0,0,0,8.2-.76,4.55,4.55,0,0,1,1,.15,7.9,7.9,0,0,0,2.45.76c1.08.07,2.84.25,2.84.25s1.53-1.71,1.07-2.26a16.57,16.57,0,0,0-4.35-3.16,17,17,0,0,0-1.58.73,12.57,12.57,0,0,0-1.76,1.17C147.4,129.58,144,125.68,141.23,122.18Z"/><path class="cls-82" d="M155.69,131.75a27.56,27.56,0,0,0,2.63,2c.27,0,1.31-1,1.31-1a2.6,2.6,0,0,0,0-1.52,4.14,4.14,0,0,0-1-1.14,11.16,11.16,0,0,0-2.41-.2l-.61,1.85"/></g><g id="menschen"><circle class="cls-15" cx="242.25" cy="91.61" r="10.52" transform="translate(107.02 312.49) rotate(-79.24)"/><path class="cls-83" d="M245.86,79.77a12.3,12.3,0,1,0,9.79,14.38A12.31,12.31,0,0,0,245.86,79.77Zm-5.57,22.17a10.52,10.52,0,1,1,12.3-8.37A10.51,10.51,0,0,1,240.29,101.94Z"/><path class="cls-84" d="M246.28,92.77a11,11,0,0,0-1.5-.94c-.56-.29-1.11-.57-1.67-.83s-1.07-.53-1.53-.81a2.93,2.93,0,0,1-1.05-1,1.8,1.8,0,0,1-.22-1.37,1.73,1.73,0,0,1,1-1.24,2.81,2.81,0,0,1,1.91-.24,5.16,5.16,0,0,1,1.67.57,2.71,2.71,0,0,1,.92.84,2.33,2.33,0,0,1,.46,1.57l0,.24a.19.19,0,0,0,.18.26l1.16.23a.21.21,0,0,0,.26-.18l.63-3.34a.2.2,0,0,0-.18-.26l-1-.2a.21.21,0,0,0-.28.18l-.1.72a3.59,3.59,0,0,0-2.17-1.72l.28-1.46c0-.15,0-.23-.18-.26l-1-.19a.2.2,0,0,0-.26.18l-.24,1.27a4.68,4.68,0,0,0-3.21.51,3.29,3.29,0,0,0-1.58,2.28,3.06,3.06,0,0,0,.14,1.74,3,3,0,0,0,1,1.3,10,10,0,0,0,1.46,1c.55.29,1.1.57,1.66.82a14.86,14.86,0,0,1,1.5.77,3.18,3.18,0,0,1,1,.94,1.57,1.57,0,0,1,.24,1.19,2,2,0,0,1-1.12,1.49,3.31,3.31,0,0,1-2.12.2,4.86,4.86,0,0,1-2-.76,3.53,3.53,0,0,1-1.07-1.13,3.58,3.58,0,0,1-.58-1.67l0-.11a.2.2,0,0,0-.18-.27l-1.16-.22a.21.21,0,0,0-.28.18l-.66,3.46a.21.21,0,0,0,.2.27l1,.19q.24,0,.27-.18l.19-1.24h0a4.32,4.32,0,0,0,1,1.49A4.4,4.4,0,0,0,241,98.16l-.26,1.38a.2.2,0,0,0,.18.27l1,.19c.15,0,.24,0,.26-.18l.24-1.26a4.86,4.86,0,0,0,3.46-.48,3.51,3.51,0,0,0,1.57-2.39,2.67,2.67,0,0,0-.16-1.67A3,3,0,0,0,246.28,92.77Z"/><circle class="cls-15" cx="217.22" cy="70.55" r="10.52" transform="translate(107.34 270.77) rotate(-79.24)"/><path class="cls-85" d="M220.83,58.72a12.3,12.3,0,1,0,9.78,14.38A12.29,12.29,0,0,0,220.83,58.72Zm-5.58,22.17a10.52,10.52,0,1,1,12.31-8.37A10.52,10.52,0,0,1,215.25,80.89Z"/><path class="cls-86" d="M221.24,71.71a10.68,10.68,0,0,0-1.5-.93c-.55-.29-1.11-.57-1.67-.83s-1.07-.54-1.53-.81a3.21,3.21,0,0,1-1-1,1.87,1.87,0,0,1-.21-1.38,1.75,1.75,0,0,1,1-1.24,2.88,2.88,0,0,1,1.91-.23,5,5,0,0,1,1.67.57,2.69,2.69,0,0,1,.92.83,2.37,2.37,0,0,1,.47,1.58l-.05.24a.19.19,0,0,0,.18.26l1.16.22a.19.19,0,0,0,.26-.18l.64-3.33c0-.15,0-.23-.18-.26l-1-.2c-.16,0-.26,0-.28.18l-.1.72a3.66,3.66,0,0,0-2.17-1.73l.27-1.45c0-.15,0-.23-.18-.26l-1-.19a.19.19,0,0,0-.26.18l-.25,1.27a4.64,4.64,0,0,0-3.2.5,3.28,3.28,0,0,0-1.58,2.29,3,3,0,0,0,.14,1.74,3.06,3.06,0,0,0,1,1.3,10.37,10.37,0,0,0,1.47,1c.55.29,1.1.57,1.65.82a16.25,16.25,0,0,1,1.51.77,3.14,3.14,0,0,1,1,.94,1.56,1.56,0,0,1,.24,1.19,1.94,1.94,0,0,1-1.11,1.49,3.35,3.35,0,0,1-2.13.2,5,5,0,0,1-2-.76,3.41,3.41,0,0,1-1.07-1.13,3.49,3.49,0,0,1-.58-1.67l0-.12a.2.2,0,0,0-.18-.26l-1.16-.22A.21.21,0,0,0,212,72l-.66,3.46c0,.15,0,.23.2.26l1,.2c.16,0,.25,0,.26-.18l.2-1.24h0a4.38,4.38,0,0,0,1,1.49A4.5,4.5,0,0,0,216,77.11l-.26,1.38a.2.2,0,0,0,.18.27l1,.18a.2.2,0,0,0,.26-.17l.24-1.26a4.87,4.87,0,0,0,3.46-.48,3.54,3.54,0,0,0,1.57-2.4,2.83,2.83,0,0,0-.16-1.67A3.22,3.22,0,0,0,221.24,71.71Z"/><circle class="cls-15" cx="245.37" cy="57.94" r="14.93" transform="translate(142.62 288.17) rotate(-79.24)"/><path class="cls-87" d="M250.49,41.15a17.45,17.45,0,1,0,13.88,20.41A17.46,17.46,0,0,0,250.49,41.15Zm-7.91,31.46A14.93,14.93,0,1,1,260,60.73,14.93,14.93,0,0,1,242.58,72.61Z"/><path class="cls-88" d="M251.08,59.59A15.48,15.48,0,0,0,249,58.27c-.79-.42-1.58-.81-2.38-1.19a23.93,23.93,0,0,1-2.16-1.14,4.27,4.27,0,0,1-1.49-1.39,2.63,2.63,0,0,1-.31-2A2.45,2.45,0,0,1,244,50.84a4,4,0,0,1,2.7-.34,7.17,7.17,0,0,1,2.38.81,3.93,3.93,0,0,1,1.31,1.19,3.38,3.38,0,0,1,.65,2.23l-.06.34a.27.27,0,0,0,.25.37l1.65.32a.28.28,0,0,0,.37-.26l.9-4.73a.28.28,0,0,0-.25-.37l-1.47-.28c-.22,0-.36,0-.4.25l-.14,1A5.1,5.1,0,0,0,248.85,49l.4-2.07a.29.29,0,0,0-.26-.37l-1.41-.27a.28.28,0,0,0-.37.26l-.35,1.8a6.59,6.59,0,0,0-4.54.72,4.67,4.67,0,0,0-2.25,3.24,4.35,4.35,0,0,0,1.57,4.32,13.56,13.56,0,0,0,2.08,1.35c.78.42,1.56.81,2.35,1.17a23.3,23.3,0,0,1,2.13,1.09,4.36,4.36,0,0,1,1.47,1.34,2.2,2.2,0,0,1,.34,1.69,2.78,2.78,0,0,1-1.58,2.11,4.79,4.79,0,0,1-3,.29,6.88,6.88,0,0,1-2.78-1.09,4.88,4.88,0,0,1-1.53-1.6,5.14,5.14,0,0,1-.82-2.37l0-.16a.28.28,0,0,0-.25-.37l-1.65-.32c-.22,0-.36,0-.4.25l-.93,4.91c0,.21,0,.34.28.38l1.46.28c.23,0,.35,0,.38-.25l.28-1.76h.05a6.28,6.28,0,0,0,1.37,2.11,6.4,6.4,0,0,0,2.69,1.61l-.38,2a.28.28,0,0,0,.26.37l1.41.27a.28.28,0,0,0,.37-.26l.34-1.77a6.93,6.93,0,0,0,4.91-.69,5,5,0,0,0,2.23-3.4,3.92,3.92,0,0,0-.23-2.37A4.37,4.37,0,0,0,251.08,59.59Z"/></g></g></svg>