<svg xmlns="http://www.w3.org/2000/svg" xmlns:xlink="http://www.w3.org/1999/xlink" viewBox="0 0 270.65 270.65"><defs><style>.cls-1,.cls-2,.cls-3,.cls-4{opacity:0.38;}.cls-1{fill:url(#Unbenannter_Verlauf_2);}.cls-2{fill:url(#Unbenannter_Verlauf_2-2);}.cls-3{fill:url(#Unbenannter_Verlauf_2-3);}.cls-4{fill:url(#Unbenannter_Verlauf_2-4);}.cls-5{fill:none;stroke:#f6f6f6;stroke-miterlimit:10;stroke-width:3px;}.cls-6{fill:#f2f2f2;}</style><linearGradient id="Unbenannter_Verlauf_2" y1="135.33" x2="270.65" y2="135.33" gradientUnits="userSpaceOnUse"><stop offset="0" stop-color="#adc90e"/><stop offset="1" stop-color="#004426"/></linearGradient><linearGradient id="Unbenannter_Verlauf_2-2" x1="22.76" y1="135.33" x2="247.89" y2="135.33" xlink:href="#Unbenannter_Verlauf_2"/><linearGradient id="Unbenannter_Verlauf_2-3" x1="46" y1="135.33" x2="224.66" y2="135.33" xlink:href="#Unbenannter_Verlauf_2"/><linearGradient id="Unbenannter_Verlauf_2-4" x1="71.34" y1="135.33" x2="199.31" y2="135.33" xlink:href="#Unbenannter_Verlauf_2"/></defs><g id="Layer_2" data-name="Layer 2"><g id="Ebene_8" data-name="Ebene 8"><circle class="cls-1" cx="135.33" cy="135.33" r="135.33"/><circle class="cls-2" cx="135.33" cy="135.33" r="112.56"/><circle class="cls-3" cx="135.33" cy="135.33" r="89.33"/><circle class="cls-4" cx="135.33" cy="135.33" r="63.98"/></g><g id="Ebene_3" data-name="Ebene 3"><line class="cls-5" x1="126.12" y1="55.33" x2="102.45" y2="78.09"/><line class="cls-5" x1="146.29" y1="55.77" x2="169.43" y2="78.09"/><line class="cls-5" x1="82.92" y1="102.12" x2="76.44" y2="120.99"/><line class="cls-5" x1="97.23" y1="103.66" x2="103.22" y2="122.32"/><line class="cls-5" x1="172.73" y1="104.13" x2="166.94" y2="120.99"/><line class="cls-5" x1="187.73" y1="103.66" x2="193.72" y2="122.32"/><line class="cls-5" x1="159.18" y1="152.45" x2="155.74" y2="174.4"/><line class="cls-5" x1="151.56" y1="149.56" x2="124.92" y2="177.53"/><line class="cls-5" x1="198.8" y1="152.45" x2="196.62" y2="174.4"/><line class="cls-5" x1="209.64" y1="147.28" x2="226.74" y2="176.11"/><line class="cls-5" x1="101.49" y1="150.2" x2="83.03" y2="177.53"/><line class="cls-5" x1="60.89" y1="148.82" x2="42.43" y2="176.15"/></g><g id="Ebene_2" data-name="Ebene 2"><path class="cls-6" d="M91.05,73.43a16.29,16.29,0,1,0,16.29,16.29A16.29,16.29,0,0,0,91.05,73.43Zm-1.77,30.23a13.94,13.94,0,1,1,13.94-13.94A13.94,13.94,0,0,1,89.28,103.66Z"/><circle class="cls-6" cx="90.13" cy="83.84" r="3.07"/><path class="cls-6" d="M96.07,89.46c-.81-.91-3.86-1.87-3.86-1.87l-1.94,2-2.16-2s-3.11,1-3.88,1.9h0c-2.12,1.47-.79,8.22-.79,8.22l2.07-.09L85.79,95c.63,1.46,1.2,2.63,1.2,2.63h6.35s.46-1,1-2.2l.55,2.2H97S98,91.16,96.07,89.46Z"/><path class="cls-6" d="M109.51,120a16.29,16.29,0,1,0,16.29,16.29A16.29,16.29,0,0,0,109.51,120Zm-1.77,30.23a13.94,13.94,0,1,1,13.94-13.94A13.94,13.94,0,0,1,107.74,150.2Z"/><circle class="cls-6" cx="108.59" cy="130.37" r="3.07"/><path class="cls-6" d="M114.53,136c-.81-.91-3.85-1.87-3.85-1.87l-2,2-2.15-2s-3.12,1-3.88,1.9h0c-2.12,1.47-.8,8.22-.8,8.22l2.08-.09.28-2.63c.63,1.45,1.2,2.63,1.2,2.63h6.34s.46-.95,1-2.21l.55,2.21h2.08S116.41,137.7,114.53,136Z"/><path class="cls-6" d="M70.75,120A16.29,16.29,0,1,0,87,136.26,16.29,16.29,0,0,0,70.75,120ZM69,150.2a13.94,13.94,0,1,1,13.94-13.94A13.94,13.94,0,0,1,69,150.2Z"/><circle class="cls-6" cx="69.83" cy="130.37" r="3.07"/><path class="cls-6" d="M75.77,136c-.81-.91-3.86-1.87-3.86-1.87l-1.94,2-2.16-2s-3.11,1-3.88,1.9h0c-2.12,1.47-.79,8.22-.79,8.22l2.07-.09.28-2.63c.63,1.45,1.2,2.63,1.2,2.63H73s.45-.95,1-2.21l.55,2.21h2.08S77.65,137.7,75.77,136Z"/><path class="cls-6" d="M199.71,120A16.29,16.29,0,1,0,216,136.26,16.29,16.29,0,0,0,199.71,120ZM198,150.2a13.94,13.94,0,1,1,13.93-13.94A13.94,13.94,0,0,1,198,150.2Z"/><circle class="cls-6" cx="198.8" cy="130.37" r="3.07"/><path class="cls-6" d="M204.73,136c-.81-.91-3.85-1.87-3.85-1.87l-1.94,2-2.16-2s-3.11,1-3.88,1.9h0c-2.12,1.47-.8,8.22-.8,8.22l2.08-.09.28-2.63c.63,1.45,1.2,2.63,1.2,2.63H202s.46-.95,1-2.21l.55,2.21h2.08S206.62,137.7,204.73,136Z"/><path class="cls-6" d="M161,120a16.29,16.29,0,1,0,16.29,16.29A16.29,16.29,0,0,0,161,120Zm-1.77,30.23a13.94,13.94,0,1,1,13.94-13.94A13.94,13.94,0,0,1,159.18,150.2Z"/><circle class="cls-6" cx="160.03" cy="130.37" r="3.07"/><path class="cls-6" d="M166,136c-.81-.91-3.85-1.87-3.85-1.87l-2,2-2.16-2s-3.11,1-3.87,1.9h0c-2.12,1.47-.8,8.22-.8,8.22l2.07-.09.28-2.63c.64,1.45,1.2,2.63,1.2,2.63h6.35s.46-.95,1-2.21l.55,2.21h2.08S167.85,137.7,166,136Z"/><path class="cls-6" d="M114.5,173.76a16.29,16.29,0,1,0,16.29,16.29A16.29,16.29,0,0,0,114.5,173.76ZM112.74,204a13.94,13.94,0,1,1,13.93-13.94A13.94,13.94,0,0,1,112.74,204Z"/><circle class="cls-6" cx="113.59" cy="184.16" r="3.07"/><path class="cls-6" d="M119.52,189.79c-.81-.92-3.85-1.87-3.85-1.87l-2,2-2.15-2s-3.12,1-3.88,1.9h0c-2.12,1.47-.8,8.22-.8,8.22L109,198l.28-2.63c.63,1.45,1.2,2.63,1.2,2.63h6.34s.46-.95,1-2.21l.55,2.21h2.08S121.41,191.49,119.52,189.79Z"/><path class="cls-6" d="M74.28,173.76a16.29,16.29,0,1,0,16.29,16.29A16.29,16.29,0,0,0,74.28,173.76ZM72.51,204a13.94,13.94,0,1,1,13.94-13.94A13.94,13.94,0,0,1,72.51,204Z"/><circle class="cls-6" cx="73.36" cy="184.16" r="3.07"/><path class="cls-6" d="M79.3,189.79c-.81-.92-3.85-1.87-3.85-1.87l-2,2-2.15-2s-3.12,1-3.88,1.9h0c-2.12,1.47-.8,8.22-.8,8.22l2.08-.09.27-2.63c.64,1.45,1.2,2.63,1.2,2.63h6.35s.46-.95,1-2.21l.55,2.21h2.08S81.18,191.49,79.3,189.79Z"/><path class="cls-6" d="M34.06,173.76a16.29,16.29,0,1,0,16.29,16.29A16.29,16.29,0,0,0,34.06,173.76ZM32.29,204a13.94,13.94,0,1,1,13.94-13.94A13.94,13.94,0,0,1,32.29,204Z"/><circle class="cls-6" cx="33.14" cy="184.16" r="3.07"/><path class="cls-6" d="M39.08,189.79c-.81-.92-3.86-1.87-3.86-1.87l-1.94,2-2.16-2s-3.11,1-3.88,1.9h0c-2.12,1.47-.79,8.22-.79,8.22l2.07-.09.28-2.63C29.43,196.77,30,198,30,198h6.35s.45-.95,1-2.21l.55,2.21H40S41,191.49,39.08,189.79Z"/><path class="cls-6" d="M235.17,173.76a16.29,16.29,0,1,0,16.29,16.29A16.29,16.29,0,0,0,235.17,173.76ZM233.41,204a13.94,13.94,0,1,1,13.93-13.94A13.94,13.94,0,0,1,233.41,204Z"/><circle class="cls-6" cx="234.26" cy="184.16" r="3.07"/><path class="cls-6" d="M240.19,189.79c-.81-.92-3.85-1.87-3.85-1.87l-2,2-2.15-2s-3.12,1-3.88,1.9h0c-2.12,1.47-.8,8.22-.8,8.22l2.08-.09.28-2.63c.63,1.45,1.2,2.63,1.2,2.63h6.34s.46-.95,1-2.21L239,198h2.08S242.08,191.49,240.19,189.79Z"/><path class="cls-6" d="M195,173.76a16.29,16.29,0,1,0,16.29,16.29A16.29,16.29,0,0,0,195,173.76ZM193.18,204a13.94,13.94,0,1,1,13.94-13.94A13.94,13.94,0,0,1,193.18,204Z"/><circle class="cls-6" cx="194.03" cy="184.16" r="3.07"/><path class="cls-6" d="M200,189.79c-.81-.92-3.85-1.87-3.85-1.87l-2,2-2.15-2s-3.12,1-3.88,1.9h0c-2.12,1.47-.8,8.22-.8,8.22l2.08-.09.27-2.63c.64,1.45,1.21,2.63,1.21,2.63h6.34s.46-.95,1-2.21l.55,2.21h2.08S201.85,191.49,200,189.79Z"/><path class="cls-6" d="M154.73,173.76A16.29,16.29,0,1,0,171,190.05,16.29,16.29,0,0,0,154.73,173.76ZM153,204a13.94,13.94,0,1,1,13.94-13.94A13.94,13.94,0,0,1,153,204Z"/><circle class="cls-6" cx="153.81" cy="184.16" r="3.07"/><path class="cls-6" d="M159.75,189.79c-.81-.92-3.85-1.87-3.85-1.87l-2,2-2.16-2s-3.11,1-3.88,1.9h0c-2.12,1.47-.79,8.22-.79,8.22l2.07-.09.28-2.63c.63,1.45,1.2,2.63,1.2,2.63H157s.46-.95,1-2.21l.55,2.21h2.08S161.63,191.49,159.75,189.79Z"/><path class="cls-6" d="M180.33,73.43a16.29,16.29,0,1,0,16.29,16.29A16.29,16.29,0,0,0,180.33,73.43Zm-1.77,30.23A13.94,13.94,0,1,1,192.5,89.72,13.94,13.94,0,0,1,178.56,103.66Z"/><circle class="cls-6" cx="179.41" cy="83.84" r="3.07"/><path class="cls-6" d="M185.35,89.46c-.81-.91-3.85-1.87-3.85-1.87l-1.95,2-2.15-2s-3.12,1-3.88,1.9h0c-2.12,1.47-.8,8.22-.8,8.22l2.08-.09.28-2.63c.63,1.46,1.2,2.63,1.2,2.63h6.34s.46-1,1-2.2l.56,2.2h2.07S187.23,91.16,185.35,89.46Z"/><path class="cls-6" d="M137,28.08A16.29,16.29,0,1,0,153.3,44.37,16.29,16.29,0,0,0,137,28.08Zm-1.77,30.23a13.94,13.94,0,1,1,13.94-13.94A13.94,13.94,0,0,1,135.24,58.31Z"/><circle class="cls-6" cx="136.09" cy="38.48" r="3.07"/><path class="cls-6" d="M142,44.11c-.81-.91-3.85-1.87-3.85-1.87l-2,2-2.16-2s-3.11,1-3.87,1.9h0c-2.12,1.47-.8,8.22-.8,8.22l2.07-.09.28-2.63c.64,1.45,1.2,2.63,1.2,2.63h6.35s.46-1,1-2.21l.55,2.21h2.08S143.91,45.81,142,44.11Z"/></g></g></svg>