<svg xmlns="http://www.w3.org/2000/svg" xmlns:xlink="http://www.w3.org/1999/xlink" viewBox="0 0 332.25 225.31"><defs><style>.cls-1,.cls-2,.cls-3,.cls-4,.cls-5,.cls-6,.cls-7,.cls-8{opacity:0.18;}.cls-1{fill:url(#Unbenannter_Verlauf_280);}.cls-2{fill:url(#Unbenannter_Verlauf_280-2);}.cls-3{fill:url(#Unbenannter_Verlauf_280-3);}.cls-4{fill:url(#Unbenannter_Verlauf_280-4);}.cls-5{fill:url(#Unbenannter_Verlauf_280-5);}.cls-6{fill:url(#Unbenannter_Verlauf_280-6);}.cls-7{fill:url(#Unbenannter_Verlauf_280-7);}.cls-8{fill:url(#Unbenannter_Verlauf_280-8);}.cls-9{fill:#004426;}.cls-10,.cls-13{fill:#f0f0f0;}.cls-11{fill:url(#Unbenannter_Verlauf_277);}.cls-12{fill:#fff;}.cls-13{opacity:0.71;}.cls-14,.cls-15,.cls-16,.cls-18,.cls-33{fill:none;stroke-miterlimit:10;}.cls-14{stroke:url(#Unbenannter_Verlauf_50);}.cls-15{stroke:url(#Unbenannter_Verlauf_50-2);}.cls-16{stroke:url(#Unbenannter_Verlauf_50-3);}.cls-17{fill:url(#Unbenannter_Verlauf_38);}.cls-18{stroke:#fff;stroke-width:0.5px;}.cls-19{fill:url(#Unbenannter_Verlauf_50-4);}.cls-20{fill:url(#Unbenannter_Verlauf_38-2);}.cls-21{fill:url(#Unbenannter_Verlauf_38-3);}.cls-22{fill:url(#Unbenannter_Verlauf_38-4);}.cls-23{fill:url(#Unbenannter_Verlauf_38-5);}.cls-24{fill:url(#Unbenannter_Verlauf_38-6);}.cls-25{fill:url(#Unbenannter_Verlauf_38-7);}.cls-26{fill:url(#Unbenannter_Verlauf_38-8);}.cls-27{fill:url(#Unbenannter_Verlauf_38-9);}.cls-28{fill:url(#Unbenannter_Verlauf_38-10);}.cls-29{fill:url(#Unbenannter_Verlauf_38-11);}.cls-30{fill:url(#Unbenannter_Verlauf_38-12);}.cls-31{fill:url(#Unbenannter_Verlauf_38-13);}.cls-32{fill:url(#Unbenannter_Verlauf_38-14);}.cls-33{stroke:url(#Unbenannter_Verlauf_38-15);}.cls-34{fill:url(#Unbenannter_Verlauf_50-5);}.cls-35{fill:url(#Unbenannter_Verlauf_50-6);}.cls-36{fill:url(#Unbenannter_Verlauf_50-7);}.cls-37{fill:url(#Unbenannter_Verlauf_50-8);}.cls-38{fill:url(#Unbenannter_Verlauf_50-9);}.cls-39{fill:url(#Unbenannter_Verlauf_50-10);}.cls-40{fill:url(#Unbenannter_Verlauf_50-11);}.cls-41{fill:url(#Unbenannter_Verlauf_50-12);}.cls-42{fill:url(#Unbenannter_Verlauf_50-13);}.cls-43{fill:url(#Unbenannter_Verlauf_50-14);}.cls-44{fill:url(#Unbenannter_Verlauf_50-15);}.cls-45{fill:url(#Unbenannter_Verlauf_50-16);}.cls-46{fill:url(#Unbenannter_Verlauf_45);}.cls-47{fill:url(#CG-verlauf);}.cls-48{fill:url(#Unbenannter_Verlauf_45-2);}.cls-49{fill:url(#CG-verlauf-2);}.cls-50{fill:url(#Unbenannter_Verlauf_45-3);}.cls-51{fill:url(#CG-verlauf-3);}</style><linearGradient id="Unbenannter_Verlauf_280" y1="112.65" x2="225.31" y2="112.65" gradientUnits="userSpaceOnUse"><stop offset="0" stop-color="#c4d65a"/><stop offset="0.52" stop-color="#d1de87"/><stop offset="1" stop-color="#f0f0f0"/></linearGradient><linearGradient id="Unbenannter_Verlauf_280-2" x1="6.81" y1="123.38" x2="186.6" y2="123.38" xlink:href="#Unbenannter_Verlauf_280"/><linearGradient id="Unbenannter_Verlauf_280-3" x1="184.95" y1="146.97" x2="332.25" y2="146.97" xlink:href="#Unbenannter_Verlauf_280"/><linearGradient id="Unbenannter_Verlauf_280-4" x1="193.31" y1="153.4" x2="312.4" y2="153.4" xlink:href="#Unbenannter_Verlauf_280"/><linearGradient id="Unbenannter_Verlauf_280-5" x1="55.73" y1="55.82" x2="88.36" y2="55.82" xlink:href="#Unbenannter_Verlauf_280"/><linearGradient id="Unbenannter_Verlauf_280-6" x1="57.58" y1="57.24" x2="83.96" y2="57.24" xlink:href="#Unbenannter_Verlauf_280"/><linearGradient id="Unbenannter_Verlauf_280-7" x1="249.78" y1="52.81" x2="282.41" y2="52.81" xlink:href="#Unbenannter_Verlauf_280"/><linearGradient id="Unbenannter_Verlauf_280-8" x1="251.63" y1="54.23" x2="278.01" y2="54.23" xlink:href="#Unbenannter_Verlauf_280"/><linearGradient id="Unbenannter_Verlauf_277" x1="250.74" y1="70.46" x2="90.56" y2="132.92" gradientUnits="userSpaceOnUse"><stop offset="0" stop-color="#1d8483"/><stop offset="1" stop-color="#00425f"/></linearGradient><linearGradient id="Unbenannter_Verlauf_50" x1="189.69" y1="72.6" x2="199.28" y2="72.6" gradientUnits="userSpaceOnUse"><stop offset="0" stop-color="#3f932c"/><stop offset="1" stop-color="#d1de87"/></linearGradient><linearGradient id="Unbenannter_Verlauf_50-2" x1="203.99" y1="72.6" x2="211.4" y2="72.6" xlink:href="#Unbenannter_Verlauf_50"/><linearGradient id="Unbenannter_Verlauf_50-3" x1="218.29" y1="72.6" x2="227.07" y2="72.6" xlink:href="#Unbenannter_Verlauf_50"/><linearGradient id="Unbenannter_Verlauf_38" x1="390.65" y1="128.69" x2="428.57" y2="128.69" gradientTransform="translate(-93.23 -75.98) rotate(14.38)" gradientUnits="userSpaceOnUse"><stop offset="0" stop-color="#adc90e"/><stop offset="0.52" stop-color="#d1de87"/><stop offset="1" stop-color="#f0f0f0"/></linearGradient><linearGradient id="Unbenannter_Verlauf_50-4" x1="428.91" y1="-86.59" x2="450" y2="-86.59" gradientTransform="translate(-122.2 -33.87) rotate(38.31)" xlink:href="#Unbenannter_Verlauf_50"/><linearGradient id="Unbenannter_Verlauf_38-2" x1="36.98" y1="307.44" x2="57.59" y2="298.69" gradientTransform="translate(-120.53 -58.96) rotate(-33.63)" xlink:href="#Unbenannter_Verlauf_38"/><linearGradient id="Unbenannter_Verlauf_38-3" x1="-157.16" y1="410.06" x2="-129.27" y2="398.21" gradientTransform="translate(-315.13 -16.34) rotate(-85.33)" xlink:href="#Unbenannter_Verlauf_38"/><linearGradient id="Unbenannter_Verlauf_38-4" x1="-78.68" y1="173.33" x2="-72.05" y2="173.33" gradientTransform="matrix(0.96, -0.27, 0.27, 0.96, 83.14, -73.18)" xlink:href="#Unbenannter_Verlauf_38"/><linearGradient id="Unbenannter_Verlauf_38-5" x1="-1.07" y1="158.89" x2="6.56" y2="158.89" gradientTransform="translate(44.15 -32.83) rotate(-7.21)" xlink:href="#Unbenannter_Verlauf_38"/><linearGradient id="Unbenannter_Verlauf_38-6" x1="-67.67" y1="175.43" x2="-60.55" y2="175.43" gradientTransform="translate(82.31 -67.56) rotate(-13.63)" xlink:href="#Unbenannter_Verlauf_38"/><linearGradient id="Unbenannter_Verlauf_38-7" x1="61.27" y1="129.99" x2="48.8" y2="124.48" gradientTransform="matrix(1, 0, 0, 1, 0, 0)" xlink:href="#Unbenannter_Verlauf_38"/><linearGradient id="Unbenannter_Verlauf_38-8" x1="132.46" y1="298.5" x2="116.86" y2="291.59" gradientTransform="matrix(1.04, -0.12, -0.12, 0.83, -36.09, -92.27)" xlink:href="#Unbenannter_Verlauf_38"/><linearGradient id="Unbenannter_Verlauf_38-9" x1="58.61" y1="167.43" x2="43" y2="160.52" gradientTransform="matrix(1.23, -0.12, -0.12, 1.04, 15.11, -16.25)" xlink:href="#Unbenannter_Verlauf_38"/><linearGradient id="Unbenannter_Verlauf_38-10" x1="-804.12" y1="-181.62" x2="-797.62" y2="-181.62" gradientTransform="translate(67.24 -701.56) rotate(-101.95)" xlink:href="#Unbenannter_Verlauf_38"/><linearGradient id="Unbenannter_Verlauf_38-11" x1="-210.27" y1="218.01" x2="-197.23" y2="218.01" gradientTransform="matrix(0.87, -0.49, 0.49, 0.87, 144.26, -157.87)" xlink:href="#Unbenannter_Verlauf_38"/><linearGradient id="Unbenannter_Verlauf_38-12" x1="-218.71" y1="180.84" x2="-205.67" y2="180.84" gradientTransform="matrix(0.97, -0.53, 0.54, 0.95, 184.96, -141.73)" xlink:href="#Unbenannter_Verlauf_38"/><linearGradient id="Unbenannter_Verlauf_38-13" x1="68.4" y1="156.75" x2="52.73" y2="161.27" gradientTransform="matrix(1, 0, 0, 1, 0, 0)" xlink:href="#Unbenannter_Verlauf_38"/><linearGradient id="Unbenannter_Verlauf_38-14" x1="77.12" y1="155.26" x2="89.59" y2="149.97" gradientTransform="matrix(1, 0, 0, 1, 0, 0)" xlink:href="#Unbenannter_Verlauf_38"/><linearGradient id="Unbenannter_Verlauf_38-15" x1="58.08" y1="149.17" x2="78.93" y2="149.17" gradientTransform="matrix(1, 0, 0, 1, 0, 0)" xlink:href="#Unbenannter_Verlauf_38"/><linearGradient id="Unbenannter_Verlauf_50-5" x1="93.15" y1="253.88" x2="97.27" y2="253.88" gradientTransform="matrix(0.96, -0.27, 0.27, 0.96, 83.14, -73.18)" xlink:href="#Unbenannter_Verlauf_50"/><linearGradient id="Unbenannter_Verlauf_50-6" x1="177.78" y1="209.28" x2="182.53" y2="209.28" gradientTransform="translate(44.15 -32.83) rotate(-7.21)" xlink:href="#Unbenannter_Verlauf_50"/><linearGradient id="Unbenannter_Verlauf_50-7" x1="105.77" y1="248.19" x2="110.2" y2="248.19" gradientTransform="translate(82.31 -67.56) rotate(-13.63)" xlink:href="#Unbenannter_Verlauf_50"/><linearGradient id="Unbenannter_Verlauf_50-8" x1="245.7" y1="155.61" x2="237.95" y2="152.19" xlink:href="#Unbenannter_Verlauf_50"/><linearGradient id="Unbenannter_Verlauf_50-9" x1="316.23" y1="353.14" x2="306.53" y2="348.85" gradientTransform="matrix(1.04, -0.12, -0.12, 0.83, -36.09, -92.27)" xlink:href="#Unbenannter_Verlauf_50"/><linearGradient id="Unbenannter_Verlauf_50-10" x1="209.74" y1="202.11" x2="200.04" y2="197.81" gradientTransform="matrix(1.23, -0.12, -0.12, 1.04, 15.11, -16.25)" xlink:href="#Unbenannter_Verlauf_50"/><linearGradient id="Unbenannter_Verlauf_50-11" x1="-870.46" y1="-5.11" x2="-866.42" y2="-5.11" gradientTransform="translate(67.24 -701.56) rotate(-101.95)" xlink:href="#Unbenannter_Verlauf_50"/><linearGradient id="Unbenannter_Verlauf_50-12" x1="-62.23" y1="327.43" x2="-54.12" y2="327.43" gradientTransform="matrix(0.87, -0.49, 0.49, 0.87, 144.26, -157.87)" xlink:href="#Unbenannter_Verlauf_50"/><linearGradient id="Unbenannter_Verlauf_50-13" x1="-85.05" y1="275.73" x2="-76.94" y2="275.73" gradientTransform="matrix(0.97, -0.53, 0.54, 0.95, 184.96, -141.73)" xlink:href="#Unbenannter_Verlauf_50"/><linearGradient id="Unbenannter_Verlauf_50-14" x1="250.13" y1="172.25" x2="240.39" y2="175.06" xlink:href="#Unbenannter_Verlauf_50"/><linearGradient id="Unbenannter_Verlauf_50-15" x1="255.56" y1="171.33" x2="263.31" y2="168.03" xlink:href="#Unbenannter_Verlauf_50"/><linearGradient id="Unbenannter_Verlauf_50-16" x1="244" y1="167.59" x2="256.37" y2="167.59" xlink:href="#Unbenannter_Verlauf_50"/><linearGradient id="Unbenannter_Verlauf_45" x1="127.32" y1="50.6" x2="114.95" y2="57.11" gradientUnits="userSpaceOnUse"><stop offset="0" stop-color="#adc90e"/><stop offset="1" stop-color="#004426"/></linearGradient><linearGradient id="CG-verlauf" x1="127.19" y1="50.35" x2="114.81" y2="56.86" xlink:href="#Unbenannter_Verlauf_45"/><linearGradient id="Unbenannter_Verlauf_45-2" x1="-61.63" y1="285.07" x2="-85.42" y2="297.59" gradientTransform="translate(49.88 -212.11) rotate(-28.4)" xlink:href="#Unbenannter_Verlauf_45"/><linearGradient id="CG-verlauf-2" x1="-61.88" y1="284.58" x2="-85.68" y2="297.1" gradientTransform="translate(49.88 -212.11) rotate(-28.4)" xlink:href="#Unbenannter_Verlauf_45"/><linearGradient id="Unbenannter_Verlauf_45-3" x1="-63.7" y1="242.23" x2="-90.23" y2="256.2" gradientTransform="translate(55.89 -197.23) rotate(-25.08)" xlink:href="#Unbenannter_Verlauf_45"/><linearGradient id="CG-verlauf-3" x1="-63.99" y1="241.69" x2="-90.52" y2="255.65" gradientTransform="translate(55.89 -197.23) rotate(-25.08)" xlink:href="#Unbenannter_Verlauf_45"/></defs><g id="Layer_2" data-name="Layer 2"><g id="Ebene_8" data-name="Ebene 8"><circle class="cls-1" cx="112.65" cy="112.65" r="112.65"/><circle class="cls-2" cx="96.71" cy="123.38" r="89.89"/><circle class="cls-3" cx="258.6" cy="146.97" r="73.65"/><circle class="cls-4" cx="252.85" cy="153.4" r="59.55"/><circle class="cls-5" cx="72.04" cy="55.82" r="16.31"/><circle class="cls-6" cx="70.77" cy="57.24" r="13.19"/><circle class="cls-7" cx="266.1" cy="52.81" r="16.31"/><circle class="cls-8" cx="264.82" cy="54.23" r="13.19"/></g><g id="Ebene_2" data-name="Ebene 2"><rect class="cls-9" x="74.82" y="51.71" width="195.34" height="109.82" rx="5.69"/><rect class="cls-10" x="83.11" y="56.09" width="178.77" height="89.75" rx="5.69"/><rect class="cls-11" x="88" y="60.31" width="169" height="81.31" rx="5.69"/><path class="cls-12" d="M245.26,71.08l.9-.47-.14-1-.9.46Zm.77-.53-.67.34-.11-.74.67-.35Z"/><path class="cls-12" d="M243.3,67.47l-.51,1.24,1,.86.51-1.24Zm.42,1.9-.79-.7.42-1,.78.7Z"/><path class="cls-12" d="M246.33,67.71l-1.07.56.17,1.19,1.07-.55Zm-.94.62.85-.43.13.94-.85.44Z"/><path class="cls-12" d="M247.06,71l-.86.17.44.76.87-.17Zm-.68.25.62-.12.32.54-.62.12Z"/><path class="cls-12" d="M248.54,70.61l-.82-.4-.65.64.82.4Zm-1.26.21.46-.47.6.29-.47.47Z"/><path class="cls-12" d="M246.74,69.23l.66-.11.11-.65-.65.1Zm.22-.55.41-.07-.07.41-.41.06Z"/><path class="cls-12" d="M245.67,72l.24.73.77,0-.24-.73Zm.33.61-.16-.48h.51l.16.48Z"/><path class="cls-12" d="M242.46,71.55l-.39.53.64.2.39-.54Zm.2.59-.39-.12.24-.33.4.11Z"/><path class="cls-12" d="M244.42,71.92l.16-.49-.41-.31-.16.49Zm-.19-.61.21.16-.08.26-.21-.16Z"/><path class="cls-12" d="M242.63,68.85l-.87-.19.11.92.87.18Zm-.65.63-.08-.67.62.14.08.66Z"/><path class="cls-12" d="M242.84,69.87l.33,1.12,1.16.06L244,69.93Zm.42,1L243,70l.9,0,.26.87Z"/><path class="cls-12" d="M245,65.81a5.88,5.88,0,0,0-5.88,5.88,6.15,6.15,0,0,0,.17,1.43h0a5.92,5.92,0,0,1,5.68-7,5.4,5.4,0,0,1,5.12,5.53c0,.91-1,4.52-3.8,4.41,0,0-.56-.65-.92-1a13.17,13.17,0,0,0-.16-2.16c-.06-1,.85-1.75,1.37-2.19l.77-.4-.13-.93-.84.43.12.82a3.6,3.6,0,0,0-1.36,1.21c-.11-.75-.3-1.56-.32-1.67l.39-.69-.66-.76-.5.88.61.7a5,5,0,0,1,.08,2.45,3.3,3.3,0,0,0-1.94-1.64l-.31-1L241.22,70l.36,1.24,1.29.06a3.75,3.75,0,0,1,1.82,2.39,3.18,3.18,0,0,1-.1,1,3,3,0,0,1-.82-.62c-.14-.21-.34-.54-.52-.52s-.33.78.1,1.2.87.78.71,1-.82.28-.82.28A3.77,3.77,0,0,1,241.06,75c-1.1-1.08-1.34-.64-1.34-.64h0a5.88,5.88,0,1,0,5.27-8.5Zm2.14,3.78.1.69-.61.31-.1-.68ZM244.58,69l.5.57-.37.65-.5-.56Zm-2.91,2.18-.29-1,1,0,.29,1Z"/><path class="cls-12" d="M240.8,73.79c-.28-.16-.26.18-.26.18l.31.57a4.6,4.6,0,0,0,.55.48A2.32,2.32,0,0,0,240.8,73.79Z"/><path class="cls-12" d="M242.29,75l.24.71a2.29,2.29,0,0,0,.6.17,2,2,0,0,0-.58-1.08C242.26,74.65,242.29,75,242.29,75Z"/><path class="cls-12" d="M241.66,74.31c-.29-.15-.26.19-.26.19l.31.75s.48.31.54.28A2.16,2.16,0,0,0,241.66,74.31Z"/><rect class="cls-10" x="106.2" y="117.95" width="5.76" height="24.63"/><rect class="cls-10" x="115.55" y="126.47" width="5.76" height="16.1"/><rect class="cls-10" x="124.89" y="104.8" width="5.76" height="37.77"/><rect class="cls-10" x="171.64" y="97.28" width="5.76" height="45.29"/><rect class="cls-10" x="180.98" y="102.22" width="5.76" height="40.35"/><rect class="cls-10" x="190.33" y="129.02" width="5.76" height="13.55"/><rect class="cls-10" x="199.68" y="134.97" width="5.76" height="7.6"/><rect class="cls-10" x="209.03" y="126.58" width="5.76" height="15.99"/><rect class="cls-10" x="218.38" y="117.04" width="5.76" height="25.54"/><rect class="cls-10" x="227.73" y="106.51" width="5.76" height="36.06"/><rect class="cls-10" x="237.07" y="112.33" width="5.76" height="30.24"/><rect class="cls-10" x="134.24" y="133.96" width="5.76" height="8.62"/><rect class="cls-10" x="143.59" y="110.07" width="5.76" height="32.5"/><rect class="cls-10" x="152.94" y="115.76" width="5.76" height="26.82"/><rect class="cls-10" x="162.29" y="122.02" width="5.76" height="20.56"/><circle class="cls-10" cx="194.43" cy="72.6" r="5.76"/><circle class="cls-10" cx="208.69" cy="72.6" r="5.76"/><circle class="cls-10" cx="222.94" cy="72.6" r="5.76"/><rect class="cls-10" x="188.69" y="80.85" width="11.55" height="2.05" rx="1.03"/><rect class="cls-10" x="202.95" y="80.85" width="11.55" height="2.05" rx="1.03"/><rect class="cls-10" x="217.2" y="80.85" width="11.55" height="2.05" rx="1.03"/><rect class="cls-10" x="188.69" y="84.12" width="11.55" height="8.45" rx="1.26"/><rect class="cls-10" x="202.95" y="84.12" width="11.55" height="8.45" rx="1.26"/><rect class="cls-10" x="217.2" y="84.12" width="11.55" height="8.45" rx="1.26"/><rect class="cls-13" x="132.68" y="76.99" width="24.17" height="1.42" rx="0.71"/><rect class="cls-13" x="132.68" y="81.83" width="24.17" height="1.42" rx="0.71"/><rect class="cls-13" x="132.68" y="86.76" width="24.17" height="1.42" rx="0.71"/><rect class="cls-13" x="100.07" y="75.92" width="25.43" height="3.56"/><rect class="cls-13" x="100.07" y="80.76" width="25.43" height="2.02"/><rect class="cls-13" x="100.07" y="84.05" width="25.43" height="2.02"/><rect class="cls-13" x="100.07" y="87.34" width="25.43" height="2.02"/><path class="cls-14" d="M194.48,68.3a4.3,4.3,0,1,0,4.3,4.3,4.22,4.22,0,0,0-.34-1.67"/><path class="cls-15" d="M208.79,68.3a4.3,4.3,0,1,0,0,8.6,4.23,4.23,0,0,0,2.33-.7"/><path class="cls-16" d="M223.09,68.3a4.3,4.3,0,1,0,3.56,6.7"/><path class="cls-17" d="M291.63,146.72c-.32-2.94-1.57-2.5-3.29-7.91s2.75-5.63,1.89-10.43c-.61-3.34-4-2-6-4.37s3.72-8.13-1-9.94l-3.81-1.15c-5-.78-2.94,7.08-5.79,8.13s-5.17-1.78-7.36.81c-3.14,3.73.62,6.15-3.57,10s-5,2.83-6.79,5.22-2,5.07.74,10.58-1.82,7.79-4.23,13.7,2.31,8.13,4.47,9.67,3.15,4.68.47,8.44,4.16,7.83,4.16,7.83,8.08.07,7.63-4.54,2-6.83,4.63-7.08,7.85.17,8.7-6.15-1.95-10.57,3.16-14S292,149.66,291.63,146.72Z"/><path class="cls-18" d="M275.13,133.3C263.46,155.52,263,183.8,263,183.8"/><path class="cls-19" d="M287.31,173.29c.5-1.57-.24-1.63.11-4.77s2.67-2.24,3.31-4.88c.45-1.83-1.58-1.94-2.05-3.56s3.73-3.3,1.76-5.27l-1.68-1.45c-2.35-1.51-3.09,2.94-4.78,2.83s-2.22-2.07-3.92-1.25c-2.43,1.19-1.07,3.27-4.06,4.27s-3.21.3-4.64,1.12-2.15,2.13-2,5.54-2.68,3.56-5.24,6-.66,4.66.09,5.93.55,3.09-1.66,4.4.35,4.91.35,4.91,4.09,1.86,4.9-.58,2.56-3,3.95-2.56,3.95,1.86,5.81-1.16,1.39-5.81,4.76-6.4S286.8,174.85,287.31,173.29Z"/><path class="cls-18" d="M282,162.74c-10.95,8.66-17.56,22.93-17.56,22.93"/></g><g id="pflanzen"><path class="cls-20" d="M91.68,171.44,79,177.9a1.82,1.82,0,0,1-2.29-2.14l4-11.67a6.24,6.24,0,0,1,2.16-2.74l12.5-6.88a1.81,1.81,0,0,1,2.26,2.19l-4.71,13.43A1.79,1.79,0,0,1,91.68,171.44Z"/><path class="cls-21" d="M84.69,157.54l-3.8,18.91a2.45,2.45,0,0,1-4.18.63l-9.08-14c-.59-.69-1.4-3.78-1.1-4.6l3.17-19a2.46,2.46,0,0,1,4.23-.57l10.31,16.26A2.47,2.47,0,0,1,84.69,157.54Z"/><path class="cls-22" d="M59.94,111.74c-.31-.41-.46-.24-1.19-.91s-.08-1.09-.63-1.74c-.38-.45-.78,0-1.28-.14s-.15-1.56-1-1.42l-.67.16c-.82.31.17,1.33-.17,1.73s-.94.19-1,.77c-.15.84.63.88.33,1.82s-.52.87-.57,1.39.14.94,1,1.53.41,1.34.56,2.45,1.06,1,1.52,1.07.89.43.81,1.24,1.31.82,1.31.82,1.23-.7.76-1.36a1,1,0,0,1,.08-1.47c.38-.27,1.21-.66.78-1.69s-1.21-1.43-.74-2.4S60.24,112.16,59.94,111.74Z"/><path class="cls-23" d="M69.09,126.59l-4.8,2a.63.63,0,0,1-.86-.65l.62-5.11a.61.61,0,0,1,.38-.5l4.92-2a.61.61,0,0,1,.85.66l-.74,5.12A.6.6,0,0,1,69.09,126.59Z"/><path class="cls-24" d="M63.68,119.78l-4.24,2.36a.58.58,0,0,1-.86-.51l0-4.8a.56.56,0,0,1,.3-.5l4.36-2.39a.58.58,0,0,1,.85.53L64,119.3A.57.57,0,0,1,63.68,119.78Z"/><path class="cls-25" d="M54.05,130.67l-3.8-4.43a.7.7,0,0,1,.39-1.14L56.31,124a.7.7,0,0,1,.67.23l3.86,4.57a.7.7,0,0,1-.41,1.14l-5.74,1A.69.69,0,0,1,54.05,130.67Z"/><path class="cls-26" d="M54.43,140.34l-4.23-4c-.39-.37,0-1.05.69-1.24l7.52-2a.87.87,0,0,1,.82.14l4.29,4.14c.39.37,0,1.06-.71,1.24l-7.58,1.91A.86.86,0,0,1,54.43,140.34Z"/><path class="cls-27" d="M56.25,152.07l-5.2-5.18c-.47-.47,0-1.32.78-1.53l8.91-2.28a1,1,0,0,1,1,.2L67,148.63c.47.48,0,1.34-.81,1.53l-9,2.12A1,1,0,0,1,56.25,152.07Z"/><path class="cls-28" d="M57,117.49l2,3.93a.52.52,0,0,1-.48.77L54.17,122a.53.53,0,0,1-.45-.29l-2.06-4a.53.53,0,0,1,.5-.77l4.4.27A.56.56,0,0,1,57,117.49Z"/><path class="cls-29" d="M74.45,134.88l-6.59,1.58a.82.82,0,0,1-1-1L68.75,129a.81.81,0,0,1,.59-.57l6.77-1.56a.8.8,0,0,1,1,1l-2,6.44A.78.78,0,0,1,74.45,134.88Z"/><path class="cls-30" d="M79.37,145.53l-7.32,1.7a.89.89,0,0,1-1.07-1.1l2.06-7a.89.89,0,0,1,.66-.61l7.51-1.7a.89.89,0,0,1,1.06,1.12l-2.25,7A.88.88,0,0,1,79.37,145.53Z"/><path class="cls-31" d="M62.18,162.71l-8.56-1a1.09,1.09,0,0,1-.44-1.84l5.9-4.56a3.77,3.77,0,0,1,2-.65l8.6.72a1.1,1.1,0,0,1,.41,1.86l-6.87,5.18A1.08,1.08,0,0,1,62.18,162.71Z"/><path class="cls-32" d="M84.46,156.42l-8.56-1a1.09,1.09,0,0,1-.44-1.84l5.9-4.55a3.79,3.79,0,0,1,2-.66l8.59.72a1.09,1.09,0,0,1,.41,1.86l-6.87,5.19A1.09,1.09,0,0,1,84.46,156.42Z"/><path class="cls-33" d="M78.4,177.79c.74-11.51-16.16-49-19.87-57.06"/><path class="cls-34" d="M244.87,144.27c-.19-.26-.28-.15-.74-.57s0-.68-.39-1.08-.48,0-.8-.09-.09-1-.63-.88l-.42.1c-.51.19.11.82-.1,1.08s-.58.11-.65.47c-.09.52.39.55.21,1.13s-.32.55-.36.86.09.59.65,1,.25.83.34,1.52.66.64,1,.67.55.27.5.77.82.51.82.51.76-.44.47-.84-.18-.76.05-.92.75-.41.49-1.05-.76-.89-.47-1.49S245.06,144.53,244.87,144.27Z"/><path class="cls-35" d="M250.56,153.5l-3,1.25a.39.39,0,0,1-.53-.4l.38-3.18a.36.36,0,0,1,.23-.31l3.07-1.26a.38.38,0,0,1,.52.42l-.46,3.18A.38.38,0,0,1,250.56,153.5Z"/><path class="cls-36" d="M247.2,149.27l-2.64,1.46a.35.35,0,0,1-.53-.31l0-3a.34.34,0,0,1,.19-.31l2.71-1.49a.36.36,0,0,1,.53.33l-.09,3A.38.38,0,0,1,247.2,149.27Z"/><path class="cls-37" d="M241.21,156l-2.36-2.76a.44.44,0,0,1,.24-.71l3.53-.69a.43.43,0,0,1,.41.15l2.4,2.84a.42.42,0,0,1-.25.7l-3.57.61A.43.43,0,0,1,241.21,156Z"/><path class="cls-38" d="M241.45,162.05l-2.63-2.49c-.24-.23,0-.65.42-.77l4.68-1.27a.55.55,0,0,1,.51.09l2.67,2.57c.24.23,0,.66-.44.77L242,162.14A.53.53,0,0,1,241.45,162.05Z"/><path class="cls-39" d="M242.58,169.34l-3.23-3.22c-.3-.29,0-.82.48-1l5.54-1.42a.66.66,0,0,1,.62.13l3.28,3.32c.29.3,0,.83-.5,1l-5.59,1.31A.62.62,0,0,1,242.58,169.34Z"/><path class="cls-40" d="M243,147.84l1.27,2.44a.32.32,0,0,1-.3.48l-2.73-.1a.33.33,0,0,1-.28-.18L239.72,148a.33.33,0,0,1,.32-.47l2.73.16A.33.33,0,0,1,243,147.84Z"/><path class="cls-41" d="M253.9,158.66l-4.1,1a.5.5,0,0,1-.6-.62l1.15-4a.5.5,0,0,1,.37-.35l4.21-1a.5.5,0,0,1,.59.64l-1.26,4A.51.51,0,0,1,253.9,158.66Z"/><path class="cls-42" d="M257,165.27l-4.56,1.06a.55.55,0,0,1-.66-.68L253,161.3a.53.53,0,0,1,.41-.38l4.67-1.06a.56.56,0,0,1,.66.7l-1.4,4.35A.54.54,0,0,1,257,165.27Z"/><path class="cls-43" d="M246.26,176l-5.32-.63a.68.68,0,0,1-.27-1.14l3.67-2.83a2.36,2.36,0,0,1,1.25-.41l5.34.45a.67.67,0,0,1,.25,1.15l-4.27,3.23A.68.68,0,0,1,246.26,176Z"/><path class="cls-44" d="M260.12,172.05l-5.32-.63a.67.67,0,0,1-.27-1.14l3.66-2.83a2.41,2.41,0,0,1,1.25-.41l5.35.45a.68.68,0,0,1,.25,1.15l-4.27,3.23A.69.69,0,0,1,260.12,172.05Z"/><path class="cls-45" d="M256.35,185.33c.46-7.15-10.05-30.49-12.35-35.48"/></g><g id="menschen"><circle class="cls-10" cx="119.48" cy="54.1" r="6.96" transform="translate(44.02 161.38) rotate(-79.24)"/><path class="cls-46" d="M121.87,46.27a8.14,8.14,0,1,0,6.48,9.52A8.14,8.14,0,0,0,121.87,46.27Zm-3.69,14.67a7,7,0,1,1,8.14-5.54A7,7,0,0,1,118.18,60.94Z"/><path class="cls-47" d="M122.15,54.87a8.57,8.57,0,0,0-1-.62l-1.1-.55a10.47,10.47,0,0,1-1-.53,2.1,2.1,0,0,1-.7-.65,1.21,1.21,0,0,1-.14-.91,1.16,1.16,0,0,1,.67-.82,1.9,1.9,0,0,1,1.26-.16,3.51,3.51,0,0,1,1.1.38,1.84,1.84,0,0,1,.61.55,1.58,1.58,0,0,1,.31,1l0,.15a.14.14,0,0,0,.12.18l.77.14a.13.13,0,0,0,.17-.11l.42-2.21c0-.1,0-.15-.12-.17l-.68-.13c-.11,0-.17,0-.19.11l-.06.48a2.41,2.41,0,0,0-1.44-1.14l.18-1a.14.14,0,0,0-.12-.18l-.65-.12a.14.14,0,0,0-.18.12l-.16.84a3.06,3.06,0,0,0-2.12.33,2.17,2.17,0,0,0-1,1.51,2,2,0,0,0,.09,1.16,2.16,2.16,0,0,0,.63.86,7.53,7.53,0,0,0,1,.63c.36.19.72.38,1.09.54s.7.34,1,.51a2.07,2.07,0,0,1,.68.63,1,1,0,0,1,.16.78,1.3,1.3,0,0,1-.74,1,2.24,2.24,0,0,1-1.4.13,3.3,3.3,0,0,1-1.3-.5,2.65,2.65,0,0,1-1.1-1.86l0-.07c0-.1,0-.16-.12-.17l-.77-.15c-.1,0-.17,0-.18.12l-.44,2.29c0,.09,0,.15.13.17l.68.13q.16,0,.18-.12l.13-.82h0a2.94,2.94,0,0,0,.64,1,2.87,2.87,0,0,0,1.25.75l-.17.92c0,.09,0,.15.12.17l.66.13a.14.14,0,0,0,.17-.12l.16-.83a3.25,3.25,0,0,0,2.29-.32,2.35,2.35,0,0,0,1-1.59,1.84,1.84,0,0,0-.11-1.1A2.14,2.14,0,0,0,122.15,54.87Z"/><circle class="cls-10" cx="121.21" cy="81.06" r="13.39" transform="translate(-18.86 40.54) rotate(-17.64)"/><path class="cls-48" d="M118.09,65.63A15.65,15.65,0,1,0,137.74,75.8,15.65,15.65,0,0,0,118.09,65.63Zm7.18,28.19A13.39,13.39,0,1,1,134,77,13.39,13.39,0,0,1,125.27,93.82Z"/><path class="cls-49" d="M126.42,79.92a14.56,14.56,0,0,0-2.24-.14c-.8,0-1.59,0-2.38.08s-1.52,0-2.2,0a4,4,0,0,1-1.77-.47A2.31,2.31,0,0,1,116.76,78a2.2,2.2,0,0,1,.37-2,3.66,3.66,0,0,1,2-1.42,6.42,6.42,0,0,1,2.23-.37,3.59,3.59,0,0,1,1.53.37,3,3,0,0,1,1.47,1.49l.1.29a.25.25,0,0,0,.36.19l1.43-.46a.25.25,0,0,0,.18-.36l-1.3-4.11a.26.26,0,0,0-.36-.19l-1.28.41a.27.27,0,0,0-.21.36l.33.88a4.58,4.58,0,0,0-3.47-.63l-.58-1.79a.26.26,0,0,0-.36-.19l-1.22.39a.26.26,0,0,0-.19.36l.5,1.57A5.93,5.93,0,0,0,115,75.32a4.17,4.17,0,0,0-.39,3.51,3.87,3.87,0,0,0,3.08,2.74,13,13,0,0,0,2.22.18c.79,0,1.58,0,2.35-.08a20,20,0,0,1,2.15,0,4.09,4.09,0,0,1,1.73.43,2,2,0,0,1,1,1.19,2.47,2.47,0,0,1-.35,2.33,4.26,4.26,0,0,1-2.26,1.52,6.36,6.36,0,0,1-2.66.34,5,5,0,0,1-3.54-2.14l0-.14a.25.25,0,0,0-.35-.19l-1.44.46a.27.27,0,0,0-.21.37l1.36,4.27a.27.27,0,0,0,.39.18l1.27-.41q.3-.09.18-.36l-.53-1.5,0,0A5.36,5.36,0,0,0,121,89a5.79,5.79,0,0,0,2.81.13l.54,1.7a.26.26,0,0,0,.36.19l1.23-.39a.25.25,0,0,0,.18-.36l-.49-1.55a6.22,6.22,0,0,0,3.58-2.64,4.43,4.43,0,0,0,.31-3.62,3.54,3.54,0,0,0-1.19-1.78A4,4,0,0,0,126.42,79.92Z"/><circle class="cls-10" cx="88.83" cy="63.1" r="14.93" transform="translate(-12.84 23.92) rotate(-14.32)"/><path class="cls-50" d="M86.35,45.72a17.45,17.45,0,1,0,21.22,12.59A17.44,17.44,0,0,0,86.35,45.72Zm6.17,31.85A14.93,14.93,0,1,1,103.3,59.41,14.94,14.94,0,0,1,92.52,77.57Z"/><path class="cls-51" d="M94.7,62.17a15.72,15.72,0,0,0-2.49-.3c-.88,0-1.77-.06-2.65-.06s-1.69-.05-2.44-.12a4.45,4.45,0,0,1-2-.63,2.62,2.62,0,0,1-1.1-1.64,2.47,2.47,0,0,1,.55-2.2,4.08,4.08,0,0,1,2.3-1.45,7.33,7.33,0,0,1,2.5-.27A3.87,3.87,0,0,1,91.1,56a3.34,3.34,0,0,1,1.55,1.75l.08.33a.28.28,0,0,0,.39.23l1.63-.41a.28.28,0,0,0,.22-.39l-1.19-4.67a.28.28,0,0,0-.38-.23L92,53c-.22.06-.31.19-.25.4l.3,1a5.12,5.12,0,0,0-3.82-.92l-.52-2a.28.28,0,0,0-.39-.23l-1.39.35a.28.28,0,0,0-.23.39l.45,1.78a6.65,6.65,0,0,0-3.82,2.58,4.64,4.64,0,0,0-.65,3.88,4.34,4.34,0,0,0,1.22,2.16,4.4,4.4,0,0,0,2,1.09,14.13,14.13,0,0,0,2.47.35c.88.05,1.75.07,2.62.06a20.45,20.45,0,0,1,2.4.08,4.43,4.43,0,0,1,1.89.59,2.16,2.16,0,0,1,1,1.39,2.79,2.79,0,0,1-.53,2.58A4.81,4.81,0,0,1,92.13,70a7,7,0,0,1-3,.2,5.61,5.61,0,0,1-3.8-2.61l0-.16a.29.29,0,0,0-.39-.23l-1.63.42A.29.29,0,0,0,83,68l1.23,4.85a.3.3,0,0,0,.42.22l1.44-.37c.23,0,.3-.18.23-.39l-.49-1.71h0A6.16,6.16,0,0,0,88.05,72a6.36,6.36,0,0,0,3.11.32l.5,1.93a.28.28,0,0,0,.39.23l1.39-.35a.29.29,0,0,0,.23-.39L93.22,72a6.92,6.92,0,0,0,4.15-2.71,5,5,0,0,0,.58-4,3.89,3.89,0,0,0-1.21-2A4.35,4.35,0,0,0,94.7,62.17Z"/></g></g></svg>