<svg xmlns="http://www.w3.org/2000/svg" xmlns:xlink="http://www.w3.org/1999/xlink" viewBox="0 0 270.65 270.65"><defs><style>.cls-1,.cls-2,.cls-3,.cls-4{opacity:0.38;}.cls-1{fill:url(#Unbenannter_Verlauf_2);}.cls-2{fill:url(#Unbenannter_Verlauf_2-2);}.cls-3{fill:url(#Unbenannter_Verlauf_2-3);}.cls-4{fill:url(#Unbenannter_Verlauf_2-4);}.cls-5,.cls-7{fill:#f0f0f0;}.cls-5,.cls-6{opacity:0.65;}.cls-8{fill:#f2f2f2;}</style><linearGradient id="Unbenannter_Verlauf_2" y1="135.33" x2="270.65" y2="135.33" gradientUnits="userSpaceOnUse"><stop offset="0" stop-color="#adc90e"/><stop offset="1" stop-color="#004426"/></linearGradient><linearGradient id="Unbenannter_Verlauf_2-2" x1="22.76" y1="135.33" x2="247.89" y2="135.33" xlink:href="#Unbenannter_Verlauf_2"/><linearGradient id="Unbenannter_Verlauf_2-3" x1="46" y1="135.33" x2="224.66" y2="135.33" xlink:href="#Unbenannter_Verlauf_2"/><linearGradient id="Unbenannter_Verlauf_2-4" x1="71.34" y1="135.33" x2="199.31" y2="135.33" xlink:href="#Unbenannter_Verlauf_2"/></defs><g id="Layer_2" data-name="Layer 2"><g id="Ebene_1" data-name="Ebene 1"><circle class="cls-1" cx="135.33" cy="135.33" r="135.33"/><circle class="cls-2" cx="135.33" cy="135.33" r="112.56"/><circle class="cls-3" cx="135.33" cy="135.33" r="89.33"/><circle class="cls-4" cx="135.33" cy="135.33" r="63.98"/></g><g id="Ebene_3" data-name="Ebene 3"><path class="cls-5" d="M224.5,101.19c1.81-1.22,7.76-4.36,9.16-5s1.28,2.59,2.35,3.13a7.2,7.2,0,0,1,4.05,3.9c1.46,2.87-1,7.37-.05,8.46s2.19,1.56,3.65,6.28,3.51,11.82,1.45,13-1-1.28-2.66-.69-11.75,5.35-12.38,7.44,2.3,7.73,4.82,9.82,6,4,5.3,5.46-6.39,4-6.35,5.32,2.94,5,1.79,5.85-3.72-2.55-5.3-2-7,3.24-8.29,3.05a14.33,14.33,0,0,1-3.46-1.34s-.19,2.94-1.44,2.77-4.55-4.39-6.72-4.57-8.15,2.75-10.7,1.13,4.29-13,4.29-13-9.79-1.22-10.38-4.75-2.19-5.08-1.91-8-2.19-6.93-1.16-8.3,2.27-2.18,2-4.37-1.64-3,.77-3.28,4.92-1.06,5.15-3.51-2.57-2.6-2.31-3.17,1.76-.33,2.11-1.52,1.69-5.29,1.27-5.45-2.42-2.07.78-3.54S205.2,106,205.2,106c1.22,1.22,1.08.31,2.1-.77s2.12-2.21,2.07-4.13-2.61-6.39-1.63-7.82,7-.1,7.72,1.38-.06,1.91,1.34,2.91,3.95,0,4.93.15-2.21,3.46-1.11,4.11S224.5,101.19,224.5,101.19Z"/><path class="cls-5" d="M140.68,239.38s-.18-7.16,3-7.16,4.48,1.17,6.74,1.21,4.7-2.44,5.82-2.54c2.7-.25,4.49,1.27,7.36.75s15.43-6.69,20.21-6.55,7.46,1.3,9.08.87-4.27-17.7-4.49-17.64,2.17-1.92,1.09-3.49-3.88-.54-4.77-1.86.43-10.66-7.11-10.09-12.12,6.23-15.31,6.39-16.56.67-23-3.25-15.65-5.3-22.44-2.41-12.51,5.14-17.22,3.7-7.29-3.73-8-5.24-6.23-3.87-9.46.48,1.31,7.46-1,10.33,1.55,9.38,1.52,12.14a19.48,19.48,0,0,0,6.89,15.26c6.42,5.4,11.45,7.16,13.53,5.93s4.63-6,8.48-4.75,4.18,6.47,9.75,6.06,8.11-3.44,12.45-1.8S137.94,240.17,140.68,239.38Z"/><g class="cls-6"><path class="cls-7" d="M32.68,184c2.37.66,9-2.27,11.35-1.39s5.29-2.84,11-2.57,17.29.41,21.85,0,7.8-4.74,7.72-5.67-5.19.34-4-2.62,9.29-7.2,5.17-13.92-8.55-.43-9.93-3,3.68-8.19.39-16.53-6.51-4-8.2-12.81-6.5-11.26-8.22-11.47-.48-2.38,3.08-5.41S69,98,67.41,96.56s-8.24-2.1-11.86-1.39-.29-4.3,2.36-6.12A10.15,10.15,0,0,0,62,84.19c.33-1-7.44-.07-8.19-1s-3.68-1.07-4.87.25-7.07,10.2-7.42,14.26-5.06,6.85-3.69,10.85-3.48,6.11-1.37,8,7.2-.62,8.81,1.29-5,7.87-1.29,9.42,11.82.65,11.82.65-4.29,4.86-1.81,7.8,4.86,2.48,4.86,2.48-3,7.93-4.5,8.29-6,.52-7.32-.31-2.61.55-2.52,1.89-4.74,3.94-3,3.84,4.34-1.77,4.27.51.29,6.63-3.68,7.49-7.88,1.68-2.2,5.25,10.7,4.58,12.52,4.39-.31,3.6-3.82,2.66-8,1-10,3.82S29.58,183.1,32.68,184Z"/><path class="cls-7" d="M22.08,128c.8-2.3,8.6-8.53,12.41-7.57s6.32,11.39,3.83,12.66-7.43,1.69-8.1.62-1.55-4.15-2-3.93-3.45,3.62-4.71,2.57S21.17,130.57,22.08,128Z"/></g><g class="cls-6"><path class="cls-7" d="M126.78,75.92c-.8.42-3.39.32-3.41-3.17s-.69-8.26,0-9.83,4.28-4.35,5.4-2.15,2.09,9.56,1.67,11.1-1.44,3.12-2.11,3S128,75.26,126.78,75.92Z"/><path class="cls-7" d="M128.37,39.92c-1.72-.44-4.26-.88-5.44.84s-3.7,2.2-4.15,1.94,1.11-1.85.91-2-3.06.1-3.72-1.84-1.3-2.4-1.09-4S117.21,33,117,32.17s-2.38-1.63-.23-3,3.31.84,4.24-.81,1.8-3.48,2.68-2.95,2.07,4.48,3,4,.24-3.74,1.66-4.29,2.92,1.43,3.64,1.14,1.06-2.65,2.33-3.53,5.68-1.91,7.67-1,3.24,2.42,6.11,2.83,0,1.18.74,1.78,4.13,4.66,3.13,5.18-3.07-1.7-4.83-1-4.15,1.1-3.37,3.6-2.79,4.56,1,7.33,5.59,4.13,6.61,8,6.21,6.61,8.91,6.45,3.59.22,2.93,1.1-2.95,1.5-.06,2.82,9.49,4.14,11,7-.71,3.18-1,3.07-3.22-4.6-5.42-4.38-3.39,3.83-2.8,5,4,2.24,3.46,3.76-2.94,1.74-3.24,3.07-1.52,5.32-2.88,5.4-2.47-2.87-2.47-2.87S156.59,84,157.28,86s1.74,4.39-.14,5.27S143.3,85,143.87,83.4s1.2-2.24,5.6-1.87,7.31-.39,8.53-1.09,3-.48,4-2.21-.07-6.76-1.32-8.8-7.2-8.29-11.11-9.21-7.3-3.81-10.83-7.45-4.28-6.4-5.62-8.78A7.87,7.87,0,0,0,128.37,39.92Z"/></g><path class="cls-7" d="M136.3,132.23l3-1.56-.48-3.37-3,1.56Zm2.58-1.79-2.26,1.17-.36-2.52,2.26-1.17Z"/><path class="cls-7" d="M129.67,120.05,128,124.24l3.28,2.92L133,123Zm1.41,6.43-2.65-2.36,1.4-3.39,2.65,2.36Z"/><path class="cls-7" d="M139.9,120.87l-3.63,1.88.58,4,3.62-1.88Zm-3.19,2.1,2.87-1.48.45,3.19-2.86,1.49Z"/><path class="cls-7" d="M142.36,132.06l-2.92.57,1.5,2.57,2.92-.57Zm-2.28.86,2.08-.41,1.07,1.83-2.08.4Z"/><path class="cls-7" d="M147.36,130.65l-2.77-1.35-2.19,2.16,2.76,1.36Zm-4.27.7,1.58-1.56,2,1-1.59,1.56Z"/><path class="cls-7" d="M141.29,126l2.21-.37.39-2.21-2.22.37Zm.73-1.86,1.37-.23-.23,1.37-1.37.23Z"/><path class="cls-7" d="M137.67,135.22l.81,2.46,2.59,0-.81-2.46Zm1.11,2.06-.55-1.64,1.74,0,.54,1.64Z"/><path class="cls-7" d="M126.85,133.81l-1.32,1.82,2.15.65,1.32-1.82Zm.67,2-1.33-.4.82-1.13,1.33.4Z"/><path class="cls-7" d="M133.46,135.09l.54-1.67-1.4-1-.53,1.66Zm-.65-2.06.72.54-.28.85-.71-.54Z"/><path class="cls-7" d="M127.4,124.7l-2.93-.63.39,3.09,2.92.64Zm-2.18,2.13-.28-2.24L127,125l.28,2.24Z"/><path class="cls-7" d="M128.13,128.17l1.1,3.76,3.92.2L132,128.37Zm1.41,3.37-.86-2.94,3.06.16.86,2.94Z"/><path class="cls-7" d="M135.38,114.46a19.85,19.85,0,0,0-19.85,19.84,20.05,20.05,0,0,0,.59,4.81l.07,0c-2-16,10.62-23.49,19.14-23.49,8.79,0,17.28,7.91,17.28,18.66,0,3.06-3.31,15.25-12.8,14.89,0,0-1.91-2.21-3.11-3.37.23-2.13-.48-6.43-.54-7.31-.22-3.35,2.85-5.9,4.63-7.38l2.58-1.34-.45-3.15-2.83,1.47.4,2.76a11.91,11.91,0,0,0-4.56,4.09c-.4-2.53-1-5.28-1.08-5.65l1.31-2.33-2.25-2.55-1.67,3,2.07,2.34c.19,1,1.35,6,.26,8.29a11.18,11.18,0,0,0-6.54-5.55l-1-3.55-4.33-.21,1.22,4.15,4.33.22c2.42.94,6.06,5.47,6.17,8.07a11.15,11.15,0,0,1-.37,3.24,10.35,10.35,0,0,1-2.75-2.09c-.46-.73-1.16-1.82-1.77-1.77s-1.11,2.63.36,4,2.93,2.63,2.37,3.54-2.74.95-2.74.95a12.66,12.66,0,0,1-7.38-3.72c-3.69-3.64-4.5-2.18-4.5-2.18h0a19.84,19.84,0,1,0,17.77-28.67Zm7.22,12.76.33,2.31-2.07,1.07-.33-2.31ZM134,125.08l1.69,1.92-1.25,2.22-1.69-1.91Zm-9.79,7.36-1-3.33,3.47.17,1,3.34Z"/><path class="cls-7" d="M121.24,141.38c-.93-.55-.88.62-.88.62l1,1.91a15.82,15.82,0,0,0,1.87,1.63C123.61,145.58,122.18,141.92,121.24,141.38Z"/><path class="cls-7" d="M126.28,145.46l.8,2.42a7.78,7.78,0,0,0,2,.56c.24,0-1-3.13-2-3.63S126.28,145.46,126.28,145.46Z"/><path class="cls-7" d="M124.12,143.13c-1-.51-.85.66-.85.66l1,2.53s1.62,1,1.83.94S125.08,143.63,124.12,143.13Z"/><path class="cls-8" d="M184.82,117.29a17,17,0,1,0,17,17A17,17,0,0,0,184.82,117.29ZM183,148.85a14.55,14.55,0,1,1,14.55-14.55A14.55,14.55,0,0,1,183,148.85Z"/><circle class="cls-8" cx="183.86" cy="128.15" r="3.21"/><path class="cls-8" d="M190.06,134c-.85-1-4-1.94-4-1.94l-2,2.09-2.25-2.09s-3.25,1-4,2h0c-2.21,1.53-.83,8.58-.83,8.58l2.17-.09.29-2.75c.66,1.52,1.25,2.75,1.25,2.75h6.63s.48-1,1.06-2.31l.57,2.31H191S192,135.8,190.06,134Z"/><path class="cls-8" d="M135.38,67.42a17,17,0,1,0,17,17A17,17,0,0,0,135.38,67.42ZM133.53,99a14.55,14.55,0,1,1,14.55-14.55A14.54,14.54,0,0,1,133.53,99Z"/><circle class="cls-8" cx="134.42" cy="78.29" r="3.21"/><path class="cls-8" d="M140.62,84.16c-.85-1-4-2-4-2l-2,2.1-2.25-2.1s-3.25,1-4.05,2h0c-2.21,1.54-.83,8.58-.83,8.58l2.17-.09.29-2.75c.66,1.52,1.25,2.75,1.25,2.75h6.63s.48-1,1.06-2.3l.57,2.3h2.17S142.58,85.94,140.62,84.16Z"/><path class="cls-8" d="M135.38,167.05a17,17,0,1,0,17,17A17,17,0,0,0,135.38,167.05Zm-1.85,31.56a14.55,14.55,0,1,1,14.55-14.55A14.54,14.54,0,0,1,133.53,198.61Z"/><circle class="cls-8" cx="134.42" cy="177.92" r="3.21"/><path class="cls-8" d="M140.62,183.79c-.85-.95-4-1.95-4-1.95l-2,2.1-2.25-2.1s-3.25,1-4.05,2h0c-2.21,1.54-.83,8.58-.83,8.58l2.17-.09.29-2.75c.66,1.52,1.25,2.75,1.25,2.75h6.63s.48-1,1.06-2.3l.57,2.3h2.17S142.58,185.57,140.62,183.79Z"/><path class="cls-8" d="M86.91,117.29a17,17,0,1,0,17,17A17,17,0,0,0,86.91,117.29Zm-1.85,31.56A14.55,14.55,0,1,1,99.61,134.3,14.55,14.55,0,0,1,85.06,148.85Z"/><circle class="cls-8" cx="85.95" cy="128.15" r="3.21"/><path class="cls-8" d="M92.15,134c-.85-1-4-1.94-4-1.94l-2,2.09-2.25-2.09s-3.25,1-4,2h0c-2.21,1.53-.83,8.58-.83,8.58l2.17-.09.29-2.75c.66,1.52,1.25,2.75,1.25,2.75H89.3s.48-1,1.06-2.31l.57,2.31H93.1S94.11,135.8,92.15,134Z"/><circle class="cls-7" cx="109.52" cy="134.3" r="2.07"/><circle class="cls-7" cx="161.38" cy="134.3" r="2.07"/><circle class="cls-7" cx="135.38" cy="160.23" r="2.07"/><circle class="cls-7" cx="135.38" cy="108.37" r="2.07"/></g></g></svg>