<svg xmlns="http://www.w3.org/2000/svg" xmlns:xlink="http://www.w3.org/1999/xlink" viewBox="0 0 65.16 65.16"><defs><style>.cls-1{fill:none;}.cls-2{clip-path:url(#clip-path);}.cls-3{fill:#f1f0f0;}</style><clipPath id="clip-path" transform="translate(0 0)"><rect class="cls-1" width="65.16" height="65.16"/></clipPath></defs><g id="Layer_2" data-name="Layer 2"><g id="Layer_1-2" data-name="Layer 1"><g class="cls-2"><path class="cls-3" d="M32.58,0A32.58,32.58,0,1,0,65.16,32.58,32.58,32.58,0,0,0,32.58,0M29.05,60.46A27.88,27.88,0,1,1,56.92,32.58,27.88,27.88,0,0,1,29.05,60.46" transform="translate(0 0)"/><path class="cls-3" d="M40.66,46.18,32.35,40.9,40.24,35l8.31,5.28ZM37,40.73,40.54,43l3.4-2.54-3.58-2.27Z" transform="translate(0 0)"/><path class="cls-3" d="M46.87,33.54,38.94,33l3.31-7.22,7.92.52Zm-4-2.88,2.33.15,1-2.13-2.33-.15Z" transform="translate(0 0)"/><path class="cls-3" d="M19.28,46.18l-7.89-5.89L19.7,35l7.89,5.89ZM16,40.46,19.4,43,23,40.73l-3.4-2.54Z" transform="translate(0 0)"/><path class="cls-3" d="M13.07,33.54l-3.3-7.22,7.92-.52L21,33Zm.66-4.86,1,2.13L17,30.66l-1-2.13Z" transform="translate(0 0)"/><path class="cls-3" d="M30.06,40.73l-7.6-11.08,7.64-11,7.6,11.08ZM25.64,29.66l4.43,6.46,4.45-6.44-4.43-6.46Z" transform="translate(0 0)"/><polygon class="cls-3" points="49.83 56.49 29.47 51.32 10.62 56.11 8.31 53.29 29.47 47.91 50.65 53.29 49.83 56.49"/></g></g></g></svg>