<svg xmlns="http://www.w3.org/2000/svg" xmlns:xlink="http://www.w3.org/1999/xlink" viewBox="0 0 65.16 65.16"><defs><style>.cls-1{fill:none;}.cls-2{clip-path:url(#clip-path);}.cls-3{fill:#f1f0f0;}</style><clipPath id="clip-path" transform="translate(0 0)"><rect class="cls-1" width="65.16" height="65.16"/></clipPath></defs><g id="Layer_2" data-name="Layer 2"><g id="Layer_1-2" data-name="Layer 1"><g class="cls-2"><path class="cls-3" d="M32.58,0A32.58,32.58,0,1,0,65.16,32.58,32.58,32.58,0,0,0,32.58,0M29.05,60.46A27.88,27.88,0,1,1,56.92,32.58,27.88,27.88,0,0,1,29.05,60.46" transform="translate(0 0)"/><path class="cls-3" d="M41.32,47.7l-10-6.33,9.46-7.06,10,6.32Zm-4.44-6.54,4.3,2.73,4.07-3L41,38.12Z" transform="translate(0 0)"/><path class="cls-3" d="M48.46,32.54,39,31.92l4-8.67,9.5.62ZM43.7,29.08l2.8.18,1.17-2.55-2.8-.18Z" transform="translate(0 0)"/><path class="cls-3" d="M39.3,25.16l-3.86-6.78,5-6,3.86,6.78Zm-.06-6.46.53.94.69-.83-.53-.94Z" transform="translate(0 0)"/><path class="cls-3" d="M17.81,47.7,8.35,40.63l10-6.32,9.47,7.06Zm-3.93-6.86,4.08,3,4.3-2.73-4.08-3Z" transform="translate(0 0)"/><path class="cls-3" d="M10.68,32.54l-4-8.66,9.51-.63,4,8.67Zm.79-5.83,1.17,2.55,2.79-.18-1.16-2.55Z" transform="translate(0 0)"/><path class="cls-3" d="M20.62,25.16l-5-6,3.87-6.78,4.95,6Zm-1.16-6.35.69.83.53-.94L20,17.87Z" transform="translate(0 0)"/><path class="cls-3" d="M29.77,41.17,20.7,27.84l9.22-13.22L39,28ZM24.52,27.86l5.28,7.77,5.37-7.7-5.28-7.77Z" transform="translate(0 0)"/><polygon class="cls-3" points="50.49 56.56 30.13 51.39 11.18 56.21 8.97 53.37 30.13 47.99 51.3 53.37 50.49 56.56"/></g></g></g></svg>