<svg xmlns="http://www.w3.org/2000/svg" xmlns:xlink="http://www.w3.org/1999/xlink" viewBox="0 0 65.2 65.2"><defs><style>.cls-1{fill:none;}.cls-2{clip-path:url(#clip-path);}.cls-3{fill:#f1f0f0;}</style><clipPath id="clip-path" transform="translate(0 0)"><rect class="cls-1" width="65.2" height="65.2"/></clipPath></defs><g id="Layer_2" data-name="Layer 2"><g id="Layer_1-2" data-name="Layer 1"><g class="cls-2"><path class="cls-3" d="M32.6,0A32.6,32.6,0,1,0,65.2,32.6,32.59,32.59,0,0,0,32.6,0M29.06,60.49A27.89,27.89,0,1,1,57,32.6,27.89,27.89,0,0,1,29.06,60.49" transform="translate(0 0)"/><path class="cls-3" d="M40,45.71l-8.32-5.28,7.89-5.89,8.32,5.28Zm-3.71-5.45,3.59,2.27L43.25,40l-3.59-2.27Z" transform="translate(0 0)"/><path class="cls-3" d="M19.88,45.71,12,39.82l8.32-5.28,7.89,5.89ZM16.6,40,20,42.53l3.59-2.27-3.4-2.54Z" transform="translate(0 0)"/><path class="cls-3" d="M30,40.26l-7.6-11.08,7.64-11,7.61,11.08ZM25.59,29.19,30,35.64l4.46-6.44-4.43-6.45Z" transform="translate(0 0)"/><polygon class="cls-3" points="50.01 56.52 29.63 51.35 11.07 56.07 8.46 53.32 29.63 47.94 50.82 53.32 50.01 56.52"/><polygon class="cls-3" points="45.97 61.37 29.63 57.22 16.6 60.54 12.51 58.17 29.63 53.82 46.78 58.17 45.97 61.37"/></g></g></g></svg>