<svg xmlns="http://www.w3.org/2000/svg" xmlns:xlink="http://www.w3.org/1999/xlink" viewBox="0 0 65.16 65.16"><defs><style>.cls-1{fill:none;}.cls-2{clip-path:url(#clip-path);}.cls-3{fill:#f1f0f0;}</style><clipPath id="clip-path" transform="translate(0 0)"><rect class="cls-1" width="65.16" height="65.16"/></clipPath></defs><g id="Layer_2" data-name="Layer 2"><g id="Layer_1-2" data-name="Layer 1"><g class="cls-2"><path class="cls-3" d="M32.58,0A32.58,32.58,0,1,0,65.16,32.58,32.58,32.58,0,0,0,32.58,0M29.05,60.46A27.88,27.88,0,1,1,56.92,32.58,27.88,27.88,0,0,1,29.05,60.46" transform="translate(0 0)"/><path class="cls-3" d="M40.5,46.18,32.19,40.9,40.08,35l8.31,5.28Zm-3.7-5.45L40.38,43l3.4-2.54L40.2,38.19Z" transform="translate(0 0)"/><path class="cls-3" d="M46.71,33.54,38.79,33l3.3-7.22,7.93.52Zm-4-2.88,2.33.15,1-2.13-2.33-.15Z" transform="translate(0 0)"/><path class="cls-3" d="M19.12,46.18l-7.89-5.89L19.55,35l7.88,5.89Zm-3.28-5.72L19.24,43l3.58-2.27-3.4-2.54Z" transform="translate(0 0)"/><path class="cls-3" d="M12.92,33.54,9.61,26.32l7.92-.52L20.84,33Zm.65-4.86,1,2.13,2.33-.15-1-2.13Z" transform="translate(0 0)"/><path class="cls-3" d="M29.9,40.73,22.3,29.65l7.64-11,7.6,11.08ZM25.48,29.66l4.43,6.46,4.45-6.44-4.43-6.46Z" transform="translate(0 0)"/><polygon class="cls-3" points="29.49 14.11 12.35 9.75 13.17 6.55 29.49 10.7 45.79 6.55 46.6 9.75 29.49 14.11"/><polygon class="cls-3" points="49.83 56.49 29.47 51.32 10.69 56.09 8.31 53.29 29.47 47.91 50.65 53.29 49.83 56.49"/><polygon class="cls-3" points="45.79 61.34 29.47 57.19 16.88 60.39 12.95 57.99 29.47 53.79 46.6 58.14 45.79 61.34"/></g></g></g></svg>