<svg xmlns="http://www.w3.org/2000/svg" xmlns:xlink="http://www.w3.org/1999/xlink" viewBox="0 0 65.16 65.16"><defs><style>.cls-1{fill:none;}.cls-2{clip-path:url(#clip-path);}.cls-3{fill:#f1f0f0;}</style><clipPath id="clip-path" transform="translate(0 0)"><rect class="cls-1" width="65.16" height="65.16"/></clipPath></defs><g id="Layer_2" data-name="Layer 2"><g id="Layer_1-2" data-name="Layer 1"><g class="cls-2"><path class="cls-3" d="M32.58,0A32.58,32.58,0,1,0,65.16,32.58,32.58,32.58,0,0,0,32.58,0M29.05,60.46A27.88,27.88,0,1,1,56.92,32.58,27.88,27.88,0,0,1,29.05,60.46" transform="translate(0 0)"/><path class="cls-3" d="M41.69,48.36,31.4,41.83l9.76-7.28,10.29,6.52Zm-4.58-6.74,4.43,2.81,4.2-3.14-4.43-2.81Z" transform="translate(0 0)"/><path class="cls-3" d="M49.05,32.72l-9.81-.64,4.09-8.93,9.81.64Zm-4.91-3.57,2.89.19,1.2-2.63-2.88-.19Z" transform="translate(0 0)"/><path class="cls-3" d="M39.61,25.11l-4-7,5.12-6.22,4,7Zm-.07-6.66.55,1,.71-.86-.55-1Z" transform="translate(0 0)"/><path class="cls-3" d="M17.45,48.36,7.69,41.07,18,34.55l9.76,7.28Zm-4.06-7.07,4.21,3.14L22,41.62l-4.21-3.14Z" transform="translate(0 0)"/><path class="cls-3" d="M10.09,32.72,6,23.79l9.8-.64,4.1,8.93Zm.81-6,1.21,2.63L15,29.15l-1.2-2.63Z" transform="translate(0 0)"/><path class="cls-3" d="M20.34,25.11,15.23,18.9l4-7,5.11,6.21Zm-1.19-6.55.7.86.55-1-.7-.86Z" transform="translate(0 0)"/><path class="cls-3" d="M29.77,41.62,20.43,27.88l9.5-13.63L39.28,28ZM24.36,27.9l5.45,8L35.35,28,29.9,20Z" transform="translate(0 0)"/><polygon class="cls-3" points="49.98 56.56 29.61 51.39 10.9 56.15 8.46 53.37 29.61 47.99 50.79 53.37 49.98 56.56"/><polygon class="cls-3" points="45.94 61.41 29.62 57.27 16.74 60.54 12.5 58.21 29.62 53.86 46.75 58.21 45.94 61.41"/></g></g></g></svg>