<svg xmlns="http://www.w3.org/2000/svg" xmlns:xlink="http://www.w3.org/1999/xlink" viewBox="0 0 65.16 65.16"><defs><style>.cls-1{fill:none;}.cls-2{clip-path:url(#clip-path);}.cls-3{fill:#f1f0f0;}</style><clipPath id="clip-path" transform="translate(0 0)"><rect class="cls-1" width="65.16" height="65.16"/></clipPath></defs><g id="Layer_2" data-name="Layer 2"><g id="Layer_1-2" data-name="Layer 1"><g class="cls-2"><path class="cls-3" d="M32.58,0A32.58,32.58,0,1,0,65.16,32.58,32.58,32.58,0,0,0,32.58,0M29.05,60.46A27.88,27.88,0,1,1,56.92,32.58,27.88,27.88,0,0,1,29.05,60.46" transform="translate(0 0)"/><path class="cls-3" d="M41.32,48.36,31.35,42,40.81,35l10,6.32Zm-4.44-6.54,4.3,2.73,4.07-3L41,38.78Z" transform="translate(0 0)"/><path class="cls-3" d="M48.46,33.2,39,32.58l4-8.67,9.51.63ZM43.7,29.74l2.8.18,1.17-2.55-2.8-.18Z" transform="translate(0 0)"/><path class="cls-3" d="M39.3,25.82,35.44,19l5-6,3.86,6.78Zm-.06-6.46.53.94.69-.83-.53-.94Z" transform="translate(0 0)"/><path class="cls-3" d="M17.82,48.36,8.35,41.29l10-6.32L27.79,42ZM13.88,41.5l4.08,3,4.3-2.73-4.08-3Z" transform="translate(0 0)"/><path class="cls-3" d="M10.68,33.2l-4-8.66,9.51-.63,4,8.67Zm.79-5.83,1.17,2.55,2.8-.18-1.17-2.55Z" transform="translate(0 0)"/><path class="cls-3" d="M20.62,25.82l-5-6L19.53,13l4.95,6Zm-1.16-6.35.69.83.53-.94L20,18.53Z" transform="translate(0 0)"/><path class="cls-3" d="M29.77,41.83,20.7,28.5l9.22-13.22L39,28.61ZM24.52,28.52l5.28,7.77,5.38-7.7-5.29-7.77Z" transform="translate(0 0)"/><polygon class="cls-3" points="29.84 14.1 12.71 9.75 13.52 6.55 29.84 10.7 46.15 6.55 46.96 9.75 29.84 14.1"/><polygon class="cls-3" points="50.19 56.49 29.82 51.32 10.96 56.12 8.67 53.29 29.82 47.91 51 53.29 50.19 56.49"/><polygon class="cls-3" points="46.15 61.34 29.83 57.19 16.99 60.46 12.71 58.14 29.83 53.79 46.96 58.14 46.15 61.34"/></g></g></g></svg>