<svg xmlns="http://www.w3.org/2000/svg" xmlns:xlink="http://www.w3.org/1999/xlink" viewBox="0 0 65.16 65.17"><defs><style>.cls-1{fill:none;}.cls-2{clip-path:url(#clip-path);}.cls-3{fill:#f1f0f0;}</style><clipPath id="clip-path" transform="translate(0 0)"><rect class="cls-1" width="65.17" height="65.16"/></clipPath></defs><g id="Layer_2" data-name="Layer 2"><g id="Layer_1-2" data-name="Layer 1"><g class="cls-2"><path class="cls-3" d="M32.58,0A32.58,32.58,0,1,0,65.17,32.58,32.58,32.58,0,0,0,32.58,0m.92,60.1a28.24,28.24,0,0,0,.29-5.54c0-1.53-.61-5.41-.74-7.32-.44-6.62,5.63-11.66,9.14-14.58L47.29,30l-.89-6.23-5.58,2.89.78,5.47c-4,2.33-7.06,4.79-9,8.07-.77-5-2-10.43-2.12-11.15l2.59-4.6-4.45-5-3.3,5.86,4.08,4.64c.38,1.95,2.68,11.75.53,16.37-2.59-4.93-7.62-9.63-12.94-11l-2-7-8.55-.43L8.78,36.1l8.55.43c4.79,1.86,12,10.81,12.19,15.95a23.29,23.29,0,0,1-1.17,8,27.83,27.83,0,1,1,5.15-.34m9.21-32.44L45,26.46,45.39,29l-2.31,1.19Zm-13.28-.32-2-2.28,1.49-2.65,2,2.28ZM15,34.67l-4.87-.24L8.73,29.75,13.6,30Z" transform="translate(0 0)"/><path class="cls-3" d="M32.36,28.25l1,6.66,6-3.09-.95-6.66Zm2.33,4-.43-3,2.7-1.4.43,3Z" transform="translate(0 0)"/><path class="cls-3" d="M16.82,19.11l6.49,5.78,3.41-8.27-6.49-5.78Zm7.82-2-2,4.86L18.9,18.63l2-4.86Z" transform="translate(0 0)"/><path class="cls-3" d="M33.27,16.17l1.14,8,7.16-3.7-1.14-8Zm2.51,5.31-.61-4.33,3.88-2,.62,4.33Z" transform="translate(0 0)"/><path class="cls-3" d="M39.53,35.7l3,5.07,5.76-1.12-3-5.08Zm3.85,3.13-1.11-1.89,2.15-.42,1.1,1.89Z" transform="translate(0 0)"/><path class="cls-3" d="M49.7,29.12l-4.33,4.27,5.47,2.68,4.33-4.28ZM50.49,34l-2.15-1.06L50,31.22l2.16,1.06Z" transform="translate(0 0)"/><path class="cls-3" d="M48.31,17.49l-4.37.73-.76,4.37,4.38-.72Zm-2.26,2.86-.74.12.13-.73.74-.13Z" transform="translate(0 0)"/><path class="cls-3" d="M36,40.83l1.6,4.85,5.12.09-1.6-4.85ZM38.9,44l-.45-1.36,1.43,0L40.33,44Z" transform="translate(0 0)"/><path class="cls-3" d="M18.9,39.31,14.65,38,12,41.63l4.25,1.27Zm-3.29,1.57-.72-.21.44-.61.72.22Z" transform="translate(0 0)"/><polygon class="cls-3" points="24.96 38.47 27.71 40.55 28.77 37.27 26.02 35.18 24.96 38.47"/><path class="cls-3" d="M10,18.79l.76,6.11,5.78,1.25L15.73,20Zm2.33,4.67L12,21l2.18.47.3,2.45Z" transform="translate(0 0)"/><path class="cls-3" d="M17.18,26.89l2.18,7.43,7.73.39-2.18-7.43Zm3.5,5.75-1.14-3.89,4.05.21,1.14,3.89Z" transform="translate(0 0)"/></g></g></g></svg>