<svg xmlns="http://www.w3.org/2000/svg" xmlns:xlink="http://www.w3.org/1999/xlink" viewBox="0 0 841.89 134.36"><defs><style>.cls-1{fill:url(#Unbenannter_Verlauf_2);}.cls-2{fill:#fff;}</style><linearGradient id="Unbenannter_Verlauf_2" x1="834.87" y1="6.93" x2="1.21" y2="128.28" gradientUnits="userSpaceOnUse"><stop offset="0" stop-color="#a4cd39"/><stop offset="1" stop-color="#004628"/></linearGradient></defs><g id="Layer_2" data-name="Layer 2"><g id="Ebene_1" data-name="Ebene 1"><path class="cls-1" d="M0,0V134.36H841.89V0ZM89.18,132.73c-6.44,0-6.43-10,0-10S95.62,132.73,89.18,132.73Z"/><polygon class="cls-2" points="676.51 115.49 683.33 131.04 700.22 132.9 693.5 117.19 676.51 115.49"/><polygon class="cls-2" points="783.51 87.48 793.29 109.76 817.48 112.42 807.85 89.92 783.51 87.48"/><polygon class="cls-2" points="709.87 91.33 714.17 101.13 724.8 102.29 720.57 92.41 709.87 91.33"/><polygon class="cls-2" points="761.5 58.59 768.24 73.94 784.91 75.77 778.28 60.27 761.5 58.59"/><polygon class="cls-2" points="794.02 35.89 797 42.67 804.36 43.47 801.43 36.63 794.02 35.89"/><polygon class="cls-2" points="750.48 87.1 753.45 93.88 760.81 94.69 757.88 87.85 750.48 87.1"/></g></g></svg>