<svg xmlns="http://www.w3.org/2000/svg" xmlns:xlink="http://www.w3.org/1999/xlink" viewBox="0 0 425.2 283.46"><defs><style>.cls-1{fill:#f2f2f2;}.cls-2,.cls-3,.cls-4,.cls-5{opacity:0.38;}.cls-2{fill:url(#Unbenannter_Verlauf_2);}.cls-3{fill:url(#Unbenannter_Verlauf_2-2);}.cls-4{fill:url(#Unbenannter_Verlauf_2-3);}.cls-5{fill:url(#Unbenannter_Verlauf_2-4);}.cls-6{fill:#fff;}.cls-7{fill:none;stroke:#fff;stroke-linecap:round;stroke-miterlimit:10;stroke-width:4px;}</style><linearGradient id="Unbenannter_Verlauf_2" x1="81.62" y1="139.26" x2="352.27" y2="139.26" gradientUnits="userSpaceOnUse"><stop offset="0" stop-color="#adc90e"/><stop offset="1" stop-color="#004426"/></linearGradient><linearGradient id="Unbenannter_Verlauf_2-2" x1="104.38" y1="139.26" x2="329.51" y2="139.26" xlink:href="#Unbenannter_Verlauf_2"/><linearGradient id="Unbenannter_Verlauf_2-3" x1="127.61" y1="139.26" x2="306.27" y2="139.26" xlink:href="#Unbenannter_Verlauf_2"/><linearGradient id="Unbenannter_Verlauf_2-4" x1="152.96" y1="139.26" x2="280.93" y2="139.26" xlink:href="#Unbenannter_Verlauf_2"/><symbol id="Neues_Symbol" data-name="Neues Symbol" viewBox="0 0 138.9 138.9"><path class="cls-1" d="M69.45,0A69.45,69.45,0,1,0,138.9,69.45,69.45,69.45,0,0,0,69.45,0ZM61.91,128.87a59.42,59.42,0,1,1,59.42-59.42A59.42,59.42,0,0,1,61.91,128.87Z"/><path class="cls-1" d="M85.47,71.64A62.47,62.47,0,0,0,76.16,68Q71.09,66.51,66,65.18c-3.38-.87-6.49-1.83-9.31-2.85A17.38,17.38,0,0,1,49.81,58a10.33,10.33,0,0,1-2.65-7.41q0-4.61,4.29-7.94a16.31,16.31,0,0,1,10.32-3.33,28.8,28.8,0,0,1,9.9,1.43,15.55,15.55,0,0,1,6,3.65c2.69,2.82,4.09,5.57,4.23,8.26V54a1.13,1.13,0,0,0,1.28,1.27h6.67A1.12,1.12,0,0,0,91.08,54V34.86a1.11,1.11,0,0,0-1.26-1.26H83.89q-1.38,0-1.38,1.26L82.72,39Q78,33,68.86,31.69V23.33a1.12,1.12,0,0,0-1.27-1.27H61.87a1.12,1.12,0,0,0-1.27,1.27v7.3q-10.89.42-17.25,6.19A18.61,18.61,0,0,0,37,51.16a17.27,17.27,0,0,0,2.59,9.53,17.76,17.76,0,0,0,6.73,6.19,56.34,56.34,0,0,0,9.15,3.76q5,1.58,10.06,2.8a88.5,88.5,0,0,1,9.15,2.7,17.49,17.49,0,0,1,6.72,4.13A8.73,8.73,0,0,1,84,86.62,11,11,0,0,1,79.39,96,19,19,0,0,1,67.8,99.42a27.91,27.91,0,0,1-11.7-2.17A19.57,19.57,0,0,1,49,92.12q-4.65-5.72-5-8.68v-.63a1.12,1.12,0,0,0-1.27-1.27H36.05c-.92,0-1.38.42-1.38,1.27V102.7c0,.85.46,1.27,1.38,1.27H42c.92,0,1.34-.42,1.27-1.27L43,95.61h.21a24.56,24.56,0,0,0,6.93,7.25,25.38,25.38,0,0,0,11.69,4.29v7.94a1.13,1.13,0,0,0,1.28,1.27h5.71a1.12,1.12,0,0,0,1.27-1.27v-7.2q12.48-.42,18.68-6.35A19.77,19.77,0,0,0,95,86.62a15.5,15.5,0,0,0-2.65-9.1A17.61,17.61,0,0,0,85.47,71.64Z"/></symbol></defs><g id="Ebene_2" data-name="Ebene 2"><circle class="cls-2" cx="216.94" cy="139.26" r="135.33"/><circle class="cls-3" cx="216.94" cy="139.26" r="112.56"/><circle class="cls-4" cx="216.94" cy="139.26" r="89.33"/><circle class="cls-5" cx="216.94" cy="139.26" r="63.98"/></g><g id="Ebene_1" data-name="Ebene 1"><path class="cls-1" d="M218.79,56.91A20.41,20.41,0,1,0,239.2,77.32,20.41,20.41,0,0,0,218.79,56.91Zm-2.21,37.87A17.46,17.46,0,1,1,234,77.32,17.45,17.45,0,0,1,216.58,94.78Z"/><circle class="cls-1" cx="217.64" cy="69.95" r="3.85"/><path class="cls-1" d="M225.08,77c-1-1.14-4.82-2.34-4.82-2.34l-2.44,2.52-2.7-2.52s-3.91,1.23-4.86,2.39h0c-2.66,1.85-1,10.3-1,10.3l2.6-.11.35-3.3c.79,1.83,1.5,3.3,1.5,3.3h7.95s.58-1.19,1.27-2.76l.69,2.76h2.6S227.44,79.13,225.08,77Z"/><use width="138.9" height="138.9" transform="translate(212.2 117.6) scale(0.09)" xlink:href="#Neues_Symbol"/><use width="138.9" height="138.9" transform="translate(218.15 126.8) scale(0.09)" xlink:href="#Neues_Symbol"/><use width="138.9" height="138.9" transform="translate(150.04 111.16) scale(0.12)" xlink:href="#Neues_Symbol"/><use width="138.9" height="138.9" transform="translate(122.53 156.39) scale(0.12)" xlink:href="#Neues_Symbol"/><use width="138.9" height="138.9" transform="translate(269.94 111.31) scale(0.12)" xlink:href="#Neues_Symbol"/><use width="138.9" height="138.9" transform="translate(296.6 156.39) scale(0.12)" xlink:href="#Neues_Symbol"/><use width="138.9" height="138.9" transform="translate(206.04 127.93) scale(0.09)" xlink:href="#Neues_Symbol"/><path class="cls-6" d="M219.87,210.88l3.53-1.83-.56-3.93-3.54,1.82Zm3-2.09-2.64,1.37-.42-2.95,2.64-1.37Z"/><path class="cls-6" d="M212.13,196.65l-2,4.89L214,205l2-4.88Zm1.64,7.51-3.09-2.75,1.63-4,3.09,2.75Z"/><path class="cls-6" d="M224.07,197.61l-4.23,2.19.67,4.72,4.23-2.19Zm-3.72,2.46,3.35-1.73.53,3.72-3.34,1.74Z"/><path class="cls-6" d="M227,210.68l-3.41.67,1.76,3,3.4-.67Zm-2.66,1,2.42-.47,1.25,2.13-2.43.48Z"/><path class="cls-6" d="M232.79,209l-3.24-1.59L227,210l3.24,1.59Zm-5,.81,1.85-1.82,2.33,1.14L230.13,211Z"/><path class="cls-6" d="M225.7,203.6l2.59-.43.44-2.59-2.58.43Zm.85-2.17,1.61-.27-.28,1.6-1.6.26Z"/><path class="cls-6" d="M221.47,214.38l.95,2.87,3,.05-.94-2.87Zm1.29,2.4-.63-1.92,2,0,.64,1.92Z"/><path class="cls-6" d="M208.83,212.73l-1.54,2.12,2.51.76,1.54-2.13Zm.79,2.33-1.56-.47,1-1.31,1.55.46Z"/><path class="cls-6" d="M216.55,214.22l.63-1.95L215.55,211l-.62,1.94Zm-.75-2.4.83.63-.32,1-.83-.63Z"/><path class="cls-6" d="M209.47,202.09l-3.42-.74.45,3.61,3.42.74Zm-2.54,2.48L206.6,202l2.45.53.32,2.62Z"/><path class="cls-6" d="M210.33,206.14l1.29,4.39,4.57.23-1.29-4.39Zm1.64,3.94-1-3.44,3.57.19,1,3.43Z"/><path class="cls-6" d="M218.79,190.12a23.19,23.19,0,0,0-22.49,28.8l.08,0c-2.33-18.64,12.4-27.44,22.36-27.44,10.27,0,20.18,9.23,20.18,21.79,0,3.58-3.87,17.82-14.95,17.39,0,0-2.23-2.58-3.63-3.93.26-2.49-.56-7.51-.63-8.54-.26-3.92,3.33-6.89,5.4-8.62l3-1.56-.53-3.68L224.3,206l.46,3.23a13.89,13.89,0,0,0-5.33,4.77c-.45-3-1.2-6.17-1.25-6.59l1.53-2.72-2.63-3-2,3.47,2.41,2.74c.23,1.15,1.59,6.95.31,9.68a13.1,13.1,0,0,0-7.64-6.49L209,207l-5.05-.25,1.42,4.86,5.06.25c2.83,1.09,7.07,6.39,7.2,9.43a12.93,12.93,0,0,1-.43,3.78,12.27,12.27,0,0,1-3.2-2.44c-.55-.86-1.36-2.13-2.07-2.07s-1.3,3.07.41,4.72,3.43,3.08,2.78,4.14-3.21,1.11-3.21,1.11a14.74,14.74,0,0,1-8.62-4.36c-4.31-4.24-5.25-2.53-5.25-2.53h0a23.18,23.18,0,1,0,20.76-33.5ZM227.23,205l.38,2.69L225.2,209l-.38-2.69Zm-10.07-2.5,2,2.24-1.46,2.59-2-2.23Zm-11.44,8.6-1.14-3.9,4,.21,1.15,3.9Z"/><path class="cls-6" d="M202.28,221.57c-1.09-.64-1,.72-1,.72l1.2,2.24a18.13,18.13,0,0,0,2.19,1.9C205.05,226.48,203.38,222.2,202.28,221.57Z"/><path class="cls-6" d="M208.17,226.34l.93,2.82a8.68,8.68,0,0,0,2.37.65c.28,0-1.18-3.65-2.3-4.24S208.17,226.34,208.17,226.34Z"/><path class="cls-6" d="M205.65,223.61c-1.13-.59-1,.77-1,.77l1.21,3a9.51,9.51,0,0,0,2.14,1.1C208.34,228.29,206.77,224.2,205.65,223.61Z"/><line class="cls-7" x1="217.96" y1="97.18" x2="217.96" y2="114.71"/><line class="cls-7" x1="217.96" y1="143.86" x2="217.96" y2="181.05"/><polygon class="cls-6" points="208.52 174.72 211.44 171.99 217.95 179.52 224.36 172.09 227.29 174.82 217.95 185.39 208.52 174.72"/><path class="cls-7" d="M134.3,176.81c7.4,17.68,21.15,31.33,37.95,37.21"/><path class="cls-7" d="M167,81.94c-22.64,10.55-38.58,35.66-38.58,65,0,1.65.07,3.27.16,4.89"/><polygon class="cls-6" points="155.84 73.36 154.62 77.17 166.93 82.03 162.18 93.71 165.9 95.2 172.25 79.53 155.84 73.36"/><polygon class="cls-6" points="181.55 73.36 180.33 77.17 192.64 82.03 187.89 93.71 191.6 95.2 197.96 79.53 181.55 73.36"/><path class="cls-7" d="M193.9,81.05a63.14,63.14,0,0,0-30.37,26.53"/><path class="cls-7" d="M155.42,131.84a64.85,64.85,0,0,0-.43,7.42,63,63,0,0,0,44.24,60.14"/><path class="cls-7" d="M301.75,176.81c-7.4,17.68-21.15,31.33-37.95,37.21"/><path class="cls-7" d="M269.09,81.94c22.65,10.55,38.58,35.66,38.58,65,0,1.65-.06,3.27-.16,4.89"/><polygon class="cls-6" points="280.2 73.36 281.43 77.17 269.12 82.03 273.87 93.71 270.15 95.2 263.8 79.53 280.2 73.36"/><polygon class="cls-6" points="255.6 73.36 256.82 77.17 244.51 82.03 249.27 93.71 245.55 95.2 239.2 79.53 255.6 73.36"/><path class="cls-7" d="M242.15,81.05a63.19,63.19,0,0,1,30.37,26.53"/><path class="cls-7" d="M280.63,131.84a64.85,64.85,0,0,1,.43,7.42,63,63,0,0,1-44.24,60.14"/></g></svg>