<svg xmlns="http://www.w3.org/2000/svg" xmlns:xlink="http://www.w3.org/1999/xlink" viewBox="0 0 583.04 600.58"><defs><style>.cls-1{fill:none;}.cls-2{clip-path:url(#clip-path);}.cls-3{opacity:0.3;}.cls-4{fill:#f0f0f0;}.cls-5{clip-path:url(#clip-path-4);}.cls-6{clip-path:url(#clip-path-7);}</style><clipPath id="clip-path" transform="translate(0)"><rect class="cls-1" y="17.54" width="583.04" height="583.04"/></clipPath><clipPath id="clip-path-4" transform="translate(0)"><rect class="cls-1" x="49.09" y="66.62" width="484.87" height="484.87"/></clipPath><clipPath id="clip-path-7" transform="translate(0)"><rect class="cls-1" x="100.35" y="117.89" width="382.34" height="382.34"/></clipPath></defs><g id="Layer_2" data-name="Layer 2"><g id="Layer_1-2" data-name="Layer 1"><g class="cls-2"><g class="cls-3"><g class="cls-2"><g class="cls-2"><path class="cls-4" d="M583,309.06c0-161-130.52-291.52-291.52-291.52S0,148.05,0,309.06,130.52,600.58,291.52,600.58,583,470.06,583,309.06" transform="translate(0)"/></g></g></g></g><g class="cls-5"><g class="cls-3"><g class="cls-5"><g class="cls-5"><path class="cls-4" d="M534,309.06c0-133.9-108.54-242.44-242.43-242.44S49.09,175.16,49.09,309.06,157.63,551.49,291.52,551.49,534,443,534,309.06" transform="translate(0)"/></g></g></g></g><g class="cls-6"><g class="cls-3"><g class="cls-6"><g class="cls-6"><path class="cls-4" d="M482.69,309.06c0-105.58-85.59-191.17-191.17-191.17S100.35,203.48,100.35,309.06s85.59,191.17,191.17,191.17,191.17-85.59,191.17-191.17" transform="translate(0)"/></g></g></g></g><image width="2995" height="2995" transform="translate(25.27) scale(0.18)" xlink:href="../../mlm-landing/src/imgs/borisrundtransparent.png"/></g></g></svg>