<svg xmlns="http://www.w3.org/2000/svg" viewBox="0 0 66.96 70.97"><defs><style>.cls-1,.cls-2,.cls-3{fill:#004628;}.cls-2{font-size:25.23px;}.cls-2,.cls-3{font-family:Sanchez-Regular, Sanchez Regular;}.cls-3{font-size:21.28px;}</style></defs><g id="Layer_2" data-name="Layer 2"><g id="Ebene_1" data-name="Ebene 1"><path class="cls-1" d="M23.27,71A23.27,23.27,0,1,1,46.54,47.7,23.3,23.3,0,0,1,23.27,71Zm0-40.13A16.86,16.86,0,1,0,40.13,47.7,16.87,16.87,0,0,0,23.27,30.84Z"/><path class="cls-1" d="M47.34,39.26A19.63,19.63,0,1,1,67,19.63,19.66,19.66,0,0,1,47.34,39.26Zm0-33.85A14.22,14.22,0,1,0,61.56,19.63,14.24,14.24,0,0,0,47.34,5.41Z"/><text class="cls-2" transform="translate(15.17 56.57)">$</text><text class="cls-3" transform="translate(40.5 27.12)">$</text></g></g></svg>