<svg xmlns="http://www.w3.org/2000/svg" xmlns:xlink="http://www.w3.org/1999/xlink" viewBox="0 0 63.89 61.12"><defs><style>.cls-1{fill:#004628;}.cls-2{fill:none;stroke:#004628;stroke-linecap:round;stroke-linejoin:round;stroke-width:5px;}</style><symbol id="Neues_Symbol_46" data-name="Neues Symbol 46" viewBox="0 0 76.34 84.88"><path class="cls-1" d="M76.33,9.28c0-.06,0-.12,0-.17,0-5-13.43-9.11-30-9.11s-30,4.08-30,9.11h0v9C8.89,19.77,4.05,22.44,4.05,25.46h0V41c0,2.18,2.53,4.18,6.75,5.75v6.58C4.2,55,0,57.47,0,60.28H0v15.5c0,5,13.43,9.1,30,9.1s30-4.07,30-9.1V65c6.6-1.67,10.81-4.19,10.81-7V42.64h0c0-.06,0-.12,0-.17,0-2.19-2.54-4.19-6.75-5.76V32c7.45-1.66,12.29-4.33,12.29-7.35V9.28ZM8.5,41.24l0,0L8.4,41.1s0,0,0,0a.26.26,0,0,1,0-.1V30.17c.46.23,1,.45,1.5.67l.34.14c.53.21,1.09.42,1.69.62l.18.06c.59.19,1.2.37,1.84.55l.23.06c.7.19,1.42.37,2.17.53l.17,0c1.57.35,3.26.65,5,.89h.07c1.82.26,3.73.45,5.72.59h0q3.27.24,6.75.24c10.9,0,20.43-1.76,25.69-4.4v2.58h0V41c0,.38-1.43,1.85-6,3.25a72,72,0,0,1-19.68,2.44,71.9,71.9,0,0,1-19.67-2.44,23.44,23.44,0,0,1-3.58-1.37h0a9.65,9.65,0,0,1-1.89-1.17h0A2.47,2.47,0,0,1,8.5,41.24ZM49.68,79A71.92,71.92,0,0,1,30,81.47,71.9,71.9,0,0,1,10.33,79c-4.59-1.4-6-2.87-6-3.25V65c5.26,2.64,14.8,4.4,25.69,4.4,1,0,2,0,2.94,0l.59,0c.93,0,1.85-.07,2.75-.13l.49,0c.85-.06,1.69-.13,2.51-.21l.31,0c.87-.09,1.72-.19,2.56-.3l.53-.07c.82-.12,1.63-.25,2.42-.39l.27-.05q1.1-.19,2.13-.42l.38-.08c.72-.17,1.41-.34,2.08-.52l.4-.11q1-.28,2-.6h0A26,26,0,0,0,55.69,65v.88h0v9.91C55.7,76.16,54.27,77.63,49.68,79ZM66.49,47.18V58c0,.38-1.43,1.86-6,3.25A71.64,71.64,0,0,1,40.8,63.65a71.51,71.51,0,0,1-19.67-2.44c-4.6-1.39-6-2.87-6-3.25V47.17A28.28,28.28,0,0,0,19.8,49L20,49c.39.11.78.23,1.2.33l.77.19.65.16,1.12.25.36.08,1.39.26.14,0,1.57.26h0q2.46.39,5.16.63h0c2,.17,4,.29,6.12.34.77,0,1.54,0,2.32,0C51.7,51.58,61.23,49.81,66.49,47.18ZM66,27.85c-.62.19-1.28.37-2,.54h0A76.52,76.52,0,0,1,46.33,30.3a71.48,71.48,0,0,1-19.67-2.45c-4.59-1.39-6-2.87-6-3.25V13.81c.48.24,1,.47,1.54.69l.3.13c.56.22,1.15.44,1.78.64l.07,0c1.36.44,2.86.84,4.48,1.2a83.73,83.73,0,0,0,17.52,1.72c1.8,0,3.55-.06,5.25-.15l1.58-.1h.07c2.57-.18,5-.47,7.29-.84l.27,0,1.1-.2.4-.07,1-.2.45-.1.92-.2.43-.11c.48-.11,1-.24,1.41-.36l.67-.19.57-.17.68-.22.5-.17.67-.24.45-.17.69-.28.35-.15c.33-.14.65-.29,1-.44V24.6C72,25,70.6,26.46,66,27.85Z"/></symbol></defs><g id="Layer_2" data-name="Layer 2"><g id="Ebene_1" data-name="Ebene 1"><use width="76.34" height="84.88" transform="translate(14.01 5.65) scale(0.65)" xlink:href="#Neues_Symbol_46"/><line class="cls-2" x1="9.1" y1="5.94" x2="9.1" y2="50.53"/><polyline class="cls-2" points="2.5 8.94 8.94 2.5 14.69 8.25"/></g></g></svg>