<svg xmlns="http://www.w3.org/2000/svg" viewBox="0 0 81.97 75.95"><defs><style>.cls-1{fill:#004628;}</style></defs><g id="Layer_2" data-name="Layer 2"><g id="Ebene_1" data-name="Ebene 1"><circle class="cls-1" cx="26.11" cy="12.02" r="12.02"/><path class="cls-1" d="M33.47,37.39V28.64H18.69s-11.45,3.61-14.26,7h0C-3.36,41,1.5,65.85,1.5,65.85l7.63-.32,1-9.68c2.33,5.35,4.41,9.68,4.41,9.68H37.9s1.24-2.59,2.89-6.24A36.37,36.37,0,0,1,33.47,37.39Z"/><path class="cls-1" d="M42.67,61.61l1,3.92h3.1A36.89,36.89,0,0,1,42.67,61.61Z"/><path class="cls-1" d="M80.45,22.86,56.2,12.79a2.5,2.5,0,0,0-1.9,0L30.05,22.86a2.5,2.5,0,0,0-1.53,2.29V37.39A41.45,41.45,0,0,0,54.31,75.77a2.52,2.52,0,0,0,1.87,0A41.43,41.43,0,0,0,82,37.39V25.15A2.49,2.49,0,0,0,80.45,22.86ZM77,37.39a36.5,36.5,0,0,1-21.77,33.4,36.5,36.5,0,0,1-21.78-33.4V26.8l21.78-9L77,26.8ZM52.51,45.73,63.15,35.09a2.47,2.47,0,1,1,3.5,3.5L54.26,51a2.49,2.49,0,0,1-3.5,0l-6.91-6.92a2.47,2.47,0,0,1,3.5-3.5Z"/></g></g></svg>