<svg xmlns="http://www.w3.org/2000/svg" viewBox="0 0 77.66 80.5"><defs><style>.cls-1{fill:#004628;}</style></defs><g id="Layer_2" data-name="Layer 2"><g id="Ebene_1" data-name="Ebene 1"><path class="cls-1" d="M40.82,70.38A26.43,26.43,0,1,1,65.46,45.73,26.47,26.47,0,0,1,40.82,70.38Zm0-47.17a20.86,20.86,0,1,0,19.1,19.08A20.89,20.89,0,0,0,40.78,23.21Z"/><path class="cls-1" d="M6.91,61.29A8.44,8.44,0,0,1,0,52.88V35.14a8.45,8.45,0,0,1,6.91-8.41,8.32,8.32,0,0,1,9.7,8.19V53.1A8.32,8.32,0,0,1,6.91,61.29Zm.51-29A2.76,2.76,0,0,0,5.57,35V53A2.74,2.74,0,1,0,11,53.1V34.92A2.74,2.74,0,0,0,7.42,32.32Z"/><path class="cls-1" d="M68,61.29a8.44,8.44,0,0,1-6.91-8.41V35.14A8.45,8.45,0,0,1,68,26.73a8.31,8.31,0,0,1,9.7,8.19V53.1A8.31,8.31,0,0,1,68,61.29Zm.51-29A2.76,2.76,0,0,0,66.62,35V53a2.74,2.74,0,1,0,5.48.06V34.92A2.75,2.75,0,0,0,68.47,32.32Z"/><path class="cls-1" d="M73.12,28.91H67.55C67.55,16,54.88,5.57,39.32,5.57S11.09,16,11.09,28.91H5.52C5.52,13,20.68,0,39.32,0S73.12,13,73.12,28.91Z"/><rect class="cls-1" x="42.85" y="72.86" width="15.09" height="7.63" rx="3.82"/><path class="cls-1" d="M55.31,77.75l-.77-2.26c12.79-4.4,13.37-15.79,13.39-16.27l2.4.08A21.51,21.51,0,0,1,55.31,77.75Z"/></g></g></svg>