<svg xmlns="http://www.w3.org/2000/svg" width="24.701" height="24.035" viewBox="0 0 24.701 24.035">
  <path id="Path_25" data-name="Path 25" d="M54.369,470.494a12.022,12.022,0,1,0,12.351,12.017A12.188,12.188,0,0,0,54.369,470.494Zm-.779,2.143c.262-.02.525-.029.779-.029s.517.01.779.029v3.12a7.238,7.238,0,0,0-1.558,0Zm-5.933,7.989-2.963-1.195a9.712,9.712,0,0,1,.6-1.4l2.963,1.195A6.669,6.669,0,0,0,47.656,480.626Zm1.253-2.353-2.266-2.207a10.189,10.189,0,0,1,1.1-1.073l2.267,2.206A6.988,6.988,0,0,0,48.909,478.272Zm.817-4.576a10.181,10.181,0,0,1,1.437-.587l1.24,2.878a7.035,7.035,0,0,0-1.437.587Zm4.643,14.331a2.5,2.5,0,0,1-2.531-2.463,2.453,2.453,0,0,1,1.307-2.156l1.224-5.58,1.224,5.58a2.454,2.454,0,0,1,1.308,2.156A2.5,2.5,0,0,1,54.369,488.028Zm1.939-12.047,1.228-2.883a10.371,10.371,0,0,1,1.44.582l-1.228,2.882A7.033,7.033,0,0,0,56.308,475.981Zm2.418,1.218,2.267-2.206a10.189,10.189,0,0,1,1.1,1.073l-2.267,2.206A6.975,6.975,0,0,0,58.726,477.2Zm2.325,3.326a6.63,6.63,0,0,0-.621-1.392l2.944-1.24a9.778,9.778,0,0,1,.62,1.392Z" transform="translate(-42.018 -470.494)" fill="#fff"/>
</svg>
