<svg xmlns="http://www.w3.org/2000/svg" width="24.701" height="24.035" viewBox="0 0 24.701 24.035">
  <path id="Path_48" data-name="Path 48" d="M54.369,700.05a12.022,12.022,0,1,0,12.351,12.017A12.188,12.188,0,0,0,54.369,700.05ZM55.4,717.022v1.055H54.369v-1a7.285,7.285,0,0,1-3.088-.728l.468-1.646a6.438,6.438,0,0,0,3.319.541c1.183-.26,1.424-1.444.117-2.014-.958-.435-3.888-.806-3.888-3.248,0-1.365,1.069-2.587,3.071-2.854v-1.069H55.4v1.019a9.755,9.755,0,0,1,2.513.421l-.373,1.649a6.746,6.746,0,0,0-2.514-.466c-1.532.087-1.667,1.378-.6,1.919,1.762.806,4.059,1.4,4.059,3.552C58.488,715.874,57.1,716.789,55.4,717.022Z" transform="translate(-42.018 -700.05)" fill="#fff"/>
</svg>
