<?xml version="1.0" encoding="utf-8"?>
<!-- Generator: Adobe Illustrator 23.0.4, SVG Export Plug-In . SVG Version: 6.00 Build 0)  -->
<svg version="1.1" id="Layer_1" xmlns="http://www.w3.org/2000/svg" xmlns:xlink="http://www.w3.org/1999/xlink" x="0px" y="0px"
	 viewBox="0 0 129.7 111.7" style="enable-background:new 0 0 129.7 111.7;" xml:space="preserve">
<style type="text/css">
	.st0{fill:#C2C2C2;}
	.st1{fill:#2EA031;}
</style>
<g>
	<path class="st0" d="M64.9,22.5c-5-10.9-16-18.6-28.8-18.6C18.7,3.9,4.5,18.1,4.5,35.5c0,3.7,0.6,7.2,1.8,10.5
		c0.7,2.1,1.7,4.1,2.9,6h36.1L56.9,26l12.9,43.6L78.6,52h41.9c1.1-1.8,2.1-3.7,2.8-5.8c1.2-3.3,1.9-7,1.9-10.7
		c0-17.4-14.2-31.6-31.6-31.6C80.9,3.9,69.8,11.5,64.9,22.5z"/>
	<path class="st0" d="M81.4,56.6L68.6,82.2L56,39.3l-7.7,17.2H12.7c1,1.1,2,2.1,3,3l48.2,47.8c0.3,0.3,0.7,0.4,1.1,0.4
		c0.4,0,0.8-0.1,1.1-0.4l50-49.6l0,0c0.4-0.4,0.7-0.8,1-1.2H81.4z"/>
	<path class="st1" d="M69.8,69.6L56.9,26L45.3,51.9H9.2c0.9,1.4,1.9,2.8,3,4.1l0.5,0.5h35.6L56,39.3l12.6,42.8l12.8-25.6H117h0.2
		c1.3-1.4,2.4-3,3.4-4.6h-0.1H78.6L69.8,69.6z"/>
</g>
</svg>
