<?xml version="1.0" encoding="utf-8"?>
<!-- Generator: Adobe Illustrator 23.0.4, SVG Export Plug-In . SVG Version: 6.00 Build 0)  -->
<svg version="1.1" id="Layer_1" xmlns="http://www.w3.org/2000/svg" xmlns:xlink="http://www.w3.org/1999/xlink" x="0px" y="0px"
	 viewBox="0 0 138.9 128.7" style="enable-background:new 0 0 138.9 128.7;" xml:space="preserve">
<style type="text/css">
	.st0{fill:#C2C2C2;}
	.st1{fill:#2EA031;}
</style>
<g>
	<path class="st0" d="M30.8,106.2c8.9,9.1,20.4,15.2,32.8,17.3c-8.1-7.1-14.5-15.6-19.1-25.2C39.7,100.5,35,103.1,30.8,106.2z"/>
	<path class="st0" d="M14.9,75.8c1.9,9.9,6.3,19.1,12.9,27c4.6-3.4,9.6-6.3,15-8.7c-3.3-8-5.1-16.6-5.6-25.4l-14,0
		C22.2,72.6,18.9,75.5,14.9,75.8z"/>
	<path class="st0" d="M71.5,87.6V68.8l-29.8,0c0.5,8.2,2.2,16.2,5.3,23.7C54.8,89.6,63,87.9,71.5,87.6z"/>
	<path class="st0" d="M71.5,124V92.1c-7.8,0.3-15.4,1.8-22.7,4.5C53.9,107.3,61.7,116.8,71.5,124z"/>
	<path class="st0" d="M37,30.4c1.7-1.7,4-2.9,6.6-2.9c0.8,0,1.5,0.1,2.3,0.3c4.4-8.5,10.5-16.2,17.8-22.6
		c-13.5,2.3-25.8,9.2-34.9,19.5C31.3,26.8,34.1,28.7,37,30.4z"/>
	<path class="st0" d="M43.8,45.7c-1.5,6-2.3,12.2-2.3,18.5l30,0v-19c-7-0.3-13.8-1.5-20.3-3.5C49.5,44.1,46.9,45.6,43.8,45.7z"/>
	<path class="st0" d="M25.8,28.3C19.3,37,15.3,47,14.1,57.7c0,0,0.1,0,0.1,0c4.1,0,7.6,2.8,8.7,6.5l14,0c0-6.7,0.8-13.2,2.4-19.6
		c-2.9-1.5-4.9-4.5-4.9-8c0-0.8,0.1-1.5,0.3-2.3C31.7,32.6,28.7,30.5,25.8,28.3z"/>
	<path class="st0" d="M100.6,103.2c-0.3,0-0.5-0.1-0.8-0.1c-4.3,7.7-10,14.6-16.8,20.5c13.1-2,25.3-8.5,34.4-18.2
		c-3.1-2.2-6.4-4.1-9.8-5.8C106,101.8,103.5,103.2,100.6,103.2z"/>
	<path class="st0" d="M120.4,102c7.7-9.6,12.2-21,13.1-33.3l-23.9,0c-0.3,6.3-1.4,12.5-3.2,18.5c1.9,1.7,3.1,4.1,3.1,6.8
		c0,0.5-0.1,1-0.1,1.4C113.3,97.4,117,99.5,120.4,102z"/>
	<path class="st0" d="M105.7,38.9c2.7,8.1,4.1,16.6,4.2,25.3l23.9,0c0-12.7-4-24.7-11.4-35C117.2,33.1,111.6,36.4,105.7,38.9z"/>
	<path class="st0" d="M71.5,40.7V4.8c-9.1,6.8-16.5,15.5-21.7,25.3c1.7,1.7,2.8,4,2.8,6.6c0,0.2-0.1,0.5-0.1,0.7
		C58.7,39.3,65,40.4,71.5,40.7z"/>
	<path class="st0" d="M76,40.7c8.2-0.1,16.2-1.6,23.9-4.4C95,24.1,86.7,13.4,76,5.3V40.7z"/>
	<path class="st0" d="M104.1,34.6c5.5-2.4,10.6-5.4,15.4-9C110.1,14.5,97.2,7.3,83,5.1C92.3,13.2,99.6,23.4,104.1,34.6z"/>
	<path class="st0" d="M76,64.2l29.3,0c0-8.1-1.3-16-3.8-23.6c-8.2,3-16.7,4.5-25.5,4.7V64.2z"/>
	<path class="st0" d="M76,92v31.4c7.9-6,14.5-13.5,19.4-21.9c-2.4-1.6-3.9-4.4-3.9-7.5c0-0.1,0-0.1,0-0.1C86.4,92.8,81.2,92.1,76,92
		z"/>
	<path class="st0" d="M92.7,89.6c1.6-2.7,4.5-4.6,7.9-4.6c0.6,0,1.2,0.1,1.8,0.2c1.5-5.3,2.5-10.8,2.8-16.4l-29.2,0v18.8
		C81.7,87.6,87.3,88.3,92.7,89.6z"/>
	<path class="st1" d="M43.6,27.6c-2.6,0-4.9,1.1-6.6,2.9c-1,1.1-1.8,2.5-2.2,4c-0.2,0.7-0.3,1.5-0.3,2.3c0,3.5,2,6.5,4.9,8
		c1.3,0.7,2.7,1.1,4.2,1.1c0.1,0,0.2,0,0.3,0c3-0.1,5.7-1.7,7.3-4c0.8-1.2,1.3-2.7,1.5-4.3c0-0.2,0.1-0.5,0.1-0.7
		c0-2.6-1.1-4.9-2.8-6.6c-1.1-1-2.5-1.8-4-2.2C45.1,27.7,44.3,27.6,43.6,27.6z"/>
	<path class="st1" d="M14.2,57.7C14.2,57.7,14.2,57.7,14.2,57.7c-5.1,0-9.1,4.1-9.1,9.1c0,5,4.1,9.1,9.1,9.1c0.2,0,0.4-0.1,0.7-0.1
		c4-0.3,7.3-3.2,8.2-7c0.1-0.6,0.2-1.3,0.2-2c0-0.9-0.2-1.7-0.4-2.6C21.8,60.5,18.3,57.7,14.2,57.7z"/>
	<path class="st1" d="M102.4,85.2c-0.6-0.1-1.2-0.2-1.8-0.2c-3.4,0-6.3,1.9-7.9,4.6c-0.7,1.3-1.2,2.8-1.2,4.4c0,0,0,0.1,0,0.1
		c0,3.1,1.6,5.8,3.9,7.5c1.3,0.9,2.8,1.4,4.4,1.5c0.3,0,0.5,0.1,0.8,0.1c2.9,0,5.4-1.4,7.1-3.5c0.9-1.2,1.6-2.6,1.8-4.2
		c0.1-0.5,0.1-0.9,0.1-1.4c0-2.7-1.2-5.2-3.1-6.8C105.4,86.2,104,85.5,102.4,85.2z"/>
</g>
<g>
	<path class="st0" d="M109.5-301.6c-8.2-7.5-20.3-12.6-33.2-12.9L76-267.1L109.5-301.6z"/>
	<path class="st0" d="M67.4-314.8c-33.6,0-58.3,27.2-58.3,60.8c0,33.6,27.2,60.8,60.8,60.8c23.5,0,45.4-13.9,53.5-31.8L68.6-254
		v-60.7C68.2-314.8,67.8-314.8,67.4-314.8z"/>
	<polygon class="st1" points="95,-249 107.5,-288.8 98.7,-279.8 89.9,-251.7 	"/>
	<polygon class="st1" points="88.4,-252.5 96.2,-277.1 87.4,-268.1 83.4,-255.3 	"/>
	<path class="st1" d="M114.8-238.5l12.3-39.2c-1-2.5-2.3-5-3.6-7.3l-13.8,43.8L114.8-238.5z"/>
	<path class="st1" d="M121.3-234.9l9.3-29.6c-0.5-3.6-1.4-7.2-2.6-10.6l-11.8,37.5L121.3-234.9z"/>
	<path class="st1" d="M125.8-232.5c3.8-7.4,5.3-16.1,5.3-24.9c0-1,0-1.9-0.1-2.9l-8.2,26.2L125.8-232.5z"/>
	<path class="st1" d="M96.5-248.2l5.1,2.7l15.3-48.6c-0.7-0.8-1.4-1.5-2.1-2.2l-4.7,4.8L96.5-248.2z"/>
	<polygon class="st1" points="84.8,-265.5 77.8,-258.3 81.9,-256.1 	"/>
	<path class="st1" d="M108.2-242l14.1-44.9c-1.3-2-2.7-3.9-4.1-5.7l-15,47.9L108.2-242z"/>
</g>
<g>
	<path class="st0" d="M64.6-577.6c-5-10.9-16-18.6-28.8-18.6c-17.4,0-31.6,14.2-31.6,31.6c0,3.7,0.6,7.2,1.8,10.5
		c0.7,2.1,1.7,4.1,2.9,6H45L56.6-574l12.9,43.6l8.8-17.6h41.9c1.1-1.8,2.1-3.7,2.8-5.8c1.2-3.3,1.9-7,1.9-10.7
		c0-17.4-14.2-31.6-31.6-31.6C80.6-596.1,69.6-588.5,64.6-577.6z"/>
	<path class="st0" d="M81.2-543.4l-12.8,25.6l-12.6-42.8L48-543.4H12.4c1,1.1,2,2.1,3,3l48.2,47.8c0.3,0.3,0.7,0.4,1.1,0.4
		c0.4,0,0.8-0.1,1.1-0.4l50-49.6l0,0c0.4-0.4,0.7-0.8,1-1.2H81.2z"/>
	<path class="st1" d="M69.5-530.4L56.6-574L45-548.1H8.9c0.9,1.4,1.9,2.8,3,4.1l0.5,0.5H48l7.7-17.2l12.6,42.8l12.8-25.6h35.6h0.2
		c1.3-1.4,2.4-3,3.4-4.6h-0.1H78.3L69.5-530.4z"/>
</g>
</svg>
