<?xml version="1.0" encoding="utf-8"?>
<!-- Generator: Adobe Illustrator 23.0.4, SVG Export Plug-In . SVG Version: 6.00 Build 0)  -->
<svg version="1.1" id="Layer_1" xmlns="http://www.w3.org/2000/svg" xmlns:xlink="http://www.w3.org/1999/xlink" x="0px" y="0px"
	 viewBox="0 0 831.77 284.42" style="enable-background:new 0 0 831.77 284.42;" xml:space="preserve">
<style type="text/css">
	.st0{fill:#FFFFFF;}
</style>
<g>
	<g>
		<g>
			<g>
				<path class="st0" d="M269.57,78.89C245.54,30.55,196.19-0.02,142.2,0C63.61,0.06-0.06,63.82,0,142.42
					c0.01,11.55,1.42,23.05,4.21,34.25l0.5-0.12C-9.55,62.22,80.8,8.26,141.87,8.26c62.99,0,123.77,56.61,123.77,133.63
					c0,21.94-23.69,109.29-91.67,106.68c0,0-13.72-15.82-22.29-24.14c1.6-15.23-3.43-46-3.85-52.37
					c-1.57-24.01,20.39-42.32,33.13-52.87l-2.16-1.84c-14.64,8.44-25.57,17.38-32.68,29.27c-2.8-18.09-7.38-37.84-7.7-40.45
					l-3.89,3.07c1.37,7.08,9.71,42.61,1.91,59.36c-9.44-17.86-27.65-34.91-46.91-39.78l1.3,4.47c17.36,6.71,43.4,39.19,44.19,57.79
					c0.27,7.83-0.62,15.65-2.64,23.21c-8.53-4.97-17.37-11.42-19.66-14.96c-3.34-5.22-8.34-13.06-12.69-12.69
					c-4.35,0.37-8.02,18.8,2.59,28.94c10.61,10.14,21.03,18.87,17.04,25.37c-3.99,6.5-19.68,6.81-19.68,6.81
					c-14.15-1.24-34.89-8.96-52.87-26.7c-26.42-26.05-32.2-15.56-32.2-15.56c34.96,70.32,120.31,98.99,190.63,64.03
					C275.87,234.56,304.53,149.21,269.57,78.89z"/>
				<path class="st0" d="M40.94,192.91c-6.71-3.89-6.33,4.45-6.33,4.45l7.4,13.76c0,0,11.79,11.49,13.37,11.68
					C57.92,223.02,47.66,196.81,40.94,192.91z"/>
				<path class="st0" d="M77.02,222.18l5.73,17.31c0,0,8.1,3.54,14.57,4c1.71,0.12-7.27-22.41-14.15-26.02
					C76.27,213.87,77.02,222.18,77.02,222.18z"/>
				<path class="st0" d="M61.57,205.46c-6.88-3.62-6.14,4.72-6.14,4.72l7.4,18.16c0,0,11.62,7.37,13.12,6.75
					C78.11,234.17,68.43,209.08,61.57,205.46z"/>
			</g>
		</g>
		<path class="st0" d="M137.45,113.4l-20.09-19l12.73-24.54l20.09,19L137.45,113.4z M123.74,93.32l12.29,11.62l7.79-15.01
			l-12.29-11.62L123.74,93.32z"/>
		<path class="st0" d="M154.4,83.72L133.18,58.9l18.02-27.24l21.23,24.82L154.4,83.72z M139.63,58.5l14.25,16.66l12.09-18.28
			l-14.25-16.66L139.63,58.5z"/>
		<path class="st0" d="M117.03,127.83l-21.93-11.8l5.31-24.33l21.93,11.8L117.03,127.83z M100.97,113.33l12.48,6.71l3.02-13.84
			l-12.48-6.71L100.97,113.33z"/>
		<path class="st0" d="M116.28,81.26l-23.7-21.62l14.26-28.74l23.7,21.62L116.28,81.26z M98.94,58.46l15.77,14.38l9.48-19.12
			l-15.77-14.38L98.94,58.46z"/>
		<path class="st0" d="M88.11,160.4l-17.62-6.13l10.74-15.25l17.62,6.13L88.11,160.4z M78.66,151.65l7.47,2.6l4.56-6.47l-7.47-2.6
			L78.66,151.65z"/>
		<path class="st0" d="M185.03,153.35l-11.34-21.66l23.95-4.94l11.34,21.66L185.03,153.35z M181.44,135.36l6.36,12.15l13.43-2.77
			l-6.36-12.15L181.44,135.36z"/>
		<path class="st0" d="M164.26,165.41l-5.58-16.99l17.87-0.69l5.58,16.99L164.26,165.41z M165.72,153.31l2.23,6.79l7.14-0.28
			l-2.23-6.79L165.72,153.31z"/>
		<path class="st0" d="M206.07,123.23l-29.83-2.58l10.69-27.97l29.83,2.58L206.07,123.23z M183.5,116.1l19.13,1.65l6.86-17.94
			l-19.13-1.65L183.5,116.1z"/>
		<path class="st0" d="M149.45,125.19l-3.01-23.53l21.79-9.37l3.01,23.53L149.45,125.19z M152.05,104.87l1.65,12.87l11.92-5.13
			l-1.65-12.87L152.05,104.87z"/>
		<path class="st0" d="M171.51,90.16l4.33-31.56l31.53-4.53l-4.33,31.56L171.51,90.16z M180.42,63.16l-2.87,20.92l20.91-3
			l2.87-20.92L180.42,63.16z"/>
		<path class="st0" d="M96.58,134.34l-39.4-0.96l-9.92-38.14l39.4,0.96L96.58,134.34z M61.2,128.31l28.66,0.7l-7.22-27.75
			l-28.66-0.7L61.2,128.31z"/>
		<path class="st0" d="M94.04,91.93l-29.68-5.4l-2.98-30.02l29.68,5.4L94.04,91.93z M69.12,82.15l19.11,3.48L86.32,66.3L67.2,62.82
			L69.12,82.15z"/>
		<path class="st0" d="M130.01,148.07l-13.56-9.96l5.84-15.77l13.56,9.96L130.01,148.07z M122.65,136.25l4.9,3.6l2.11-5.7l-4.9-3.6
			L122.65,136.25z"/>
	</g>
	<g>
		<path class="st0" d="M329.28,132.27c5.87,3.19,12.55,4.81,19.83,4.81c5.91,0,11.4-1.04,16.31-3.11c4.78-2.01,8.88-4.93,12.19-8.69
			l-8.2-7.81c-5.31,5.65-11.89,8.51-19.58,8.51c-5.07,0-9.67-1.13-13.69-3.35c-4.03-2.22-7.21-5.36-9.47-9.31
			c-2.26-3.95-3.4-8.48-3.4-13.49c0-5,1.14-9.54,3.4-13.49c2.26-3.95,5.44-7.08,9.47-9.31c4.02-2.22,8.62-3.35,13.69-3.35
			c7.68,0,14.27,2.83,19.58,8.41l8.2-7.71c-3.31-3.76-7.4-6.69-12.14-8.69c-4.88-2.06-10.35-3.11-16.26-3.11
			c-7.29,0-13.96,1.62-19.83,4.81c-5.87,3.19-10.55,7.66-13.91,13.29c-3.36,5.63-5.07,12.07-5.07,19.14
			c0,7.08,1.69,13.52,5.02,19.14C318.75,124.61,323.41,129.08,329.28,132.27z"/>
		<path class="st0" d="M435.5,112.01c4.92-1.91,8.74-4.85,11.37-8.74c2.62-3.89,3.96-8.6,3.96-13.99c0-5.26-1.24-9.87-3.7-13.69
			c-2.45-3.82-6.04-6.79-10.65-8.84c-4.63-2.06-10.15-3.1-16.41-3.1h-29.71v72.39h12.77V114.7h16.94c1.24,0,2.17-0.03,2.78-0.1
			l0.24-0.03l14.97,21.47h13.64l-16.69-23.84L435.5,112.01z M433.19,100.42c-3.13,2.6-7.76,3.91-13.76,3.91h-16.31V74.33h16.31
			c6,0,10.62,1.3,13.75,3.86c3.15,2.58,4.75,6.31,4.75,11.09C437.94,94.06,436.35,97.81,433.19,100.42z"/>
		<path class="st0" d="M477.64,132.27c5.91,3.19,12.63,4.81,19.99,4.81c7.36,0,14.08-1.62,19.99-4.81
			c5.9-3.19,10.6-7.66,13.96-13.29c3.36-5.63,5.07-12.07,5.07-19.14c0-7.07-1.7-13.51-5.07-19.14c-3.36-5.63-8.06-10.1-13.96-13.29
			c-5.91-3.19-12.64-4.81-19.99-4.81c-7.36,0-14.08,1.62-19.99,4.81c-5.9,3.19-10.6,7.68-13.96,13.34
			c-3.36,5.66-5.07,12.08-5.07,19.09s1.71,13.43,5.07,19.09C467.04,124.59,471.73,129.08,477.64,132.27z M474.89,86.41
			c2.26-3.99,5.41-7.14,9.36-9.36c3.95-2.22,8.45-3.35,13.38-3.35c4.93,0,9.43,1.13,13.38,3.35c3.95,2.22,7.1,5.37,9.36,9.36
			c2.26,3.99,3.4,8.51,3.4,13.43c0,4.93-1.14,9.45-3.4,13.43c-2.26,3.99-5.41,7.14-9.36,9.36c-3.95,2.22-8.45,3.35-13.38,3.35
			c-4.93,0-9.43-1.13-13.38-3.35c-3.95-2.22-7.1-5.37-9.36-9.36c-2.26-3.98-3.4-8.5-3.4-13.43
			C471.49,94.91,472.63,90.39,474.89,86.41z"/>
		<polygon class="st0" points="618.23,120.5 599.42,63.65 587.46,63.65 568.23,120.18 549.74,63.65 536.49,63.65 560.48,136.04 
			574.43,136.04 593.14,80.98 611.52,136.04 625.36,136.04 649.36,63.65 637.25,63.65 		"/>
		<path class="st0" d="M710.27,131.53c5.97-2.98,10.66-7.26,13.95-12.71c3.29-5.45,4.96-11.84,4.96-18.98
			c0-7.14-1.67-13.53-4.96-18.98c-3.29-5.45-7.98-9.73-13.95-12.71c-5.98-2.99-12.92-4.51-20.63-4.51h-31.59v72.39h31.59
			C697.34,136.04,704.28,134.52,710.27,131.53z M670.81,125.36V74.33h18.19c5.41,0,10.24,1.05,14.36,3.13
			c4.13,2.08,7.36,5.1,9.58,8.95c2.22,3.85,3.35,8.37,3.35,13.44c0,5.07-1.13,9.59-3.35,13.44c-2.23,3.85-5.45,6.86-9.58,8.95
			c-4.12,2.08-8.95,3.13-14.36,3.13H670.81z"/>
		<path class="st0" d="M336.32,161.72c4.05-2.18,8.75-3.29,13.95-3.29c7.82,0,14.61,2.76,20.19,8.2l8.01-7.81
			c-3.31-3.69-7.43-6.55-12.24-8.49c-4.95-1.99-10.53-3-16.58-3c-7.43,0-14.21,1.62-20.15,4.81c-5.94,3.19-10.65,7.66-14.01,13.29
			c-3.36,5.63-5.07,12.07-5.07,19.14c0,7.08,1.7,13.51,5.07,19.14c3.36,5.63,8.06,10.1,13.96,13.29c5.91,3.19,12.63,4.81,19.99,4.81
			c5.23,0,10.4-0.8,15.36-2.39c4.88-1.56,9.22-3.82,12.89-6.71v-18.18v-10.39h-12.04h-15.55v10.39h15.55v12.23l-0.21,0.12
			c-4.37,2.54-9.5,3.82-15.27,3.82c-5.14,0-9.8-1.14-13.85-3.4c-4.06-2.26-7.28-5.41-9.57-9.36c-2.29-3.95-3.45-8.45-3.45-13.39
			c0-5.07,1.16-9.64,3.45-13.6C329.04,167.03,332.26,163.91,336.32,161.72z"/>
		<path class="st0" d="M435.5,196.74c4.92-1.91,8.74-4.85,11.37-8.74c2.62-3.89,3.96-8.6,3.96-13.99c0-5.26-1.24-9.87-3.7-13.69
			c-2.45-3.82-6.04-6.79-10.65-8.84c-4.63-2.06-10.15-3.1-16.41-3.1h-29.71v72.39h12.77v-21.34h16.94c1.24,0,2.17-0.03,2.78-0.1
			l0.24-0.03l14.97,21.47h13.64l-16.69-23.84L435.5,196.74z M433.19,185.15c-3.13,2.6-7.76,3.91-13.76,3.91h-16.31v-30.01h16.31
			c6,0,10.62,1.3,13.75,3.86c3.15,2.58,4.75,6.31,4.75,11.09C437.94,178.79,436.35,182.54,433.19,185.15z"/>
		<path class="st0" d="M517.62,152.15c-5.91-3.19-12.64-4.81-19.99-4.81c-7.36,0-14.08,1.62-19.99,4.81
			c-5.9,3.19-10.6,7.68-13.96,13.34c-3.36,5.66-5.07,12.08-5.07,19.09s1.71,13.43,5.07,19.09c3.36,5.66,8.06,10.15,13.96,13.34
			c5.91,3.19,12.63,4.81,19.99,4.81c7.36,0,14.08-1.62,19.99-4.81c5.9-3.19,10.6-7.66,13.96-13.29c3.36-5.63,5.07-12.07,5.07-19.14
			c0-7.07-1.7-13.51-5.07-19.14C528.22,159.81,523.52,155.34,517.62,152.15z M520.37,198.01c-2.26,3.99-5.41,7.14-9.36,9.36
			c-3.95,2.22-8.45,3.35-13.38,3.35c-4.93,0-9.43-1.13-13.38-3.35c-3.95-2.22-7.1-5.37-9.36-9.36c-2.26-3.98-3.4-8.5-3.4-13.43
			c0-4.93,1.14-9.45,3.4-13.43c2.26-3.99,5.41-7.14,9.36-9.36c3.95-2.22,8.45-3.35,13.38-3.35c4.93,0,9.43,1.13,13.38,3.35
			c3.95,2.22,7.1,5.37,9.36,9.36c2.26,3.99,3.4,8.51,3.4,13.43C523.77,189.51,522.63,194.03,520.37,198.01z"/>
		<polygon class="st0" points="618.23,205.23 599.42,148.38 587.46,148.38 568.23,204.91 549.74,148.38 536.49,148.38 
			560.48,220.77 574.43,220.77 593.13,165.71 611.52,220.77 625.36,220.77 649.36,148.38 637.25,148.38 		"/>
		<rect x="658.04" y="148.38" class="st0" width="12.77" height="72.39"/>
		<polygon class="st0" points="740.82,198.7 699.84,148.38 689.25,148.38 689.25,220.77 701.92,220.77 701.92,170.45 742.9,220.77 
			753.49,220.77 753.49,148.38 740.82,148.38 		"/>
		<path class="st0" d="M789.62,161.72c4.05-2.18,8.75-3.29,13.95-3.29c7.82,0,14.61,2.76,20.19,8.2l8.01-7.81
			c-3.31-3.69-7.43-6.55-12.24-8.49c-4.95-1.99-10.53-3-16.58-3c-7.43,0-14.21,1.62-20.15,4.81c-5.94,3.19-10.65,7.66-14.01,13.29
			c-3.36,5.63-5.07,12.07-5.07,19.14c0,7.08,1.7,13.51,5.07,19.14c3.36,5.63,8.06,10.1,13.96,13.29c5.91,3.19,12.63,4.81,19.99,4.81
			c5.23,0,10.4-0.8,15.36-2.39c4.88-1.56,9.22-3.82,12.89-6.71v-18.18v-10.39h-12.04h-15.55v10.39h15.55v12.23l-0.21,0.12
			c-4.37,2.54-9.5,3.82-15.27,3.82c-5.14,0-9.8-1.14-13.85-3.4c-4.06-2.26-7.28-5.41-9.57-9.36c-2.29-3.95-3.45-8.45-3.45-13.39
			c0-5.07,1.16-9.64,3.45-13.6C782.34,167.03,785.56,163.91,789.62,161.72z"/>
	</g>
</g>
</svg>
