<svg xmlns="http://www.w3.org/2000/svg" width="24.701" height="24.035" viewBox="0 0 24.701 24.035">
  <path id="Path_46" data-name="Path 46" d="M56.352,799.777a12.74,12.74,0,0,1-2.016.16,12.021,12.021,0,1,1,12.317-12.017,11.787,11.787,0,0,1-.166,1.974l-1.973-.676a9.824,9.824,0,0,0,.086-1.3,10.267,10.267,0,1,0-10.264,10.015,10.6,10.6,0,0,0,1.367-.088Zm-1.207-10.016a2.108,2.108,0,0,1-.809.161,2,2,0,1,1,2.052-2,1.926,1.926,0,0,1-.1.6l10.017,3.431-3.769,1.929,4.179,4.179-1.929,1.83-4.208-4.221-2.23,3.626Zm-.1,6.14q-.354.03-.713.03a8.014,8.014,0,1,1,8.211-8.012q0,.311-.024.616l-1.008-.345.005-.271a7.188,7.188,0,1,0-7.185,7.01l.383-.01Zm-1-2.982a5.012,5.012,0,1,1,5.4-5.436l-1.091-.374a4.117,4.117,0,0,0-8.128.81,4.041,4.041,0,0,0,3.466,3.958Z" transform="translate(-42.018 -775.902)" fill="#fff" fill-rule="evenodd"/>
</svg>
