<svg xmlns="http://www.w3.org/2000/svg" width="20.584" height="24.035" viewBox="0 0 20.584 24.035">
  <path id="Path_45" data-name="Path 45" d="M54.369,862.769c5.5,0,10.292-2.018,10.292-4.507s-4.791-4.507-10.292-4.507-10.292,2.018-10.292,4.507S48.869,862.769,54.369,862.769Zm.192-4.025c-.615-.18-2.5-.333-2.5-1.352,0-.569.688-1.076,1.973-1.189v-.445H54.7v.423a9.376,9.376,0,0,1,1.615.18l-.241.686a6.815,6.815,0,0,0-1.457-.2l-.149,0c-.99.04-1.071.575-.384.8,1.124.338,2.606.586,2.606,1.481,0,.715-.892,1.1-1.99,1.194v.441h-.661v-.417a6.838,6.838,0,0,1-1.981-.3l.3-.687a7.418,7.418,0,0,0,1.7.253,3.115,3.115,0,0,0,.429-.028C55.248,859.477,55.4,858.98,54.561,858.744Zm-.192,16.042c3.893,0,7.933-.97,10.292-2.807v1.3c0,2.489-4.791,4.507-10.292,4.507s-10.292-2.018-10.292-4.507v-1.306C46.436,873.816,50.475,874.786,54.369,874.786Zm0-10.015c3.893,0,7.933-.97,10.292-2.807v1.3c0,2.489-4.791,4.507-10.292,4.507s-10.292-2.018-10.292-4.507v-1.3C46.436,863.8,50.475,864.772,54.369,864.772Zm0,5.007c3.893,0,7.933-.97,10.292-2.807v1.3c0,2.489-4.791,4.507-10.292,4.507s-10.292-2.018-10.292-4.507v-1.306C46.436,868.809,50.475,869.779,54.369,869.779Z" transform="translate(-44.077 -853.756)" fill="#fff"/>
</svg>
