<svg xmlns="http://www.w3.org/2000/svg" viewBox="0 0 3749.4 832.38"><defs><style
    >.cls-1,.cls-27{fill:none;stroke:#2ea031;stroke-miterlimit:10;}.cls-1{stroke-width:5px;}.cls-2,.cls-24,.cls-3,.cls-35,.cls-4{fill:#2ea031;}.cls-2{opacity:0.3;}.cls-4{font-size:18px;}.cls-24,.cls-35,.cls-4{font-family:Montserrat-Bold, Montserrat;font-weight:700;}.cls-5{letter-spacing:-0.01em;}.cls-6{letter-spacing:0em;}.cls-7{letter-spacing:-0.01em;}.cls-41,.cls-8{font-size:16px;font-family:Montserrat-Regular, Montserrat;}.cls-8{font-weight:400;fill:#000;}.cls-9{letter-spacing:-0.01em;}.cls-10{letter-spacing:-0.02em;}.cls-11{letter-spacing:-0.01em;}.cls-12{letter-spacing:-0.02em;}.cls-13{letter-spacing:-0.01em;}.cls-14{letter-spacing:0em;}.cls-15{letter-spacing:-0.01em;}.cls-16{letter-spacing:0.01em;}.cls-17{letter-spacing:0em;}.cls-18{letter-spacing:-0.01em;}.cls-19{letter-spacing:-0.02em;}.cls-20{letter-spacing:0em;}.cls-21{letter-spacing:0.02em;}.cls-22{letter-spacing:0.01em;}.cls-23{letter-spacing:-0.02em;}.cls-24,.cls-35{font-size:19px;}.cls-24,.cls-36{letter-spacing:0em;}.cls-25{letter-spacing:-0.01em;}.cls-26{letter-spacing:0em;}.cls-27{stroke-width:2px;}.cls-28{letter-spacing:0em;}.cls-29{letter-spacing:-0.01em;}.cls-30{letter-spacing:0em;}.cls-31{letter-spacing:-0.01em;}.cls-32{letter-spacing:-0.01em;}.cls-33{letter-spacing:0em;}.cls-34{letter-spacing:-0.01em;}.cls-37{letter-spacing:0em;}.cls-38{letter-spacing:-0.01em;}.cls-39{letter-spacing:-0.01em;}.cls-40{letter-spacing:-0.05em;}.cls-42{letter-spacing:-0.01em;}</style></defs><g
    id="Layer_2"
    data-name="Layer 2"
  ><g id="Layer_6" data-name="Layer 6"><polyline
        class="cls-1"
        points="18.29 451.69 515.06 304.7 1011.83 451.69 1508.6 304.7 2005.37 451.69 2502.14 304.7 2998.91 451.69 3495.68 304.7"
      /><circle class="cls-2" cx="18.29" cy="451.69" r="18.29" /><circle
        class="cls-3"
        cx="18.29"
        cy="451.69"
        r="7.76"
      /><circle class="cls-2" cx="515.06" cy="304.7" r="18.29" /><circle
        class="cls-3"
        cx="515.06"
        cy="304.7"
        r="7.76"
      /><circle class="cls-2" cx="1011.83" cy="451.69" r="18.29" /><circle
        class="cls-3"
        cx="1011.83"
        cy="451.69"
        r="7.76"
      /><circle class="cls-2" cx="1508.6" cy="304.7" r="18.29" /><circle
        class="cls-3"
        cx="1508.6"
        cy="304.7"
        r="7.76"
      /><circle class="cls-2" cx="2005.37" cy="451.69" r="18.29" /><circle
        class="cls-3"
        cx="2005.37"
        cy="451.69"
        r="7.76"
      /><circle class="cls-2" cx="2502.14" cy="304.7" r="18.29" /><circle
        class="cls-3"
        cx="2502.14"
        cy="304.7"
        r="7.76"
      /><circle class="cls-2" cx="2998.91" cy="451.69" r="18.29" /><circle
        class="cls-3"
        cx="2998.91"
        cy="451.69"
        r="7.76"
      /><circle class="cls-2" cx="3495.68" cy="304.7" r="18.29" /><circle
        class="cls-3"
        cx="3495.68"
        cy="304.7"
        r="7.76"
      /><text class="cls-4" transform="translate(502.5 113.71)"><tspan
          class="cls-5"
        >Q</tspan><tspan x="15.01" y="0">1</tspan><tspan
          class="cls-6"
          x="22.07"
          y="0"
        >-</tspan><tspan class="cls-7" x="29.09" y="0">Q</tspan><tspan
          x="44.04"
          y="0"
        >3</tspan><tspan class="cls-8"><tspan x="0" y="19.2">Ma</tspan><tspan
            class="cls-9"
            x="24.72"
            y="19.2"
          >r</tspan><tspan class="cls-10" x="31.01" y="19.2">k</tspan><tspan
            x="40.29"
            y="19.2"
          >et </tspan><tspan class="cls-11" x="60.64" y="19.2">r</tspan><tspan
            x="66.85"
            y="19.2"
          >es</tspan><tspan class="cls-12" x="84.34" y="19.2">e</tspan><tspan
            x="93.76"
            y="19.2"
          >a</tspan><tspan class="cls-13" x="103.2" y="19.2">r</tspan><tspan
            class="cls-9"
            x="109.41"
            y="19.2"
          >c</tspan><tspan x="118.29" y="19.2">h a</tspan><tspan
            class="cls-14"
            x="142.75"
            y="19.2"
          >n</tspan><tspan x="153.62" y="19.2">d </tspan><tspan
            class="cls-15"
            x="168.65"
            y="19.2"
          >c</tspan><tspan x="177.52" y="19.2">ont</tspan><tspan
            class="cls-14"
            x="204.88"
            y="19.2"
          >a</tspan><tspan class="cls-16" x="214.35" y="19.2">c</tspan><tspan
            x="223.45"
            y="19.2"
          >t with t</tspan><tspan
            class="cls-14"
            x="280.53"
            y="19.2"
          >h</tspan><tspan x="291.39" y="19.2">e </tspan><tspan
            x="0"
            y="38.4"
          >fi</tspan><tspan class="cls-17" x="11.01" y="38.4">r</tspan><tspan
            x="17.36"
            y="38.4"
          >st st</tspan><tspan class="cls-18" x="50.19" y="38.4">r</tspan><tspan
            x="56.46"
            y="38.4"
          >a</tspan><tspan class="cls-19" x="65.9" y="38.4">t</tspan><tspan
            x="72.1"
            y="38.4"
          >egic </tspan><tspan
            class="cls-20"
            x="110.24"
            y="38.4"
          >p</tspan><tspan x="121.04" y="38.4">a</tspan><tspan
            class="cls-21"
            x="130.48"
            y="38.4"
          >r</tspan><tspan x="137.13" y="38.4">t</tspan><tspan
            class="cls-14"
            x="143.63"
            y="38.4"
          >n</tspan><tspan x="154.49" y="38.4">e</tspan><tspan
            class="cls-17"
            x="164.16"
            y="38.4"
          >r</tspan><tspan x="170.51" y="38.4">s</tspan></tspan><tspan
          x="0"
          y="81.37"
        >Q4</tspan><tspan class="cls-8"><tspan
            x="0"
            y="100.57"
          >Sta</tspan><tspan class="cls-21" x="25.78" y="100.57">r</tspan><tspan
            x="32.43"
            y="100.57"
          >t of p</tspan><tspan
            class="cls-15"
            x="73.62"
            y="100.57"
          >r</tspan><tspan class="cls-14" x="79.89" y="100.57">a</tspan><tspan
            class="cls-22"
            x="89.36"
            y="100.57"
          >c</tspan><tspan x="98.46" y="100.57">tical </tspan><tspan
            class="cls-23"
            x="136.21"
            y="100.57"
          >t</tspan><tspan x="142.4" y="100.57">ests of t</tspan><tspan
            class="cls-14"
            x="204.54"
            y="100.57"
          >h</tspan><tspan x="215.41" y="100.57">e st</tspan><tspan
            class="cls-18"
            x="243.58"
            y="100.57"
          >r</tspan><tspan x="249.86" y="100.57">a</tspan><tspan
            class="cls-23"
            x="259.29"
            y="100.57"
          >t</tspan><tspan x="265.49" y="100.57">egy</tspan></tspan></text><text
        class="cls-24"
        transform="translate(535.34 76.93)"
      >2<tspan class="cls-25" x="11.17" y="0">0</tspan><tspan
          class="cls-26"
          x="23.96"
          y="0"
        >18</tspan></text><line
        class="cls-27"
        x1="503.98"
        y1="70.87"
        x2="527.35"
        y2="70.87"
      /><text class="cls-4" transform="translate(5.73 578.9)">Q4<tspan
          class="cls-8"
        ><tspan x="0" y="19.2">Id</tspan><tspan
            class="cls-12"
            x="15.68"
            y="19.2"
          >e</tspan><tspan x="25.1" y="19.2">a of t</tspan><tspan
            class="cls-14"
            x="64.88"
            y="19.2"
          >h</tspan><tspan x="75.74" y="19.2">e g</tspan><tspan
            class="cls-11"
            x="100.58"
            y="19.2"
          >r</tspan><tspan class="cls-12" x="106.78" y="19.2">o</tspan><tspan
            x="116.58"
            y="19.2"
          >wi</tspan><tspan class="cls-28" x="134.94" y="19.2">n</tspan><tspan
            x="145.81"
            y="19.2"
          >g st</tspan><tspan class="cls-18" x="175.29" y="19.2">r</tspan><tspan
            x="181.57"
            y="19.2"
          >a</tspan><tspan class="cls-19" x="191.01" y="19.2">t</tspan><tspan
            x="197.2"
            y="19.2"
          >egy</tspan></tspan></text><text
        class="cls-24"
        transform="translate(38.57 542.12)"
      >2<tspan class="cls-25" x="11.17" y="0">0</tspan><tspan
          class="cls-26"
          x="23.96"
          y="0"
        >17</tspan></text><line
        class="cls-27"
        x1="7.21"
        y1="536.06"
        x2="30.57"
        y2="536.06"
      /><text class="cls-4" transform="translate(1494.56 52.93)"><tspan
          class="cls-5"
        >Q</tspan><tspan x="15.01" y="0">1</tspan><tspan class="cls-8"><tspan
            class="cls-29"
            x="0"
            y="19.2"
          >F</tspan><tspan x="9.97" y="19.2">i</tspan><tspan
            class="cls-30"
            x="14.27"
            y="19.2"
          >r</tspan><tspan x="20.62" y="19.2">st full g</tspan><tspan
            class="cls-11"
            x="79.1"
            y="19.2"
          >r</tspan><tspan class="cls-12" x="85.31" y="19.2">o</tspan><tspan
            x="95.1"
            y="19.2"
          >wi</tspan><tspan class="cls-14" x="113.47" y="19.2">n</tspan><tspan
            x="124.33"
            y="19.2"
          >g </tspan><tspan class="cls-9" x="139.5" y="19.2">c</tspan><tspan
            class="cls-12"
            x="148.38"
            y="19.2"
          >y</tspan><tspan class="cls-9" x="156.81" y="19.2">c</tspan><tspan
            x="165.69"
            y="19.2"
          >le do</tspan><tspan
            class="cls-14"
            x="204.73"
            y="19.2"
          >n</tspan><tspan x="215.6" y="19.2">e</tspan></tspan><tspan
          class="cls-5"
          x="0"
          y="62.17"
        >Q</tspan><tspan x="15.01" y="62.17">1</tspan><tspan
          class="cls-6"
          x="22.07"
          y="62.17"
        >-</tspan><tspan class="cls-7" x="29.09" y="62.17">Q</tspan><tspan
          x="44.05"
          y="62.17"
        >3</tspan><tspan class="cls-8"><tspan x="0" y="81.37">D</tspan><tspan
            class="cls-29"
            x="13.22"
            y="81.37"
          >e</tspan><tspan class="cls-12" x="22.72" y="81.37">v</tspan><tspan
            x="31.15"
            y="81.37"
          >elop</tspan><tspan class="cls-14" x="66" y="81.37">m</tspan><tspan
            x="83.01"
            y="81.37"
          >ent of t</tspan><tspan
            class="cls-14"
            x="140.34"
            y="81.37"
          >h</tspan><tspan x="151.2" y="81.37">e C</tspan><tspan
            class="cls-11"
            x="176.56"
            y="81.37"
          >r</tspan><tspan class="cls-12" x="182.77" y="81.37">ow</tspan><tspan
            x="206.38"
            y="81.37"
          >d G</tspan><tspan class="cls-11" x="233.79" y="81.37">r</tspan><tspan
            class="cls-12"
            x="240"
            y="81.37"
          >o</tspan><tspan x="249.79" y="81.37">wi</tspan><tspan
            class="cls-14"
            x="268.16"
            y="81.37"
          >n</tspan><tspan x="279.02" y="81.37">g plat</tspan><tspan
            class="cls-18"
            x="325.28"
            y="81.37"
          >f</tspan><tspan x="330.56" y="81.37">o</tspan><tspan
            class="cls-9"
            x="340.59"
            y="81.37"
          >r</tspan><tspan x="346.88" y="81.37">m a</tspan><tspan
            class="cls-28"
            x="377.49"
            y="81.37"
          >n</tspan><tspan x="388.35" y="81.37">d legal </tspan><tspan
            x="0"
            y="100.57"
          >setup</tspan></tspan><tspan x="0" y="143.54">Q4</tspan><tspan
          class="cls-8"
        ><tspan class="cls-14" x="0" y="162.74">L</tspan><tspan
            x="9.46"
            y="162.74"
          >au</tspan><tspan class="cls-14" x="29.66" y="162.74">n</tspan><tspan
            class="cls-31"
            x="40.53"
            y="162.74"
          >c</tspan><tspan x="49.41" y="162.74">h of t</tspan><tspan
            class="cls-14"
            x="90.58"
            y="162.74"
          >h</tspan><tspan x="101.44" y="162.74">e Beta </tspan><tspan
            class="cls-32"
            x="157.15"
            y="162.74"
          >v</tspan><tspan x="165.58" y="162.74">e</tspan><tspan
            class="cls-17"
            x="175.25"
            y="162.74"
          >r</tspan><tspan x="181.6" y="162.74">sion of t</tspan><tspan
            class="cls-14"
            x="244.93"
            y="162.74"
          >h</tspan><tspan x="255.79" y="162.74">e C</tspan><tspan
            class="cls-11"
            x="281.15"
            y="162.74"
          >r</tspan><tspan class="cls-12" x="287.36" y="162.74">ow</tspan><tspan
            x="310.97"
            y="162.74"
          >d G</tspan><tspan
            class="cls-11"
            x="338.38"
            y="162.74"
          >r</tspan><tspan class="cls-12" x="344.59" y="162.74">o</tspan><tspan
            x="354.38"
            y="162.74"
          >wi</tspan><tspan class="cls-14" x="372.75" y="162.74">n</tspan><tspan
            x="383.61"
            y="162.74"
          >g plat</tspan><tspan
            class="cls-18"
            x="429.87"
            y="162.74"
          >f</tspan><tspan class="cls-33" x="435.15" y="162.74">o</tspan><tspan
            class="cls-34"
            x="445.18"
            y="162.74"
          >r</tspan><tspan
            class="cls-33"
            x="451.47"
            y="162.74"
          >m</tspan></tspan></text><text
        class="cls-35"
        transform="translate(1527.4 16.15)"
      ><tspan class="cls-36">2</tspan><tspan
          class="cls-25"
          x="11.17"
          y="0"
        >0</tspan><tspan class="cls-36" x="23.96" y="0">2</tspan><tspan
          x="35.13"
          y="0"
        >0</tspan></text><line
        class="cls-27"
        x1="1496.04"
        y1="10.09"
        x2="1519.4"
        y2="10.09"
      /><text class="cls-4" transform="translate(997.79 578.9)"><tspan
          class="cls-5"
        >Q</tspan><tspan x="15.01" y="0">2</tspan><tspan class="cls-8"><tspan
            x="0"
            y="19.2"
          >Imple</tspan><tspan class="cls-14" x="46.62" y="19.2">m</tspan><tspan
            x="63.63"
            y="19.2"
          >entation of </tspan><tspan
            class="cls-14"
            x="155.57"
            y="19.2"
          >n</tspan><tspan class="cls-29" x="166.43" y="19.2">e</tspan><tspan
            x="175.94"
            y="19.2"
          >w </tspan><tspan class="cls-10" x="194.19" y="19.2">k</tspan><tspan
            class="cls-29"
            x="203.47"
            y="19.2"
          >e</tspan><tspan x="212.98" y="19.2">y </tspan><tspan
            class="cls-12"
            x="225.84"
            y="19.2"
          >w</tspan><tspan x="239.66" y="19.2">o</tspan><tspan
            class="cls-9"
            x="249.7"
            y="19.2"
          >rk</tspan><tspan x="265.47" y="19.2">i</tspan><tspan
            class="cls-14"
            x="269.78"
            y="19.2"
          >n</tspan><tspan x="280.64" y="19.2">g s</tspan><tspan
            class="cls-19"
            x="303.63"
            y="19.2"
          >t</tspan><tspan x="309.82" y="19.2">eps </tspan><tspan
            class="cls-23"
            x="342.35"
            y="19.2"
          >t</tspan><tspan
            class="cls-37"
            x="348.54"
            y="19.2"
          >o finali</tspan><tspan
            class="cls-18"
            x="402.65"
            y="19.2"
          >z</tspan><tspan x="410.69" y="19.2">e </tspan><tspan
            x="0"
            y="38.4"
          >t</tspan><tspan class="cls-14" x="6.5" y="38.4">h</tspan><tspan
            x="17.36"
            y="38.4"
          >e st</tspan><tspan class="cls-18" x="45.54" y="38.4">r</tspan><tspan
            x="51.81"
            y="38.4"
          >a</tspan><tspan class="cls-23" x="61.25" y="38.4">t</tspan><tspan
            x="67.44"
            y="38.4"
          >egy</tspan></tspan><tspan
          class="cls-7"
          x="0"
          y="81.37"
        >Q</tspan><tspan x="14.96" y="81.37">3</tspan><tspan
          class="cls-8"
        ><tspan class="cls-29" x="0" y="100.57">F</tspan><tspan
            x="9.97"
            y="100.57"
          >i</tspan><tspan class="cls-30" x="14.27" y="100.57">r</tspan><tspan
            x="20.62"
            y="100.57"
          >st </tspan><tspan class="cls-19" x="39.14" y="100.57">t</tspan><tspan
            x="45.33"
            y="100.57"
          >est i</tspan><tspan
            class="cls-38"
            x="77.81"
            y="100.57"
          >n</tspan><tspan class="cls-12" x="88.48" y="100.57">v</tspan><tspan
            x="96.91"
            y="100.57"
          >est</tspan><tspan class="cls-14" x="120.9" y="100.57">m</tspan><tspan
            x="137.9"
            y="100.57"
          >ents a</tspan><tspan
            class="cls-14"
            x="186.35"
            y="100.57"
          >n</tspan><tspan x="197.21" y="100.57">d </tspan><tspan
            class="cls-23"
            x="212.25"
            y="100.57"
          >t</tspan><tspan x="218.45" y="100.57">est g</tspan><tspan
            class="cls-11"
            x="257.6"
            y="100.57"
          >r</tspan><tspan class="cls-32" x="263.8" y="100.57">o</tspan><tspan
            class="cls-39"
            x="273.6"
            y="100.57"
          >w</tspan><tspan x="287.57" y="100.57">s</tspan></tspan><tspan
          x="0"
          y="143.54"
        >Q4</tspan><tspan class="cls-8"><tspan x="0" y="162.74">D</tspan><tspan
            class="cls-29"
            x="13.22"
            y="162.74"
          >e</tspan><tspan class="cls-32" x="22.72" y="162.74">v</tspan><tspan
            x="31.15"
            y="162.74"
          >elop</tspan><tspan class="cls-28" x="66" y="162.74">m</tspan><tspan
            x="83.01"
            y="162.74"
          >ent of busi</tspan><tspan
            class="cls-14"
            x="167.58"
            y="162.74"
          >n</tspan><tspan x="178.45" y="162.74">ess scali</tspan><tspan
            class="cls-14"
            x="242.83"
            y="162.74"
          >n</tspan><tspan x="253.69" y="162.74">g st</tspan><tspan
            class="cls-18"
            x="283.18"
            y="162.74"
          >r</tspan><tspan x="289.46" y="162.74">a</tspan><tspan
            class="cls-23"
            x="298.89"
            y="162.74"
          >t</tspan><tspan x="305.09" y="162.74">egies a</tspan><tspan
            class="cls-14"
            x="361.15"
            y="162.74"
          >n</tspan><tspan x="372.01" y="162.74">d id</tspan><tspan
            class="cls-12"
            x="402.2"
            y="162.74"
          >e</tspan><tspan x="411.63" y="162.74">a of </tspan><tspan
            x="0"
            y="181.94"
          >C</tspan><tspan class="cls-11" x="11.5" y="181.94">r</tspan><tspan
            class="cls-12"
            x="17.71"
            y="181.94"
          >ow</tspan><tspan x="41.33" y="181.94">d G</tspan><tspan
            class="cls-11"
            x="68.74"
            y="181.94"
          >r</tspan><tspan class="cls-12" x="74.94" y="181.94">o</tspan><tspan
            x="84.74"
            y="181.94"
          >wi</tspan><tspan class="cls-14" x="103.1" y="181.94">n</tspan><tspan
            x="113.97"
            y="181.94"
          >g </tspan><tspan class="cls-9" x="129.13" y="181.94">E</tspan><tspan
            class="cls-18"
            x="139.71"
            y="181.94"
          >c</tspan><tspan x="148.58" y="181.94">o</tspan><tspan
            class="cls-29"
            x="158.61"
            y="181.94"
          >s</tspan><tspan class="cls-39" x="166.27" y="181.94">y</tspan><tspan
            x="174.85"
            y="181.94"
          >s</tspan><tspan class="cls-23" x="182.67" y="181.94">t</tspan><tspan
            x="188.86"
            y="181.94"
          >em</tspan></tspan></text><text
        class="cls-24"
        transform="translate(1030.63 542.12)"
      >2<tspan class="cls-25" x="11.17" y="0">0</tspan><tspan
          class="cls-26"
          x="23.96"
          y="0"
        >19</tspan></text><line
        class="cls-27"
        x1="999.27"
        y1="536.06"
        x2="1022.63"
        y2="536.06"
      /><text class="cls-4" transform="translate(2488.58 135.42)"><tspan
          class="cls-5"
        >Q</tspan><tspan x="15.01" y="0">1</tspan><tspan class="cls-8"><tspan
            x="0"
            y="19.2"
          >Sta</tspan><tspan class="cls-21" x="25.78" y="19.2">r</tspan><tspan
            x="32.43"
            y="19.2"
          >t of d</tspan><tspan
            class="cls-29"
            x="73.62"
            y="19.2"
          >e</tspan><tspan class="cls-12" x="83.12" y="19.2">v</tspan><tspan
            x="91.55"
            y="19.2"
          >elop</tspan><tspan class="cls-14" x="126.4" y="19.2">m</tspan><tspan
            x="143.41"
            y="19.2"
          >ent of C</tspan><tspan
            class="cls-11"
            x="205.74"
            y="19.2"
          >r</tspan><tspan class="cls-32" x="211.95" y="19.2">ow</tspan><tspan
            x="235.57"
            y="19.2"
          >d G</tspan><tspan class="cls-11" x="262.97" y="19.2">r</tspan><tspan
            class="cls-12"
            x="269.18"
            y="19.2"
          >o</tspan><tspan x="278.97" y="19.2">wi</tspan><tspan
            class="cls-14"
            x="297.34"
            y="19.2"
          >n</tspan><tspan x="308.21" y="19.2">g </tspan><tspan
            class="cls-40"
            x="323.37"
            y="19.2"
          >T</tspan><tspan x="331.68" y="19.2">o</tspan><tspan
            class="cls-10"
            x="341.71"
            y="19.2"
          >k</tspan><tspan x="350.99" y="19.2">en</tspan></tspan><tspan
          x="0"
          y="62.17"
        >Q4</tspan><tspan class="cls-8"><tspan x="0" y="81.37">Rel</tspan><tspan
            class="cls-12"
            x="25.54"
            y="81.37"
          >e</tspan><tspan x="34.96" y="81.37">ase of de</tspan><tspan
            class="cls-18"
            x="106.24"
            y="81.37"
          >c</tspan><tspan x="115.1" y="81.37">ent</tspan><tspan
            class="cls-18"
            x="142.1"
            y="81.37"
          >r</tspan><tspan x="148.37" y="81.37">ali</tspan><tspan
            class="cls-15"
            x="166.42"
            y="81.37"
          >z</tspan><tspan x="174.45" y="81.37">ed </tspan><tspan
            class="cls-34"
            x="199.15"
            y="81.37"
          >C</tspan><tspan x="210.53" y="81.37">annabis Plat</tspan><tspan
            class="cls-15"
            x="309.97"
            y="81.37"
          >f</tspan><tspan x="315.25" y="81.37">o</tspan><tspan
            class="cls-9"
            x="325.28"
            y="81.37"
          >r</tspan><tspan x="331.57" y="81.37">m</tspan></tspan></text><text
        class="cls-35"
        transform="translate(2521.42 98.64)"
      ><tspan class="cls-36">2</tspan><tspan
          class="cls-25"
          x="11.17"
          y="0"
        >0</tspan><tspan x="23.96" y="0">22</tspan></text><line
        class="cls-27"
        x1="2490.06"
        y1="92.58"
        x2="2513.42"
        y2="92.58"
      /><text class="cls-4" transform="translate(1991.81 578.9)"><tspan
          class="cls-5"
        >Q</tspan><tspan x="15.01" y="0">1</tspan><tspan class="cls-8"><tspan
            x="0"
            y="19.2"
          >Official lau</tspan><tspan
            class="cls-14"
            x="85.61"
            y="19.2"
          >n</tspan><tspan class="cls-9" x="96.48" y="19.2">c</tspan><tspan
            x="105.36"
            y="19.2"
          >h of C</tspan><tspan
            class="cls-11"
            x="151.53"
            y="19.2"
          >r</tspan><tspan class="cls-12" x="157.74" y="19.2">ow</tspan><tspan
            x="181.36"
            y="19.2"
          >d G</tspan><tspan class="cls-13" x="208.76" y="19.2">r</tspan><tspan
            class="cls-12"
            x="214.97"
            y="19.2"
          >o</tspan><tspan x="224.77" y="19.2">wi</tspan><tspan
            class="cls-14"
            x="243.13"
            y="19.2"
          >n</tspan><tspan x="254" y="19.2">g </tspan><tspan
            class="cls-9"
            x="269.17"
            y="19.2"
          >E</tspan><tspan class="cls-15" x="279.74" y="19.2">c</tspan><tspan
            class="cls-37"
            x="288.6"
            y="19.2"
          >o </tspan><tspan class="cls-29" x="302.83" y="19.2">s</tspan><tspan
            class="cls-39"
            x="310.49"
            y="19.2"
          >y</tspan><tspan x="319.07" y="19.2">s</tspan><tspan
            class="cls-23"
            x="326.89"
            y="19.2"
          >t</tspan><tspan x="333.08" y="19.2">em</tspan></tspan><tspan
          class="cls-5"
          x="0"
          y="62.17"
        >Q</tspan><tspan x="15.01" y="62.17">2</tspan><tspan
          class="cls-8"
        ><tspan x="0" y="81.37">Openi</tspan><tspan
            class="cls-14"
            x="49.07"
            y="81.37"
          >n</tspan><tspan x="59.94" y="81.37">g of C</tspan><tspan
            class="cls-11"
            x="106.26"
            y="81.37"
          >r</tspan><tspan class="cls-12" x="112.46" y="81.37">ow</tspan><tspan
            x="136.08"
            y="81.37"
          >d G</tspan><tspan class="cls-11" x="163.49" y="81.37">r</tspan><tspan
            class="cls-12"
            x="169.7"
            y="81.37"
          >o</tspan><tspan x="179.49" y="81.37">wi</tspan><tspan
            class="cls-14"
            x="197.86"
            y="81.37"
          >n</tspan><tspan x="208.72" y="81.37">g offi</tspan><tspan
            class="cls-15"
            x="250.35"
            y="81.37"
          >c</tspan><tspan x="259.21" y="81.37">e</tspan></tspan><tspan
          class="cls-5"
          x="0"
          y="124.34"
        >Q</tspan><tspan x="15.01" y="124.34">2</tspan><tspan
          class="cls-8"
        ><tspan x="0" y="143.54">Glo</tspan><tspan
            class="cls-20"
            x="26.7"
            y="143.54"
          >b</tspan><tspan x="37.5" y="143.54">al p</tspan><tspan
            class="cls-11"
            x="66.29"
            y="143.54"
          >r</tspan><tspan x="72.5" y="143.54">o</tspan><tspan
            class="cls-14"
            x="82.53"
            y="143.54"
          >m</tspan><tspan x="99.54" y="143.54">otion cam</tspan><tspan
            class="cls-20"
            x="180.85"
            y="143.54"
          >p</tspan><tspan x="191.65" y="143.54">aign</tspan></tspan><tspan
          class="cls-7"
          x="0"
          y="186.51"
        >Q</tspan><tspan x="14.96" y="186.51">3</tspan><tspan
          class="cls-8"
        ><tspan class="cls-29" x="0" y="205.71">F</tspan><tspan
            x="9.97"
            y="205.71"
          >i</tspan><tspan class="cls-30" x="14.27" y="205.71">r</tspan><tspan
            x="20.62"
            y="205.71"
          >st glo</tspan><tspan
            class="cls-20"
            x="64.45"
            y="205.71"
          >b</tspan><tspan x="75.25" y="205.71">al </tspan><tspan
            class="cls-15"
            x="93.18"
            y="205.71"
          >c</tspan><tspan class="cls-37" x="102.05" y="205.71">o</tspan><tspan
            class="cls-29"
            x="112.08"
            y="205.71"
          >n</tspan><tspan class="cls-12" x="122.75" y="205.71">v</tspan><tspan
            x="131.18"
            y="205.71"
          >ention</tspan></tspan></text><text
        class="cls-35"
        transform="translate(2024.65 542.12)"
      ><tspan class="cls-36">2</tspan><tspan
          class="cls-25"
          x="11.17"
          y="0"
        >0</tspan><tspan x="23.96" y="0">21</tspan></text><line
        class="cls-27"
        x1="1993.29"
        y1="536.06"
        x2="2016.65"
        y2="536.06"
      /><text class="cls-41" transform="translate(3482.64 217.72)"><tspan
          class="cls-40"
        >T</tspan><tspan x="8.3" y="0">o be an</tspan><tspan
          class="cls-14"
          x="67.5"
          y="0"
        >n</tspan><tspan x="78.37" y="0">ou</tspan><tspan
          class="cls-14"
          x="99.17"
          y="0"
        >n</tspan><tspan class="cls-15" x="110.03" y="0">c</tspan><tspan
          x="118.89"
          y="0"
        >ed</tspan></text><text
        class="cls-35"
        transform="translate(3515.49 182.42)"
      ><tspan class="cls-36">2</tspan><tspan
          class="cls-25"
          x="11.17"
          y="0"
        >0</tspan><tspan class="cls-42" x="23.96" y="0">2</tspan><tspan
          x="34.98"
          y="0"
        >4</tspan></text><line
        class="cls-27"
        x1="3484.13"
        y1="176.37"
        x2="3507.49"
        y2="176.37"
      /><text class="cls-41" transform="translate(2985.87 577.41)"><tspan
          class="cls-40"
        >T</tspan><tspan x="8.3" y="0">o be an</tspan><tspan
          class="cls-14"
          x="67.5"
          y="0"
        >n</tspan><tspan x="78.37" y="0">ou</tspan><tspan
          class="cls-14"
          x="99.17"
          y="0"
        >n</tspan><tspan class="cls-15" x="110.03" y="0">c</tspan><tspan
          x="118.89"
          y="0"
        >ed</tspan></text><text
        class="cls-35"
        transform="translate(3018.72 542.12)"
      ><tspan class="cls-36">2</tspan><tspan
          class="cls-25"
          x="11.17"
          y="0"
        >0</tspan><tspan x="23.96" y="0">23</tspan></text><line
        class="cls-27"
        x1="2987.36"
        y1="536.06"
        x2="3010.72"
        y2="536.06"
      /><text /></g></g></svg>
