<svg xmlns="http://www.w3.org/2000/svg" width="18.525" height="24.035" viewBox="0 0 18.525 24.035">
  <path id="Path_44" data-name="Path 44" d="M61.977,947.73a.618.618,0,0,1,.4.834.7.7,0,0,1-.851.375c-2.693-.856-4.484-2.077-5.439-3.7a.63.63,0,0,1,.25-.876.68.68,0,0,1,.909.241C58.034,945.949,59.593,946.981,61.977,947.73Zm-8.841-.612a22.418,22.418,0,0,1-5.38,2.189.645.645,0,1,0,.345,1.243,24.25,24.25,0,0,0,5.292-2.09c.96-.527,1.05-.536,1.96.11a19.851,19.851,0,0,0,5.037,2.481.662.662,0,0,0,.769-.249.643.643,0,0,0-.333-.966,17.16,17.16,0,0,1-5.243-2.719C54.691,946.43,54.393,946.41,53.136,947.118Zm-.271,3.072a23.655,23.655,0,0,1-3.346,1.4.659.659,0,0,0-.437.473.647.647,0,0,0,.813.763,24.782,24.782,0,0,0,3.584-1.489,1.335,1.335,0,0,1,1.471,0,34.8,34.8,0,0,0,3.7,1.707.65.65,0,0,0,.881-.715.66.66,0,0,0-.413-.491,33.709,33.709,0,0,1-3.531-1.633C54.418,949.59,54.283,949.482,52.865,950.191Zm-.714,3.255a.616.616,0,0,0-.368.587.681.681,0,0,0,.713.611.648.648,0,0,0,.268-.055c1.75-.793,1.142-.841,3.115.005a.643.643,0,0,0,.257.05.683.683,0,0,0,.718-.6.616.616,0,0,0-.381-.6C53.9,952.345,54.593,952.344,52.151,953.445Zm2.423-14.227a.635.635,0,0,0-.356-.842.676.676,0,0,0-.873.344c-1.089,2.5-3.84,4.43-7.465,5.281a.644.644,0,1,0,.293,1.254C49.744,944.42,53.156,942.477,54.574,939.219Zm.666,4.142a11.28,11.28,0,0,0,2-3.075,3.168,3.168,0,0,0-.235-3.158,3.913,3.913,0,0,0-5.141-1.009,3.788,3.788,0,0,0-1.474,1.729c-.666,1.529-2.412,2.759-4.79,3.416a.661.661,0,0,0-.494.644.652.652,0,0,0,.837.6c2.779-.767,4.852-2.266,5.676-4.159a2.383,2.383,0,0,1,2.246-1.5c1.47,0,2.892,1.226,2.146,2.939-1.574,3.617-5.259,5.946-9.424,6.968a.674.674,0,0,0-.429.323.636.636,0,0,0-.045.524.657.657,0,0,0,.777.406,18.593,18.593,0,0,0,5.529-2.3A13.764,13.764,0,0,0,55.24,943.361Zm-5.989-6.209a5.31,5.31,0,0,1,5.406-2.8,5.067,5.067,0,0,1,3.617,2c1.112,1.541.833,3.071.563,4.551-.232,1.265-.469,2.573.271,3.717a5.56,5.56,0,0,0,3.27,2.009.644.644,0,0,0,.808-.44.668.668,0,0,0-.469-.8,4.337,4.337,0,0,1-2.477-1.446c-.47-.727-.293-1.693-.09-2.814.287-1.573.643-3.531-.781-5.508a6.4,6.4,0,0,0-4.568-2.54,6.973,6.973,0,0,0-5.376,1.718A6.841,6.841,0,0,0,48.1,936.5a3.734,3.734,0,0,1-2.38,2.008.642.642,0,0,0-.448.541.651.651,0,0,0,.856.683A4.945,4.945,0,0,0,49.251,937.152Zm-2.12-1.693.4-.573a7.822,7.822,0,0,1,7.537-2.913c2.97.377,5.41,2.017,6.213,4.179a8.217,8.217,0,0,1,.2,4.708c-.2,1.074-.364,2,.226,2.746a2.326,2.326,0,0,0,1.051.711.641.641,0,0,0,.867-.506.681.681,0,0,0-.432-.708,1.022,1.022,0,0,1-.428-.279c-.236-.3-.119-.934.028-1.741a9.407,9.407,0,0,0-.262-5.365c-1.163-3.128-4.885-5.109-8.7-5.109a9.1,9.1,0,0,0-6.744,2.75,4.764,4.764,0,0,0-.973,1.411.6.6,0,0,0,.183.849A.6.6,0,0,0,47.131,935.459Z" transform="translate(-45.107 -930.608)" fill="#fff"/>
</svg>
