<svg xmlns="http://www.w3.org/2000/svg" width="24.701" height="22.032" viewBox="0 0 24.701 22.032">
  <path id="Path_43" data-name="Path 43" d="M56.427,1008.462c-6.523,0-12.351,4.232-12.351,10.022a8.682,8.682,0,0,0,2.107,5.633c.057,1.833-1.053,4.463-2.051,6.377a30.228,30.228,0,0,0,8.211-2.54c9.506,2.25,16.434-3.41,16.434-9.471C68.778,1012.663,62.91,1008.462,56.427,1008.462Zm0,15.022a1.026,1.026,0,1,1,1.054-1.026A1.041,1.041,0,0,1,56.427,1023.484Zm1.653-4.865a2.143,2.143,0,0,0-.788,1.788H55.6a2.98,2.98,0,0,1,1.207-2.846c.483-.447.865-.8.811-1.5a1.1,1.1,0,0,0-1.15-1.005c-.6,0-1.3.433-1.3,1.651H53.478a2.942,2.942,0,0,1,3.027-3.242,3.022,3.022,0,0,1,2.151.784,2.526,2.526,0,0,1,.72,1.886A3.64,3.64,0,0,1,58.08,1018.619Z" transform="translate(-44.077 -1008.462)" fill="#fff"/>
</svg>
