<svg xmlns="http://www.w3.org/2000/svg" width="29" height="14.109" viewBox="0 0 29 14.109">
  <path id="Path_47" data-name="Path 47" d="M61.616,643.271H47.121l0-.732c0-1.48.12-2.335,1.918-2.739,2.036-.458,4.041-.866,3.075-2.6-2.858-5.129-.814-8.04,2.255-8.04,3.01,0,5.107,2.8,2.255,8.041-.937,1.721,1,2.131,3.075,2.6,1.8.4,1.919,1.26,1.919,2.743Zm5.813-2.6c-1.558-.351-3.008-.657-2.306-1.948,2.138-3.93.567-6.031-1.692-6.031a2.557,2.557,0,0,0-2.716,2.733c0,4.589,2.741,2.081,2.714,7.848h5.438l0-.544C68.87,641.614,68.78,640.971,67.429,640.668Zm-27.557,2.6h5.439c-.026-5.767,2.713-3.259,2.713-7.848a2.557,2.557,0,0,0-2.716-2.733c-2.258,0-3.829,2.1-1.69,6.031.7,1.292-.748,1.6-2.307,1.948-1.351.3-1.441.946-1.441,2.059Z" transform="translate(-39.869 -629.162)" fill="#fff"/>
</svg>
