<svg xmlns="http://www.w3.org/2000/svg" viewBox="0 0 1416.23 224.58"><defs><style>.cls-1{fill:#2ea031;}.cls-2,.cls-23{font-size:15.39px;}.cls-2,.cls-23,.cls-31{fill:#fff;}.cls-2{font-family:Montserrat-Medium, Montserrat;font-weight:500;}.cls-3{letter-spacing:0em;}.cls-4{letter-spacing:-0.01em;}.cls-5{letter-spacing:0em;}.cls-6{letter-spacing:-0.01em;}.cls-7{letter-spacing:-0.01em;}.cls-8{letter-spacing:0em;}.cls-9{letter-spacing:-0.02em;}.cls-10{letter-spacing:-0.02em;}.cls-11{letter-spacing:-0.01em;}.cls-12{letter-spacing:-0.02em;}.cls-13{letter-spacing:-0.01em;}.cls-14{font-family:Montserrat-Regular, Montserrat;font-weight:400;}.cls-15,.cls-23{font-family:Montserrat-Bold, Montserrat;font-weight:700;}.cls-16{letter-spacing:0.01em;}.cls-17{letter-spacing:-0.02em;}.cls-18{letter-spacing:0em;}.cls-19{letter-spacing:-0.02em;}.cls-20{letter-spacing:-0.02em;}.cls-21{letter-spacing:0em;}.cls-22{letter-spacing:0em;}.cls-24{letter-spacing:0.01em;}.cls-25{letter-spacing:-0.01em;}.cls-26{letter-spacing:-0.02em;}.cls-27{letter-spacing:-0.02em;}.cls-28{letter-spacing:-0.01em;}.cls-29{letter-spacing:-0.02em;}.cls-30{letter-spacing:-0.01em;}.cls-32{opacity:0.7;}</style></defs><g id="Layer_2" data-name="Layer 2"><g id="Layer_1-2" data-name="Layer 1"><rect class="cls-1" y="4.29" width="253.18" height="190.54"/><rect class="cls-1" x="322.98" y="4.29" width="253.18" height="78.59"/><rect class="cls-1" x="322.98" y="117.46" width="253.18" height="78.59"/><rect class="cls-1" x="1163.05" y="5.51" width="253.18" height="190.54"/><rect class="cls-1" x="840.06" y="117.46" width="253.18" height="78.59"/><rect class="cls-1" x="840.06" y="4.29" width="253.18" height="78.59"/><text class="cls-2" transform="translate(44.62 50.38)">Re<tspan class="cls-3" x="20.6" y="0">n</tspan><tspan class="cls-4" x="31.13" y="0">o</tspan><tspan x="40.67" y="0">w</tspan><tspan class="cls-5" x="54.5" y="0">n</tspan><tspan x="65.02" y="0">ed </tspan><tspan class="cls-6" x="89.07" y="0">T</tspan><tspan class="cls-7" x="97.9" y="0">r</tspan><tspan class="cls-5" x="104.09" y="0">a</tspan><tspan x="113.33" y="0">di</tspan><tspan class="cls-3" x="128.12" y="0">n</tspan><tspan x="138.64" y="0">g &amp; </tspan><tspan class="cls-8" x="5.6" y="18.46">A</tspan><tspan x="16.79" y="18.46">sset Man</tspan><tspan class="cls-3" x="86.5" y="18.46">a</tspan><tspan x="95.75" y="18.46">ge</tspan><tspan class="cls-3" x="115.78" y="18.46">m</tspan><tspan x="132.09" y="18.46">ent </tspan><tspan x="2.66" y="36.93">Des</tspan><tspan class="cls-9" x="32.49" y="36.93">k</tspan><tspan x="41.71" y="36.93">s, </tspan><tspan class="cls-10" x="57.05" y="36.93">C</tspan><tspan x="67.84" y="36.93">oope</tspan><tspan class="cls-7" x="107.29" y="36.93">r</tspan><tspan x="113.47" y="36.93">ations</tspan><tspan x="0.95" y="73.85">I</tspan><tspan class="cls-11" x="5.72" y="73.85">n</tspan><tspan class="cls-4" x="16.04" y="73.85">v</tspan><tspan x="24.41" y="73.85">est</tspan><tspan class="cls-3" x="47.9" y="73.85">m</tspan><tspan x="64.21" y="73.85">ent in</tspan><tspan class="cls-12" x="109.39" y="73.85">t</tspan><tspan x="115.48" y="73.85">o </tspan><tspan class="cls-3" x="129.39" y="73.85">n</tspan><tspan class="cls-11" x="139.91" y="73.85">e</tspan><tspan x="149.18" y="73.85">w </tspan><tspan x="9.75" y="92.32">bloomi</tspan><tspan class="cls-3" x="64.63" y="92.32">n</tspan><tspan x="75.15" y="92.32">g ma</tspan><tspan class="cls-13" x="115.37" y="92.32">r</tspan><tspan class="cls-10" x="121.57" y="92.32">k</tspan><tspan x="130.71" y="92.32">ets</tspan><tspan class="cls-14" x="154.21" y="92.32"> </tspan><tspan class="cls-15"><tspan x="-1.68" y="110.78">C</tspan><tspan class="cls-16" x="9.59" y="110.78">r</tspan><tspan x="16.46" y="110.78">yp</tspan><tspan class="cls-9" x="36.27" y="110.78">t</tspan><tspan class="cls-13" x="42.7" y="110.78">o</tspan><tspan x="52.67" y="110.78">, CB</tspan><tspan class="cls-17" x="84.11" y="110.78">D</tspan><tspan x="96.51" y="110.78">, </tspan><tspan class="cls-11" x="104.89" y="110.78">F</tspan><tspan x="114.57" y="110.78">in</tspan><tspan class="cls-9" x="129.83" y="110.78">t</tspan><tspan x="136.27" y="110.78">e</tspan><tspan class="cls-18" x="145.97" y="110.78">c</tspan><tspan x="155.01" y="110.78">h</tspan></tspan></text><text class="cls-2"><tspan class="cls-10" x="1210.9" y="124.24">C</tspan><tspan x="1221.69" y="124.24">omuni</tspan><tspan class="cls-11" x="1272.91" y="124.24">t</tspan><tspan x="1279.12" y="124.24">y of Clients,</tspan><tspan x="1216.29" y="142.7">I</tspan><tspan class="cls-11" x="1221.06" y="142.7">n</tspan><tspan class="cls-19" x="1231.38" y="142.7">v</tspan><tspan x="1239.75" y="142.7">es</tspan><tspan class="cls-20" x="1256.87" y="142.7">t</tspan><tspan x="1262.97" y="142.7">o</tspan><tspan class="cls-21" x="1272.74" y="142.7">r</tspan><tspan x="1279" y="142.7">s, Affilia</tspan><tspan class="cls-20" x="1339.77" y="142.7">t</tspan><tspan class="cls-22" x="1345.87" y="142.7">es</tspan></text><path class="cls-1" d="M807.66,100.41A100.41,100.41,0,1,1,707.25,0,100.44,100.44,0,0,1,807.66,100.41Z"/><text class="cls-23"><tspan x="662.27" y="136.38">In</tspan><tspan class="cls-24" x="677.95" y="136.38">n</tspan><tspan x="688.67" y="136.38">er Ci</tspan><tspan class="cls-25" x="725.27" y="136.38">r</tspan><tspan class="cls-18" x="731.77" y="136.38">c</tspan><tspan x="740.8" y="136.38">le </tspan><tspan x="673.35" y="154.84">Plat</tspan><tspan class="cls-13" x="705.43" y="154.84">f</tspan><tspan x="711.27" y="154.84">o</tspan><tspan class="cls-18" x="721.35" y="154.84">r</tspan><tspan x="727.92" y="154.84">m</tspan></text><text class="cls-2" transform="translate(349.7 49.38)">I<tspan class="cls-11" x="4.77" y="0">n</tspan><tspan class="cls-4" x="15.09" y="0">v</tspan><tspan x="23.46" y="0">est</tspan><tspan class="cls-3" x="46.96" y="0">m</tspan><tspan x="63.27" y="0">ent / </tspan><tspan class="cls-26" x="103.22" y="0">C</tspan><tspan x="114.01" y="0">oope</tspan><tspan class="cls-7" x="153.46" y="0">r</tspan><tspan x="159.65" y="0">ation</tspan></text><text class="cls-2" transform="translate(427.56 163.26)"><tspan class="cls-27">P</tspan><tspan class="cls-28" x="10.82" y="0">r</tspan><tspan x="16.94" y="0">ofit</tspan></text><text class="cls-2" transform="translate(941.63 49.38)">Buy In</text><text class="cls-2" transform="translate(920.18 162.26)"><tspan class="cls-29">P</tspan><tspan class="cls-30" x="10.82" y="0">r</tspan><tspan class="cls-22" x="16.94" y="0">ofit Sha</tspan><tspan class="cls-30" x="77.41" y="0">r</tspan><tspan x="83.53" y="0">e</tspan></text><path class="cls-31" d="M742.46,56.8a39.34,39.34,0,0,0-73.38,27l.14,0c-3.94-31.62,21-46.54,37.93-46.54,17.42,0,34.23,15.66,34.23,36.95,0,6.07-6.56,30.22-25.35,29.5,0,0-3.79-4.37-6.17-6.67.45-4.21-.94-12.72-1.06-14.48-.43-6.64,5.64-11.71,9.16-14.63l-.59-.5c-4,2.33-7.08,4.8-9,8.09-.77-5-2-10.46-2.13-11.19l-1.08.85c.38,2,2.69,11.79.53,16.42-2.61-4.94-7.64-9.66-13-11l.36,1.23c4.8,1.86,12,10.84,12.22,16a22,22,0,0,1-.73,6.42c-2.36-1.37-4.81-3.16-5.44-4.13-.92-1.45-2.3-3.61-3.51-3.51s-2.22,5.2.72,8,5.81,5.22,4.71,7-5.44,1.88-5.44,1.88c-3.91-.34-9.65-2.48-14.62-7.39-7.31-7.2-8.91-4.3-8.91-4.3a39.32,39.32,0,1,0,70.42-35Z"/><path class="cls-31" d="M679.24,88.33c-1.86-1.07-1.75,1.23-1.75,1.23l2,3.81s3.26,3.17,3.7,3.23C683.94,96.66,681.1,89.41,679.24,88.33Z"/><path class="cls-31" d="M689.22,96.43l1.58,4.78a15.06,15.06,0,0,0,4,1.11c.47,0-2-6.2-3.92-7.19S689.22,96.43,689.22,96.43Z"/><path class="cls-31" d="M684.94,91.8c-1.9-1-1.7,1.31-1.7,1.31l2,5s3.21,2,3.63,1.87C689.52,99.74,686.84,92.8,684.94,91.8Z"/><path class="cls-31" d="M705.93,66.35l-5.56-5.26,3.53-6.79,5.55,5.26Zm-3.79-5.56L705.53,64l2.16-4.15-3.4-3.22Z"/><path class="cls-31" d="M710.62,58.14l-5.87-6.87,5-7.53,5.87,6.86Zm-4.09-7,3.94,4.61,3.34-5.06-3.94-4.6Z"/><path class="cls-31" d="M700.28,70.34l-6.06-3.27,1.46-6.73,6.07,3.27Zm-4.44-4,3.45,1.85.83-3.83-3.44-1.85Z"/><path class="cls-31" d="M700.07,57.46l-6.55-6,3.94-7.95,6.56,6Zm-4.79-6.31,4.36,4,2.62-5.29-4.36-4Z"/><path class="cls-31" d="M692.28,79.34l-4.87-1.69,3-4.22,4.87,1.7Zm-2.61-2.42,2.07.72L693,75.85l-2.07-.72Z"/><path class="cls-31" d="M719.08,77.39l-3.13-6L722.57,70l3.14,6Zm-1-5,1.76,3.36,3.71-.77-1.75-3.36Z"/><path class="cls-31" d="M713.34,80.73,711.8,76l4.94-.19,1.54,4.7Zm.41-3.35.61,1.88,2-.08-.62-1.87Z"/><path class="cls-31" d="M724.9,69.06l-8.25-.71,3-7.73,8.25.71Zm-6.24-2,5.29.46,1.9-5-5.29-.46Z"/><path class="cls-31" d="M709.25,69.61l-.84-6.51,6-2.59.83,6.5ZM710,64l.45,3.56,3.3-1.42-.46-3.56Z"/><path class="cls-31" d="M715.35,59.92l1.19-8.73,8.72-1.25-1.19,8.73Zm2.46-7.47L717,58.24l5.78-.83.79-5.79Z"/><path class="cls-31" d="M694.63,72.14l-10.9-.27L681,61.32l10.89.27Zm-9.79-1.67,7.93.19-2-7.67-7.92-.19Z"/><path class="cls-31" d="M693.92,60.41l-8.2-1.5-.82-8.3,8.2,1.5ZM687,57.7l5.29,1-.53-5.34-5.29-1Z"/><path class="cls-31" d="M703.87,75.93l-3.75-2.75,1.62-4.37,3.75,2.76Zm-2-3.27,1.36,1,.58-1.58-1.35-1Z"/><polygon class="cls-1" points="289.29 53.23 279.64 43.58 289.29 33.94 293.53 38.18 288.12 43.58 293.53 48.99 289.29 53.23"/><polygon class="cls-1" points="286 166.41 281.76 162.16 287.17 156.76 281.76 151.35 286 147.11 295.65 156.76 286 166.41"/><polygon class="cls-1" points="1126.94 166.41 1122.7 162.16 1128.11 156.76 1122.7 151.35 1126.94 147.11 1136.59 156.76 1126.94 166.41"/><polygon class="cls-1" points="1130.23 53.23 1120.58 43.58 1130.23 33.94 1134.47 38.18 1129.07 43.58 1134.47 48.99 1130.23 53.23"/><g class="cls-32"><circle class="cls-31" cx="1267.8" cy="47.45" r="8.28"/><path class="cls-31" d="M1274.72,57.56h0a9.86,9.86,0,0,0-3.23.54,11.12,11.12,0,0,1-7.38,0,9.86,9.86,0,0,0-3.23-.54h0a7.31,7.31,0,0,0-7.1,9l2.16,8.94h23.72l2.16-8.94A7.31,7.31,0,0,0,1274.72,57.56Z"/></g><g class="cls-32"><circle class="cls-31" cx="1311.48" cy="47.45" r="8.28"/><path class="cls-31" d="M1318.39,57.56h0a9.76,9.76,0,0,0-3.22.54,11.12,11.12,0,0,1-7.38,0,9.86,9.86,0,0,0-3.23-.54h0a7.31,7.31,0,0,0-7.1,9l2.16,8.94h23.71l2.17-8.94A7.32,7.32,0,0,0,1318.39,57.56Z"/></g><circle class="cls-31" cx="1289.64" cy="49.85" r="10.67"/><path class="cls-31" d="M1298.56,62.89h0a12.78,12.78,0,0,0-4.16.69,14.17,14.17,0,0,1-4.76.82,14.42,14.42,0,0,1-4.76-.81,12.53,12.53,0,0,0-4.16-.7h0a9.42,9.42,0,0,0-9.16,11.64l2.79,11.53h30.58l2.79-11.53A9.43,9.43,0,0,0,1298.56,62.89Z"/></g></g></svg>