<svg xmlns="http://www.w3.org/2000/svg" viewBox="0 0 35.38 35.38"><defs><style
    >.cls-1{fill:#1DA1F2;}</style></defs><g id="Layer_2" data-name="Layer 2"><g
      id="Layer_2-2"
      data-name="Layer 2"
    ><path
        class="cls-1"
        d="M17.69,0A17.69,17.69,0,1,0,35.38,17.69,17.69,17.69,0,0,0,17.69,0Zm9.85,11.65a.46.46,0,0,1-.1.3,7.84,7.84,0,0,1-1.54,1.61c-.09.06-.23.13-.23.26a11.9,11.9,0,0,1-3.14,8.67A11.66,11.66,0,0,1,11.2,25.14,10.72,10.72,0,0,1,9,24.27c-.23-.13-.45-.26-.68-.41-.05-.05-.1-.09-.05-.12s.09,0,.26,0a7.63,7.63,0,0,0,3.28-.42A5,5,0,0,0,14,22.18s0,0,0,0c-.15,0-.29,0-.43-.06a4.24,4.24,0,0,1-3.17-2.64c0-.11,0-.16.11-.14a4.45,4.45,0,0,0,1.51,0,3,3,0,0,1-.51-.15A4.08,4.08,0,0,1,9,15.86a2.48,2.48,0,0,1,0-.46c0-.1.06-.14.15-.08a4.07,4.07,0,0,0,1.53.43c-.17-.13-.33-.28-.49-.43a4,4,0,0,1-.68-4.76c.07-.12.12-.12.22,0a12.35,12.35,0,0,0,8,4c.08,0,.09,0,.08-.1a3.94,3.94,0,0,1,.82-3.23,4.32,4.32,0,0,1,1.32-1.08,4.19,4.19,0,0,1,1.63-.46,4,4,0,0,1,1.72.28,4.18,4.18,0,0,1,1.12.69l.2.2a.15.15,0,0,0,.16,0A10,10,0,0,0,27,10.06a.14.14,0,0,1,.11,0,.08.08,0,0,1,0,.1,3.33,3.33,0,0,1-.65,1.18c-.18.23-.64.8-1,.86a8.3,8.3,0,0,0,2-.56c.07,0,.07-.05.07,0Z"
      /></g></g></svg>
